<?xml version="1.0" standalone="no"?>
<!DOCTYPE svg PUBLIC "-//W3C//DTD SVG 1.1//EN" "http://www.w3.org/Graphics/SVG/1.1/DTD/svg11.dtd" >
<svg xmlns="http://www.w3.org/2000/svg" xmlns:xlink="http://www.w3.org/1999/xlink" version="1.1">
<metadata>
Created by FontForge 20200427 at Fri Feb 16 23:22:07 2018
 By www
Copyright (c) 2018 by Paulo Goode. All rights reserved.
</metadata>
<defs>
<font id="TorusNotched-SemiBold" horiz-adv-x="616" >
  <font-face 
    font-family="Torus Notched SemiBold"
    font-weight="600"
    font-stretch="normal"
    units-per-em="1000"
    panose-1="0 0 7 0 0 0 0 0 0 0"
    ascent="800"
    descent="-200"
    x-height="491"
    cap-height="653"
    bbox="-370.516 -201 1019 924.836"
    underline-thickness="50"
    underline-position="-100"
    unicode-range="U+0020-FB02"
  />
<missing-glyph horiz-adv-x="909" 
d="M315 45q25 0 40 -14t15 -39t-15 -39.5t-40 -14.5h-38q-104 0 -147 51.5t-43 162.5v340q0 110 43 161.5t147 51.5h38q25 0 40 -14t15 -39t-15 -39.5t-40 -14.5h-38q-23 0 -38 -6t-23 -13.5t-11.5 -27t-4 -32t-0.5 -43.5v-308q0 -26 0.5 -37t2.5 -29t6.5 -25.5t13 -16.5
t22 -12t32.5 -3h38zM632 705q104 0 146.5 -51.5t42.5 -161.5v-340q0 -111 -42.5 -162.5t-146.5 -51.5h-38q-25 0 -40 14.5t-15 39.5t15 39t40 14h38q19 0 32.5 3t22 12t13 16.5t6.5 25.5t2.5 29t0.5 37v308q0 31 -0.5 43.5t-4 32t-11.5 27t-23 13.5t-38 6h-38
q-25 0 -40 14.5t-15 39.5t15 39t40 14h38zM327 501h22q27 0 43.5 -14.5t16.5 -40.5t-16.5 -41t-43.5 -15h-22q-26 0 -42.5 15t-16.5 41t16.5 40.5t42.5 14.5zM559 390q-26 0 -42.5 15t-16.5 41t16.5 40.5t42.5 14.5h22q27 0 43.5 -14.5t16.5 -40.5t-16.5 -41t-43.5 -15h-22z
M608 168q-9 -52 -68 -35q-45 14 -87 14t-86 -14q-59 -17 -68 35q-9 53 49 65q59 13 105 13q45 0 106 -13q26 -5 39.5 -22t9.5 -43z" />
    <glyph glyph-name="fi" unicode="fi" horiz-adv-x="657" 
d="M536 582q-31 0 -50.5 20t-19.5 50t19.5 50t50.5 20q30 0 49.5 -20t19.5 -50t-19.5 -50t-49.5 -20zM314 596q-46 0 -60 -22t-15 -73v-1h89q27 0 43.5 -14t16.5 -40q0 -25 -16.5 -39.5t-43.5 -14.5h-150v-5q22 0 41.5 -16.5t19.5 -42.5v-266q0 -27 -16 -44.5t-42 -17.5
q-27 0 -43 17.5t-16 44.5v330h-30q-27 0 -43.5 14.5t-16.5 39.5q0 26 16 40t44 14h30v1q2 102 46.5 152.5t144.5 50.5h37q27 0 42.5 -14t15.5 -40q0 -25 -15.5 -39.5t-42.5 -14.5h-36zM536 500q26 0 42 -16.5t16 -40.5v-3q0 -21 -19 -36t-41 -15v-5h60v-322q0 -27 -16 -44.5
t-42 -17.5q-27 0 -43 17.5t-16 44.5v377q0 27 16 44t43 17z" />
    <glyph glyph-name="fl" unicode="fl" horiz-adv-x="654" 
d="M314 596q-46 0 -60 -22t-15 -73v-1h89q27 0 43.5 -14t16.5 -40q0 -25 -16.5 -39.5t-43.5 -14.5h-150v-5q22 0 41.5 -16.5t19.5 -42.5v-266q0 -27 -16 -44.5t-42 -17.5q-27 0 -43 17.5t-16 44.5v330h-30q-27 0 -43.5 14.5t-16.5 39.5q0 26 16 40t44 14h30v1
q2 102 46.5 152.5t144.5 50.5h37q27 0 42.5 -14t15.5 -40q0 -25 -15.5 -39.5t-42.5 -14.5h-36zM536 703q26 0 42 -16.5t16 -41.5v-3q0 -21 -19.5 -36t-40.5 -15v-5h60v-524q0 -27 -16 -44.5t-42 -17.5q-27 0 -43 17.5t-16 44.5v579q0 27 16 44.5t43 17.5z" />
    <glyph glyph-name="f_f" unicode="ff" horiz-adv-x="763" 
d="M641 596q-46 0 -60 -22t-14 -73v-1h88q27 0 43.5 -14t16.5 -40q0 -25 -16.5 -39.5t-43.5 -14.5h-150v-5q22 0 42 -16.5t20 -42.5v-266q0 -27 -16.5 -44.5t-42.5 -17.5q-27 0 -43 17.5t-16 44.5v330h-271v-5q22 0 41.5 -16.5t19.5 -42.5v-266q0 -27 -16 -44.5t-42 -17.5
q-27 0 -43 17.5t-16 44.5v330h-30q-27 0 -43.5 14.5t-16.5 39.5q0 26 16 40t44 14h30v1q2 102 46.5 152.5t144.5 50.5h37q27 0 42.5 -14t15.5 -40q0 -25 -15.5 -39.5t-42.5 -14.5h-36q-46 0 -60 -22t-15 -73v-1h210v1q2 102 46.5 152.5t145.5 50.5h37q26 0 41.5 -14
t15.5 -40q0 -25 -15.5 -39.5t-41.5 -14.5h-37z" />
    <glyph glyph-name="f_f_i" unicode="ffi" horiz-adv-x="984" 
d="M863 582q-31 0 -50.5 20t-19.5 50t19.5 50t50.5 20q30 0 49.5 -20t19.5 -50t-19.5 -50t-49.5 -20zM678 704q26 0 41.5 -14t15.5 -40q0 -25 -15.5 -39.5t-41.5 -14.5h-37q-46 0 -60 -22t-14 -73v-1h88q27 0 43.5 -14t16.5 -40q0 -25 -16.5 -39.5t-43.5 -14.5h-150v-5
q22 0 42 -16.5t20 -42.5v-266q0 -27 -16.5 -44.5t-42.5 -17.5q-27 0 -43 17.5t-16 44.5v330h-271v-5q22 0 41.5 -16.5t19.5 -42.5v-266q0 -27 -16 -44.5t-42 -17.5q-27 0 -43 17.5t-16 44.5v330h-30q-27 0 -43.5 14.5t-16.5 39.5q0 26 16 40t44 14h30v1q2 102 46.5 152.5
t144.5 50.5h37q27 0 42.5 -14t15.5 -40q0 -25 -15.5 -39.5t-42.5 -14.5h-36q-46 0 -60 -22t-15 -73v-1h210v1q2 102 46.5 152.5t145.5 50.5h37zM863 500q26 0 42 -16.5t16 -40.5v-3q0 -21 -19 -36t-41 -15v-5h60v-322q0 -27 -16 -44.5t-42 -17.5q-27 0 -43 17.5t-16 44.5
v377q0 27 16 44t43 17z" />
    <glyph glyph-name="f_f_l" unicode="ffl" horiz-adv-x="982" 
d="M678 704q26 0 41.5 -14t15.5 -40q0 -25 -15.5 -39.5t-41.5 -14.5h-37q-46 0 -60 -22t-14 -73v-1h88q27 0 43.5 -14t16.5 -40q0 -25 -16.5 -39.5t-43.5 -14.5h-150v-5q22 0 42 -16.5t20 -42.5v-266q0 -27 -16.5 -44.5t-42.5 -17.5q-27 0 -43 17.5t-16 44.5v330h-271v-5
q22 0 41.5 -16.5t19.5 -42.5v-266q0 -27 -16 -44.5t-42 -17.5q-27 0 -43 17.5t-16 44.5v330h-30q-27 0 -43.5 14.5t-16.5 39.5q0 26 16 40t44 14h30v1q2 102 46.5 152.5t144.5 50.5h37q27 0 42.5 -14t15.5 -40q0 -25 -15.5 -39.5t-42.5 -14.5h-36q-46 0 -60 -22t-15 -73v-1
h210v1q2 102 46.5 152.5t145.5 50.5h37zM922 642q0 -21 -19.5 -36t-40.5 -15v-5h60v-524q0 -27 -16 -44.5t-43 -17.5t-43 17.5t-16 44.5v579q0 27 16 44.5t43 17.5q26 0 42.5 -16.5t16.5 -41.5v-3z" />
    <glyph glyph-name=".notdef" horiz-adv-x="909" 
d="M315 45q25 0 40 -14t15 -39t-15 -39.5t-40 -14.5h-38q-104 0 -147 51.5t-43 162.5v340q0 110 43 161.5t147 51.5h38q25 0 40 -14t15 -39t-15 -39.5t-40 -14.5h-38q-23 0 -38 -6t-23 -13.5t-11.5 -27t-4 -32t-0.5 -43.5v-308q0 -26 0.5 -37t2.5 -29t6.5 -25.5t13 -16.5
t22 -12t32.5 -3h38zM632 705q104 0 146.5 -51.5t42.5 -161.5v-340q0 -111 -42.5 -162.5t-146.5 -51.5h-38q-25 0 -40 14.5t-15 39.5t15 39t40 14h38q19 0 32.5 3t22 12t13 16.5t6.5 25.5t2.5 29t0.5 37v308q0 31 -0.5 43.5t-4 32t-11.5 27t-23 13.5t-38 6h-38
q-25 0 -40 14.5t-15 39.5t15 39t40 14h38zM327 501h22q27 0 43.5 -14.5t16.5 -40.5t-16.5 -41t-43.5 -15h-22q-26 0 -42.5 15t-16.5 41t16.5 40.5t42.5 14.5zM559 390q-26 0 -42.5 15t-16.5 41t16.5 40.5t42.5 14.5h22q27 0 43.5 -14.5t16.5 -40.5t-16.5 -41t-43.5 -15h-22z
M608 168q-9 -52 -68 -35q-45 14 -87 14t-86 -14q-59 -17 -68 35q-9 53 49 65q59 13 105 13q45 0 106 -13q26 -5 39.5 -22t9.5 -43z" />
    <glyph glyph-name=".null" horiz-adv-x="0" 
 />
    <glyph glyph-name="nonmarkingreturn" horiz-adv-x="333" 
 />
    <glyph glyph-name="space" unicode=" " horiz-adv-x="270" 
 />
    <glyph glyph-name="exclam" unicode="!" horiz-adv-x="306" 
d="M153 661q26 0 42.5 -17.5t16.5 -44.5v-333q0 -27 -16.5 -44.5t-42.5 -17.5q-27 0 -43 17.5t-16 44.5v333q0 27 16 44.5t43 17.5zM153 -8q-32 0 -54.5 22.5t-22.5 54.5t22.5 54t54.5 22t54.5 -22t22.5 -54t-22.5 -54.5t-54.5 -22.5z" />
    <glyph glyph-name="quotedbl" unicode="&#x22;" horiz-adv-x="440" 
d="M116 711q27 0 43 -17t16 -44v-140q0 -27 -16 -44.5t-43 -17.5q-26 0 -42.5 17.5t-16.5 44.5v140q0 26 16.5 43.5t42.5 17.5zM324 711q27 0 43 -17t16 -44v-140q0 -27 -16 -44.5t-43 -17.5t-43 17.5t-16 44.5v140q0 27 16 44t43 17z" />
    <glyph glyph-name="numbersign" unicode="#" horiz-adv-x="684" 
d="M593 501q24 0 38 -13t14 -36t-14 -36t-38 -13h-117l-2 -6q19 0 32 -15t8 -38l-23 -90h42q24 0 38 -13t14 -36t-14 -36t-38 -13h-119l-2 -6q19 0 32 -15t8 -39l-14 -57q-6 -22 -21.5 -32t-36.5 -5t-30 21.5t-4 39.5l23 93h-193l-2 -6q19 0 32 -15t8 -39l-14 -57
q-6 -22 -21.5 -32t-36.5 -5t-30 21.5t-4 39.5l23 93h-40q-24 0 -38 13t-14 36t14 36t38 13h65l36 149h-41q-24 0 -38 13t-14 36t14 36t38 13h66l27 113q13 47 58 37q21 -4 30 -21t4 -40l-22 -89h141l27 113q13 47 58 37q21 -4 30 -21t4 -40l-22 -89h41zM394 254l36 149h-192
l-2 -6q19 0 32 -15t8 -39l-23 -89h141z" />
    <glyph glyph-name="dollar" unicode="$" horiz-adv-x="572" 
d="M526 187q0 -80 -55.5 -132.5t-146.5 -60.5v-18q0 -17 -10 -28t-26 -11t-26 11t-10 28v19q-66 7 -116.5 35t-73.5 57q-34 41 1 77q22 21 37.5 21t35.5 -17q1 -1 11.5 -10t15.5 -13t17 -13t21.5 -14t23 -10.5t27.5 -8.5v193l-10 3q-88 29 -131.5 67.5t-43.5 110.5
q0 78 51 128t134 58v13q0 18 9.5 28.5t26.5 10.5q16 0 26 -10.5t10 -28.5v-63l5 -1q0 19 8.5 31t25.5 11q77 -21 120 -69q18 -21 17 -37.5t-21 -37.5q-39 -38 -71 -6q-1 1 -8 7.5t-12.5 11.5t-15.5 12t-22 13t-26 10v-221l5 -3q0 43 33 43q25 -10 37 -15t40.5 -22.5t44 -35
t29 -48t13.5 -65.5zM175 482q0 -26 18.5 -42.5t58.5 -30.5v147q-35 -5 -56 -25.5t-21 -48.5zM362 108q55 30 55 78q0 26 -21 43t-72 37v-215l5 1q2 40 33 56z" />
    <glyph glyph-name="percent" unicode="%" horiz-adv-x="731" 
d="M557 708q28 -17 8 -55l-336 -655q-8 -14 -25 -17.5t-31 6.5q-30 20 -8 55l336 655q8 14 24.5 17.5t31.5 -6.5zM186 399q-63 0 -103 40.5t-40 115.5t40 115.5t103 40.5q64 0 103.5 -40.5t39.5 -115.5t-39.5 -115.5t-103.5 -40.5zM186 479q54 0 54 76t-54 76t-54 -76
q0 -37 14.5 -56.5t39.5 -19.5zM546 -7q-63 0 -103 40.5t-40 115.5t40 116t103 41q64 0 104 -41t40 -116t-40 -115.5t-104 -40.5zM546 74q54 0 54 75q0 76 -54 76q-53 0 -53 -76q0 -75 53 -75z" />
    <glyph glyph-name="ampersand" unicode="&#x26;" horiz-adv-x="639" 
d="M310 661q64 0 102 -19q40 -23 27 -64q-16 -47 -61 -35q-33 10 -57 10q-62 0 -62 -50q0 -28 27 -53.5t27 -52.5q3 -47 -50 -59q-1 0 -17 -1.5t-33.5 -5t-38.5 -10t-40 -20.5t-31 -34l5 -3q29 42 83 37q-35 -31 -35 -78q0 -51 35.5 -86t98.5 -35t98 35t35 84q0 33 -23 70.5
t-23 57.5q0 27 19 43t43 16h117q24 0 39.5 -14.5t15.5 -40.5t-15.5 -41t-39.5 -15h-91l2 -5q43 0 62 -16q10 -27 10 -60q0 -103 -72.5 -163.5t-176.5 -60.5q-105 0 -178.5 62t-73.5 167q0 68 36 122t112 82q-42 42 -42 100q0 59 45.5 97.5t120.5 38.5z" />
    <glyph glyph-name="quotesingle" unicode="'" horiz-adv-x="232" 
d="M116 711q27 0 43 -17t16 -44v-140q0 -27 -16 -44.5t-43 -17.5q-26 0 -42.5 17.5t-16.5 44.5v140q0 26 16.5 43.5t42.5 17.5z" />
    <glyph glyph-name="parenleft" unicode="(" horiz-adv-x="325" 
d="M242 699q24 -10 32.5 -33t-2.5 -48q-2 -4 -13 -28t-15 -34t-13 -35t-13.5 -45t-10 -49.5t-7.5 -62.5t-2 -71t2 -71t7.5 -62.5t9.5 -49t13.5 -45t13 -34.5t15 -34t12.5 -28q11 -25 2.5 -48t-32.5 -33q-25 -10 -46.5 -0.5t-32.5 35.5q-86 172 -86 370q0 197 87 371
q11 26 32.5 35.5t46.5 -0.5z" />
    <glyph glyph-name="parenright" unicode=")" horiz-adv-x="325" 
d="M83 699q25 10 46 0.5t32 -35.5q88 -171 88 -371q0 -201 -87 -370q-11 -26 -32 -35.5t-46 0.5q-24 10 -32.5 33t2.5 48q1 3 12.5 28t15 34t13 34.5t13.5 45t9.5 49t7.5 62.5t2 71t-2 71t-7.5 62.5t-10 49.5t-13.5 45t-13 35t-15 34t-13 28q-11 25 -2.5 48t32.5 33z" />
    <glyph glyph-name="asterisk" unicode="*" horiz-adv-x="400" 
d="M319 533q19 -7 24 -25.5t-5 -33.5q-11 -18 -28 -22.5t-34 7.5l-41 32l7 -51q3 -20 -9.5 -33t-32.5 -13t-33 13t-10 33l7 50l-40 -31q-17 -12 -34.5 -7.5t-26.5 21.5q-10 16 -5.5 34.5t22.5 25.5l48 20l-48 19q-18 7 -22.5 25.5t5.5 35.5q9 16 26.5 20.5t34.5 -7.5l40 -31
l-7 50q-3 20 10 33.5t33 13.5q19 0 32 -13.5t10 -33.5l-7 -51l41 32q17 12 34 7.5t28 -21.5q10 -16 5 -34t-24 -26l-48 -19z" />
    <glyph glyph-name="plus" unicode="+" horiz-adv-x="600" 
d="M489 338q27 0 43.5 -15.5t16.5 -41.5t-16.5 -41.5t-43.5 -15.5h-193v-6q22 0 41.5 -16t19.5 -42v-75q0 -27 -15.5 -43.5t-41.5 -16.5t-41.5 16.5t-15.5 43.5v139h-132q-27 0 -43.5 15.5t-16.5 41.5t16.5 41.5t43.5 15.5h132v139q0 27 15.5 43.5t41.5 16.5t41.5 -16.5
t15.5 -43.5v-139h132z" />
    <glyph glyph-name="comma" unicode="," horiz-adv-x="255" 
d="M190 23l-74 -136q-14 -26 -42 -26q-20 0 -34 14t-14 33q0 8 2 16l51 156q17 40 59 40q26 0 44.5 -18.5t18.5 -44.5q0 -12 -11 -34z" />
    <glyph glyph-name="hyphen" unicode="-" horiz-adv-x="482" 
d="M406 281q0 -26 -16.5 -41.5t-43.5 -15.5h-210q-27 0 -43.5 15.5t-16.5 41.5t16.5 41.5t43.5 15.5h210q27 0 43.5 -15.5t16.5 -41.5z" />
    <glyph glyph-name="period" unicode="." horiz-adv-x="249" 
d="M124 0q-29 0 -49.5 21t-20.5 50t20.5 50t49.5 21q30 0 50.5 -21t20.5 -50t-20.5 -50t-50.5 -21z" />
    <glyph glyph-name="slash" unicode="/" horiz-adv-x="404" 
d="M364 744q21 -8 28 -27t-2 -41l-274 -676q-9 -22 -27 -30t-39 0t-28 27t2 41l274 676q9 22 27 30t39 0z" />
    <glyph glyph-name="zero" unicode="0" horiz-adv-x="652" 
d="M326 661q123 0 201 -92t78 -242t-78 -242t-201 -93t-201 92t-78 243t78 242t201 92zM319 547q-54 0 -107.5 -25.5t-75.5 -82.5l4 -2q10 27 30 38t36 11q-37 -57 -37 -159q0 -107 41.5 -164t115.5 -57t115.5 57t41.5 164q0 109 -43 164.5t-121 55.5z" />
    <glyph glyph-name="one" unicode="1" horiz-adv-x="376" 
d="M210 654q37 0 64 -27t27 -85v-483q0 -27 -16.5 -45t-43.5 -18t-43.5 18t-16.5 45v428q0 43 37 76l-2 5l-99 -102q-18 -18 -40 -19t-41 16q-17 17 -16.5 40t19.5 42l40 40q21 21 33.5 32t40.5 24t57 13z" />
    <glyph glyph-name="two" unicode="2" horiz-adv-x="573" 
d="M466 112q26 0 42.5 -15.5t16.5 -40.5t-16.5 -40.5t-42.5 -15.5h-343q-32 0 -50 26q-13 17 -10.5 38.5t21.5 36.5l249 191q38 29 57 58t19 72q0 58 -35.5 92.5t-104.5 34.5q-47 0 -91 -17.5t-64 -53.5l4 -2q12 20 34.5 29.5t40.5 8.5q-31 -29 -31 -79q0 -42 25 -73
q32 -45 -1 -76q-38 -38 -80 1q-59 52 -59 139q0 103 69 168t173 65q107 0 172 -68.5t65 -169.5q0 -127 -129 -221l-54 -39q-63 -44 -130 -44l-6 -5h259z" />
    <glyph glyph-name="three" unicode="3" horiz-adv-x="528" 
d="M400 349q81 -59 81 -162q0 -90 -63.5 -142.5t-168.5 -52.5q-62 0 -114 20t-80 54q-34 43 4 81q36 36 78 0q28 -25 52 -35t73 -10q116 0 149 70l-5 1q-20 -37 -62 -37q19 22 19 56q0 42 -27 65.5t-80 23.5h-15q-25 0 -40.5 15t-15.5 40q0 24 15.5 38.5t40.5 14.5h7
q38 0 65 20.5t27 59.5q0 31 -23 56.5t-65 25.5q-24 0 -44.5 -10.5t-28 -19t-20.5 -25.5q-32 -43 -76 -13q-46 30 -17 80q23 41 73 69.5t114 28.5q90 0 147.5 -55.5t57.5 -125.5q0 -73 -58 -131z" />
    <glyph glyph-name="four" unicode="4" horiz-adv-x="553" 
d="M472 266q26 0 42 -15.5t16 -40.5t-16 -40.5t-42 -15.5h-32q-26 0 -35 -12.5t-9 -48.5v-42q0 -26 -16 -40.5t-41 -14.5q-26 0 -41.5 14.5t-15.5 40.5v42q0 36 -9 48.5t-35 12.5h-155q-27 0 -43.5 15.5t-16.5 40.5q0 19 14 42l231 377q16 23 38.5 29t46.5 -8
q22 -14 26 -38.5t-11 -45.5l-226 -346h5q33 44 65 44h1q36 0 72 -13v58q0 56 54 56q53 0 53 -56v-89h4q10 46 54 46h22z" />
    <glyph glyph-name="five" unicode="5" horiz-adv-x="539" 
d="M289 444q91 0 147 -60.5t56 -161.5q0 -106 -64.5 -168t-169.5 -62q-61 0 -114 20t-81 53q-36 43 3 82q37 37 86 -7q46 -38 115 -38q113 0 144 69l-5 2q-20 -37 -62 -37q30 30 30 85q0 53 -27.5 84t-81.5 31q-48 0 -88 -29q-43 -33 -82 -18q-44 15 -35 72l29 236
q3 26 21.5 41t42.5 15h231q27 0 43.5 -15.5t16.5 -40.5t-16.5 -40.5t-43.5 -15.5h-247l-1 -6q44 -14 42 -53l-10 -86q46 48 121 48z" />
    <glyph glyph-name="six" unicode="6" horiz-adv-x="607" 
d="M297 305q-40 -25 -63 7t11 68q45 52 129 52q85 0 140 -57.5t55 -150.5q0 -104 -69.5 -168t-177.5 -64q-122 0 -198.5 81t-76.5 213q0 71 25 134t61 104t80 72t79.5 45.5t60.5 18.5q61 9 70 -45q4 -24 -9 -38t-41 -25q-34 -13 -60.5 -26.5t-55.5 -36t-48.5 -49t-32 -64.5
t-12.5 -83q0 -87 45.5 -139.5t134.5 -52.5q105 0 139 70l-4 2q-18 -34 -60 -37q34 34 34 90q0 53 -28 77t-67 24q-30 0 -61 -22z" />
    <glyph glyph-name="seven" unicode="7" horiz-adv-x="478" 
d="M459 607q5 -23 -7 -45l-254 -529q-13 -24 -36.5 -31t-45.5 6q-21 12 -26.5 35.5t6.5 46.5l201 401q22 45 84 45l2 5h-305q-26 0 -42.5 15.5t-16.5 40.5t16.5 40.5t42.5 15.5h322q23 0 38.5 -12.5t20.5 -33.5z" />
    <glyph glyph-name="eight" unicode="8" horiz-adv-x="564" 
d="M446 346q81 -55 81 -153q0 -89 -65.5 -145t-179.5 -56t-179.5 56.5t-65.5 144.5q0 98 81 153q-58 51 -58 129q0 86 65 136t157 50t157 -50t65 -136q0 -79 -58 -129zM282 389q57 0 81.5 19.5t24.5 64.5q0 81 -118 81q-42 0 -82.5 -15t-59.5 -53l5 -1q22 36 57 34
q-14 -20 -14 -46q0 -45 24.5 -64.5t81.5 -19.5zM282 293q-61 0 -94 -21t-33 -77q0 -95 145 -95q53 0 97.5 18t57.5 53l-5 1q-9 -18 -26.5 -27.5t-35.5 -7.5q21 21 21 58q0 56 -33 77t-94 21z" />
    <glyph glyph-name="nine" unicode="9" horiz-adv-x="607" 
d="M320 349q36 24 59 -3q26 -32 -6 -69q-49 -54 -133 -54q-93 0 -147.5 62t-54.5 153q0 100 73 161.5t180 61.5q123 0 196 -80t73 -212q0 -75 -24.5 -138.5t-60.5 -104.5t-80 -71t-79.5 -44t-63.5 -18q-63 -10 -70 42q-8 47 50 68q31 11 53.5 21t54.5 32t52 48t35 67.5
t15 91.5q0 85 -41 137t-129 52q-50 0 -87.5 -13.5t-59.5 -56.5l4 -2q20 35 60 37q-35 -33 -35 -87q0 -47 27 -74.5t72 -27.5q33 0 67 21z" />
    <glyph glyph-name="colon" unicode=":" horiz-adv-x="294" 
d="M147 277q-29 0 -50 21t-21 50t21 49.5t50 20.5t50 -20.5t21 -49.5t-21 -50t-50 -21zM147 0q-29 0 -50 21t-21 50t21 50t50 21t50 -21t21 -50t-21 -50t-50 -21z" />
    <glyph glyph-name="semicolon" unicode=";" horiz-adv-x="305" 
d="M158 277q-29 0 -49.5 21t-20.5 50t20.5 49.5t49.5 20.5t50 -20.5t21 -49.5t-21 -50t-50 -21zM199 23l-74 -136q-14 -26 -42 -26q-20 0 -34 14t-14 33q0 8 2 16l51 156q16 40 59 40q26 0 44.5 -18.5t18.5 -44.5q0 -12 -11 -34z" />
    <glyph glyph-name="less" unicode="&#x3c;" horiz-adv-x="483" 
d="M185 279l218 -145q22 -13 28 -35t-8 -42t-35 -24.5t-43 8.5l-274 188q-34 23 -34 50q0 26 34 49l273 188q23 13 44 8.5t35 -24.5q14 -21 8.5 -42.5t-28.5 -34.5z" />
    <glyph glyph-name="equal" unicode="=" horiz-adv-x="600" 
d="M549 393q0 -25 -17 -41t-43 -16h-378q-26 0 -43 16t-17 41q0 26 17 42t43 16h378q26 0 43 -16t17 -42zM549 169q0 -26 -17 -42t-43 -16h-378q-26 0 -43 16t-17 42q0 25 17 41t43 16h378q26 0 43 -16t17 -41z" />
    <glyph glyph-name="greater" unicode="&#x3e;" horiz-adv-x="483" 
d="M298 279l-218 144q-23 13 -28.5 34.5t8.5 42.5q14 20 35 24.5t44 -8.5l273 -188q34 -23 34 -49q0 -27 -34 -50l-274 -188q-22 -13 -43 -8.5t-35 24.5t-8 42t28 35z" />
    <glyph glyph-name="question" unicode="?" horiz-adv-x="562" 
d="M348 264h-73v-5q48 0 49 -25l-1 -17q-5 -40 -56 -40q-61 0 -61 50v98q0 14 9 22.5t22 8.5h46q44 0 73 26.5t29 73.5q0 45 -29.5 69.5t-83.5 24.5q-107 0 -140 -68l4 -1q22 36 56 34q-18 -21 -24 -51q-16 -54 -71 -40q-45 12 -37 66q4 26 18 53t38.5 54.5t68 45t97.5 17.5
q103 0 162.5 -55t59.5 -148q0 -80 -44.5 -131t-111.5 -62zM263 -8q-31 0 -53 21.5t-22 52.5t22 53t53 22t53.5 -22t22.5 -53t-22 -52.5t-54 -21.5z" />
    <glyph glyph-name="at" unicode="@" horiz-adv-x="934" 
d="M469 656q78 0 149.5 -24t128.5 -68.5t90.5 -117t33.5 -161.5v-119q0 -56 -36 -88.5t-94 -32.5q-64 0 -107 34.5t-43 90.5v100q0 58 -40 93.5t-102 35.5q-130 0 -177 -77l5 -3q15 22 38 32t39 7q-40 -39 -40 -108q0 -68 40 -108t103 -40q25 0 49 8q52 15 72 -25
q24 -49 -24 -72q-40 -21 -109 -21q-101 0 -175 74t-74 185q0 113 72 185t190 72q105 0 178 -61t73 -167v-115q0 -34 15 -56.5t48 -22.5t49 23t16 57v120q0 82 -32 148t-84.5 106.5t-117 61.5t-134.5 21q-177 0 -282 -106t-105 -274q0 -157 105 -261.5t253 -104.5
q115 0 199 53q17 11 26 -7q7 -14 -12 -25q-101 -54 -210 -54q-103 0 -193 48.5t-146.5 140t-56.5 206.5q0 183 113 300t309 117z" />
    <glyph glyph-name="A" unicode="A" 
d="M583 85q10 -25 1 -48t-34 -33q-24 -10 -46.5 0.5t-32.5 36.5l-31 86h-323l-2 -6q29 0 50 -24l-21 -57q-10 -25 -32 -35.5t-46 -0.5q-25 10 -34 33t1 48l217 534q16 42 58 42q43 0 58 -42zM216 233h184l-115 307l-4 -9q21 -61 4 -114z" />
    <glyph glyph-name="B" unicode="B" horiz-adv-x="593" 
d="M466 350q79 -59 79 -156q0 -85 -51.5 -139.5t-141.5 -54.5h-227q-27 0 -43 18t-16 45v527q0 28 16.5 45.5t43.5 17.5h186q91 0 143 -51.5t52 -135.5q0 -64 -41 -116zM389 464q0 77 -90 77h-174v-5q22 0 41.5 -16.5t19.5 -42.5v-93h134q34 0 51.5 21.5t17.5 58.5zM426 197
q0 82 -72 82h-229v-6q22 0 41.5 -16t19.5 -42v-103h150q45 0 67.5 22.5t22.5 62.5z" />
    <glyph glyph-name="C" unicode="C" horiz-adv-x="679" 
d="M510 490q-18 17 -31.5 26t-51.5 20t-90 11q-133 0 -179 -75l5 -4q29 41 81 34q-75 -61 -75 -175q0 -96 56 -158.5t148 -62.5q35 0 66.5 12t44 22t34.5 29q45 40 84 2q41 -40 3 -86q-32 -38 -96.5 -65.5t-140.5 -27.5q-138 0 -229.5 95.5t-91.5 239.5t91.5 239t232.5 95
q73 0 134.5 -25.5t90.5 -60.5q36 -41 -6 -83q-39 -40 -80 -2z" />
    <glyph glyph-name="D" unicode="D" horiz-adv-x="648" 
d="M299 653q137 0 219.5 -88.5t82.5 -237.5t-82 -238t-219 -89h-174q-27 0 -43.5 17.5t-16.5 45.5v527q0 28 16.5 45.5t43.5 17.5h173zM311 113q144 0 194 73l-5 3q-17 -24 -43 -32.5t-42 -5.5q66 54 66 176q0 97 -45.5 155t-136.5 58h-175v-6q22 0 41.5 -16t19.5 -42v-363
h126z" />
    <glyph glyph-name="E" unicode="E" horiz-adv-x="524" 
d="M422 113q27 0 43.5 -15.5t16.5 -40.5q0 -26 -16.5 -41.5t-43.5 -15.5h-296q-27 0 -43.5 17.5t-16.5 45.5v527q0 28 16.5 45.5t43.5 17.5h291q27 0 43.5 -15.5t16.5 -41.5q0 -25 -16.5 -40.5t-43.5 -15.5h-292v-6q21 0 39 -15.5t18 -40.5v-89h189q27 0 44 -15.5t17 -39.5
q0 -25 -17.5 -40.5t-43.5 -15.5h-246v-5q21 0 39 -16t18 -41v-103h240z" />
    <glyph glyph-name="F" unicode="F" horiz-adv-x="497" 
d="M400 540h-275v-6q22 0 40.5 -16t18.5 -42v-97h165q27 0 44.5 -15.5t17.5 -41.5t-17.5 -41t-44.5 -15h-224v-6q22 0 40.5 -16t18.5 -42v-139q0 -27 -16 -45t-43 -18t-43 18t-16 45v527q0 28 16.5 45.5t43.5 17.5h274q26 0 43 -16t17 -41t-16.5 -40.5t-43.5 -15.5z" />
    <glyph glyph-name="G" unicode="G" horiz-adv-x="708" 
d="M603 381q26 0 41.5 -15t15.5 -40v-81q0 -80 -43 -139t-108.5 -86.5t-140.5 -27.5q-135 0 -228 93.5t-93 239.5q0 144 91 240t232 96q71 0 131.5 -24.5t88.5 -57.5q32 -38 0 -78q-16 -21 -40.5 -22t-41.5 14q-22 16 -34 24t-51 20t-86 12q-132 0 -179 -76l5 -3
q30 41 80 34q-74 -63 -74 -178q0 -100 59 -161t149 -61q63 0 107 31t56 85l1 3q4 19 21.5 31t37.5 12v5h-162q-27 0 -43 15t-16 40t16 40t43 15h165z" />
    <glyph glyph-name="H" unicode="H" horiz-adv-x="698" 
d="M572 653q27 0 43.5 -17.5t16.5 -45.5v-527q0 -28 -16.5 -45.5t-43.5 -17.5t-43.5 18t-16.5 45v214h-387v-5q22 0 41.5 -16t19.5 -42v-151q0 -27 -16.5 -45t-43.5 -18t-43.5 17.5t-16.5 45.5v527q0 28 16.5 45.5t43.5 17.5t43.5 -18t16.5 -45v-199h326v199q0 27 16.5 45
t43.5 18z" />
    <glyph glyph-name="I" unicode="I" horiz-adv-x="259" 
d="M130 653q27 0 43.5 -17t16.5 -42v-3q0 -22 -20 -37t-41 -15v-5h61v-471q0 -27 -16.5 -45t-43.5 -18t-43.5 17.5t-16.5 45.5v527q0 28 16.5 45.5t43.5 17.5z" />
    <glyph glyph-name="J" unicode="J" horiz-adv-x="329" 
d="M203 653q27 0 43.5 -17.5t16.5 -45.5v-523q0 -157 -149 -210q-26 -9 -48 0.5t-30 33.5q-17 51 38 77q69 34 69 116v392q0 26 19.5 42t41.5 16v5h-116q-27 0 -43.5 15.5t-16.5 41.5t16.5 41.5t43.5 15.5h115z" />
    <glyph glyph-name="K" unicode="K" horiz-adv-x="608" 
d="M563 77q9 -25 -4 -48t-38 -28q-22 -5 -43 7.5t-31 38.5l-55 131q-21 49 -48.5 71.5t-84.5 22.5h-134v-5q22 0 41.5 -16t19.5 -42v-146q0 -27 -16.5 -45t-43.5 -18t-43.5 17.5t-16.5 45.5v527q0 28 16.5 45.5t43.5 17.5t43.5 -18t16.5 -45v-206h57q49 0 72.5 22t45.5 73
l53 127q23 58 74 45q26 -7 38 -28t3 -47l-55 -131q-20 -48 -42 -70q-24 -25 -71 -13l-6 -4q103 -31 153 -147z" />
    <glyph glyph-name="L" unicode="L" horiz-adv-x="512" 
d="M420 113q27 0 43.5 -15.5t16.5 -40.5q0 -26 -16.5 -41.5t-43.5 -15.5h-295q-26 0 -42.5 17.5t-16.5 45.5v527q0 28 16.5 45.5t43.5 17.5t43.5 -18t16.5 -45v-413q0 -26 -19.5 -42t-41.5 -16v-6h295z" />
    <glyph glyph-name="M" unicode="M" horiz-adv-x="735" 
d="M690 75q9 -64 -43 -74q-28 -5 -48 9.5t-24 43.5l-32 296q-5 53 27 127l-6 7l-142 -317q-17 -39 -55 -39q-39 0 -56 39l-141 317l-6 -7q34 -78 29 -128l-33 -295q-4 -29 -24 -43.5t-48 -9.5q-52 8 -43 74l58 522q4 27 21 42t40 15q38 0 54 -37l149 -315l149 315
q16 37 53 37q25 0 42 -15.5t21 -40.5z" />
    <glyph glyph-name="N" unicode="N" horiz-adv-x="669" 
d="M543 653q27 0 43.5 -17.5t16.5 -45.5v-527q0 -28 -16.5 -45.5t-43.5 -17.5q-30 0 -47 20l-354 460l-4 -5q48 -74 48 -117v-295q0 -27 -16.5 -45t-43.5 -18t-43.5 17.5t-16.5 45.5v527q0 28 16.5 45.5t43.5 17.5q28 0 52 -29l349 -455l4 5q-48 74 -48 118v298
q0 27 16.5 45t43.5 18z" />
    <glyph glyph-name="O" unicode="O" horiz-adv-x="764" 
d="M382 -8q-147 0 -241 94t-94 239q0 146 94 241t241 95t241 -95t94 -241q0 -145 -94 -239t-241 -94zM382 106q96 0 154.5 61.5t58.5 157.5q0 98 -62.5 160t-172.5 62q-66 0 -124.5 -21t-80.5 -58l5 -3q14 22 39 31.5t49 5.5q-79 -62 -79 -177q0 -96 58.5 -157.5
t154.5 -61.5z" />
    <glyph glyph-name="P" unicode="P" horiz-adv-x="581" 
d="M314 653q79 0 133.5 -36t77 -86.5t22.5 -108.5q0 -103 -65.5 -168t-171.5 -65h-185v-5q22 0 41.5 -16t19.5 -41v-64q0 -27 -16.5 -45t-43.5 -18t-43.5 17.5t-16.5 45.5v527q0 28 16.5 45.5t43.5 17.5h188zM311 302q129 0 156 69l-5 3q-10 -20 -30.5 -29.5t-35.5 -6.5
q33 30 33 84q0 47 -29.5 82.5t-98.5 35.5h-176v-5q22 0 41.5 -16.5t19.5 -42.5v-174h125z" />
    <glyph glyph-name="Q" unicode="Q" horiz-adv-x="764" 
d="M631 94l48 -48q19 -19 19.5 -42t-17.5 -41t-42 -17.5t-41 19.5l-95 108l-5 -4q17 -27 13 -54q-62 -23 -129 -23q-147 0 -241 94t-94 239q0 146 94 241t241 95t241 -95t94 -241q0 -137 -86 -231zM169 325q0 -96 58.5 -157.5t154.5 -61.5t154.5 61.5t58.5 157.5
q0 97 -63.5 159.5t-171.5 62.5q-66 0 -124.5 -21t-80.5 -58l5 -3q14 22 39 31.5t49 5.5q-79 -62 -79 -177z" />
    <glyph glyph-name="R" unicode="R" horiz-adv-x="617" 
d="M557 95q14 -22 10 -45.5t-24 -38.5q-21 -15 -44.5 -10.5t-39.5 26.5l-77 112q-1 1 -7 10t-8.5 12.5t-9 12t-11 13l-11.5 11.5t-13 10.5t-14 8t-16 6t-17 1.5h-150v-5q22 0 41.5 -16.5t19.5 -41.5v-98q0 -27 -16.5 -45t-43.5 -18t-43.5 17.5t-16.5 45.5v527
q0 28 16.5 45.5t43.5 17.5h198q111 0 167.5 -61t56.5 -149q0 -57 -28.5 -108.5t-82.5 -82.5q30 -25 48 -53zM316 329q18 0 37.5 2.5t44 9t44 21.5t28.5 36l-5 3q-10 -20 -29 -28.5t-32 -8.5q26 27 26 73q0 43 -28 73.5t-92 30.5h-185v-6q22 0 41.5 -16t19.5 -42v-148h130z
" />
    <glyph glyph-name="S" unicode="S" horiz-adv-x="571" 
d="M283 661q65 0 119 -24t82 -56q39 -43 -1 -84q-41 -41 -81 -4l-6 6q-6 6 -10.5 10t-13.5 10.5t-19.5 11.5t-24 9.5t-30 7t-35.5 2.5q-96 0 -126 -44l5 -3q19 25 57 19q-19 -17 -19 -42q0 -33 32 -50.5t111 -40.5q41 -11 70 -23t64 -34t54 -57t19 -81q0 -85 -64.5 -143.5
t-172.5 -58.5q-81 0 -142.5 31t-91.5 66q-37 45 1 85q16 16 31 19.5t26.5 -1.5t26.5 -17q2 -2 12.5 -11t16 -13.5t17 -13t21.5 -13t24 -10t29.5 -8t32.5 -2.5q54 0 84 25t31 58q0 5 -2 15q38 -9 47 -37h6q-6 27 -41.5 51t-71 36.5t-92.5 30.5q-12 3 -17 5q-86 25 -131.5 64
t-45.5 114q0 87 61.5 141t157.5 54z" />
    <glyph glyph-name="T" unicode="T" horiz-adv-x="572" 
d="M484 653q27 0 43.5 -15.5t16.5 -41.5q0 -25 -16.5 -40.5t-43.5 -15.5h-199v-6q22 0 41.5 -16t19.5 -41v-414q0 -28 -16.5 -45.5t-43.5 -17.5t-43.5 18t-16.5 45v477h-138q-26 0 -43 15.5t-17 40.5t17 41t43 16h396z" />
    <glyph glyph-name="U" unicode="U" horiz-adv-x="653" 
d="M531 653q27 0 43.5 -17.5t16.5 -45.5v-338q0 -129 -74 -194t-191 -66q-116 -1 -190 64.5t-74 195.5v338q0 28 16.5 45.5t43.5 17.5t43.5 -17.5t16.5 -45.5v-328q0 -139 48 -190l1 5q-9 16 -6 25.5t9 14t11 4.5q36 -18 81 -18q145 0 145 159v328q0 28 16.5 45.5t43.5 17.5
z" />
    <glyph glyph-name="V" unicode="V" horiz-adv-x="612" 
d="M544 648q26 -10 34.5 -33t-1.5 -48l-214 -531q-15 -40 -57 -40q-43 0 -58 40l-213 531q-10 25 -1.5 48t33.5 33q25 11 48.5 1.5t32.5 -37.5l180 -487l4 10q-21 67 2 128l130 349q10 28 32.5 37.5t47.5 -1.5z" />
    <glyph glyph-name="W" unicode="W" horiz-adv-x="885" 
d="M815 649q54 -19 37 -79l-176 -529q-7 -21 -23.5 -33t-37.5 -12q-47 0 -62 46l-111 317l-110 -317q-16 -46 -63 -46q-21 0 -37.5 12t-22.5 33l-176 529q-17 60 37 79q28 9 50.5 -1t28.5 -39l140 -478l4 10q-13 60 6 123l84 273q5 19 21.5 31t37.5 12t37.5 -11.5
t22.5 -30.5l123 -407l4 10q-14 62 6 123l104 348q14 56 76 37z" />
    <glyph glyph-name="X" unicode="X" horiz-adv-x="587" 
d="M533 98q16 -23 12 -47t-26 -40q-23 -15 -47 -9t-39 29l-168 247l-4 -5q20 -34 16 -62l-123 -180q-15 -23 -38.5 -29t-47.5 9q-22 16 -26 40t12 47l173 236l-149 222q-15 22 -11 46t26 40q24 15 48 9t37 -28l141 -229l5 4q-18 31 -14 62l99 163q14 22 38 28t47 -9
q22 -15 26 -39.5t-11 -46.5l-149 -222z" />
    <glyph glyph-name="Y" unicode="Y" horiz-adv-x="585" 
d="M481 653q27 0 43.5 -17.5t16.5 -45.5v-83q0 -104 -59.5 -175.5t-170.5 -80.5v-5q41 -16 41 -54v-129q0 -28 -16.5 -45.5t-43.5 -17.5t-43.5 18t-16.5 45v194q-87 18 -137.5 85t-50.5 165v83q0 28 16.5 45.5t43.5 17.5t43.5 -18t16.5 -45v-75q0 -137 48 -186l1 6
q-9 15 -6.5 24.5t8.5 13.5t12 4q29 -16 65 -16q62 0 95.5 41t33.5 113v75q0 27 16.5 45t43.5 18z" />
    <glyph glyph-name="Z" unicode="Z" horiz-adv-x="579" 
d="M477 114q27 0 43.5 -15.5t16.5 -41.5t-16.5 -41.5t-43.5 -15.5h-381q-41 0 -52 46q-5 28 10 52l273 389q34 47 92 47l4 5h-314q-26 0 -39.5 15.5t-13.5 41.5q0 25 17 41t43 16h355q41 0 54 -31q17 -33 -5 -66l-273 -390q-35 -47 -93 -47l-4 -5h327z" />
    <glyph glyph-name="bracketleft" unicode="[" horiz-adv-x="363" 
d="M276 -17q27 0 42 -14t15 -41t-15 -41t-42 -14h-38q-84 0 -123 34t-39 121v520q0 88 39 122.5t123 34.5h38q27 0 42 -14t15 -41t-15 -41t-42 -14h-36q-27 0 -36.5 -12t-9.5 -48v-492q0 -36 9.5 -48t36.5 -12h36z" />
    <glyph glyph-name="backslash" unicode="\" horiz-adv-x="404" 
d="M40 744q21 8 39 0t27 -30l274 -676q9 -23 1.5 -41.5t-27.5 -26.5q-21 -8 -39.5 0t-26.5 30l-274 676q-9 22 -2 41t28 27z" />
    <glyph glyph-name="bracketright" unicode="]" horiz-adv-x="363" 
d="M87 -17h36q26 0 36 12.5t10 47.5v492q0 35 -10 47.5t-36 12.5h-36q-27 0 -42.5 14.5t-15.5 40.5t15.5 40.5t42.5 14.5h38q84 0 123 -34.5t39 -122.5v-520q0 -87 -39 -121t-123 -34h-38q-27 0 -42.5 14.5t-15.5 40.5t15.5 40.5t42.5 14.5z" />
    <glyph glyph-name="asciicircum" unicode="^" horiz-adv-x="380" 
d="M314 480q-21 -8 -37.5 -1t-27.5 24l-60 92l-59 -92q-9 -17 -26.5 -24.5t-37.5 0.5q-19 9 -25 30t4 37l101 142q18 30 43 30t45 -30l101 -142q10 -15 4 -36t-25 -30z" />
    <glyph glyph-name="underscore" unicode="_" horiz-adv-x="621" 
d="M545 -88q0 -25 -16 -40.5t-42 -15.5h-353q-26 0 -42 15.5t-16 40.5t16 40t42 15h353q26 0 42 -15t16 -40z" />
    <glyph glyph-name="grave" unicode="`" horiz-adv-x="266" 
d="M126 869l78 -66q20 -16 23 -36t-13 -38q-16 -19 -36.5 -20t-39.5 16l-77 65q-42 35 -9 74q34 39 74 5z" />
    <glyph glyph-name="a" unicode="a" horiz-adv-x="606" 
d="M305 508q100 0 172.5 -61.5t72.5 -167.5v-217q0 -27 -16 -44.5t-43 -17.5q-25 0 -40 15.5t-16 39.5l-1 1h-6q-44 -64 -143 -64q-100 0 -174 72.5t-74 178.5q0 118 72.5 191.5t195.5 73.5zM299 102q61 0 97.5 38t36.5 109v20q0 130 -155 130q-51 0 -97.5 -17t-66.5 -53
l5 -3q14 21 37.5 30.5t44.5 6.5q-46 -39 -46 -113q0 -68 40 -108t104 -40z" />
    <glyph glyph-name="b" unicode="b" horiz-adv-x="606" 
d="M327 508q102 0 172 -70.5t70 -185.5q0 -111 -68.5 -185.5t-192.5 -74.5q-118 0 -185 69t-67 164v416q0 27 16 44.5t43 17.5t43 -17.5t16 -44.5v-254l6 4q0 56 43 86.5t104 30.5zM331 102q51 0 97 16.5t67 52.5l-6 3q-14 -21 -37 -30.5t-43 -6.5q42 39 42 113
q0 69 -39 110t-103 41q-60 0 -97.5 -40.5t-37.5 -101.5v-7q0 -68 39 -109.5t118 -40.5z" />
    <glyph glyph-name="c" unicode="c" horiz-adv-x="538" 
d="M400 354q-45 45 -122 45q-51 0 -97.5 -17t-66.5 -53l5 -3q14 21 37.5 30.5t46.5 6.5q-48 -43 -48 -113q0 -62 40 -105t103 -43q58 0 103 45q39 39 80 0q41 -43 1 -82q-73 -73 -184 -73q-114 0 -187.5 73.5t-73.5 184.5q0 112 73.5 185t187.5 73q112 0 184 -72
q37 -37 -6 -80q-41 -38 -76 -2z" />
    <glyph glyph-name="d" unicode="d" horiz-adv-x="606" 
d="M491 703q27 0 43 -17.5t16 -44.5v-413q0 -101 -72.5 -168.5t-180.5 -67.5q-113 0 -186.5 71.5t-73.5 185.5q0 115 74.5 187t177.5 72q64 0 104 -40q34 -36 34 -75l5 -7v255q0 27 16.5 44.5t42.5 17.5zM433 237v19q0 66 -39 105.5t-116 39.5q-50 0 -97 -18t-67 -54l5 -3
q14 21 37.5 30.5t45.5 6.5q-47 -41 -47 -111q0 -62 39.5 -106t106.5 -44q59 0 95.5 38t36.5 97z" />
    <glyph glyph-name="e" unicode="e" horiz-adv-x="553" 
d="M521 287q0 -38 -21.5 -62t-58.5 -24h-308l1 -5q25 0 43 -31q37 -67 121 -67q46 0 106 27q53 22 77 -21q25 -45 -24 -75q-65 -37 -156 -37q-120 0 -192 73t-72 184q0 114 72 186.5t180 72.5q100 0 166 -61.5t66 -159.5zM161 299h248q-1 42 -38.5 74t-98.5 32
q-45 0 -92 -17.5t-67 -52.5l5 -3q15 21 38.5 30.5t44.5 7.5q-30 -30 -40 -71z" />
    <glyph glyph-name="f" unicode="f" horiz-adv-x="436" 
d="M314 596q-46 0 -60 -22t-15 -73v-1h89q27 0 43.5 -14t16.5 -40q0 -25 -16.5 -39.5t-43.5 -14.5h-150v-5q22 0 41.5 -16.5t19.5 -42.5v-266q0 -27 -16 -44.5t-42 -17.5q-27 0 -43 17.5t-16 44.5v330h-30q-27 0 -43.5 14.5t-16.5 39.5q0 26 16 40t44 14h30v1
q2 102 46.5 152.5t144.5 50.5h37q27 0 42.5 -14t15.5 -40q0 -25 -15.5 -39.5t-42.5 -14.5h-36z" />
    <glyph glyph-name="g" unicode="g" horiz-adv-x="594" 
d="M289 508q110 0 179.5 -67t69.5 -167v-195q0 -97 -70 -165t-198 -68q-71 0 -120 18q-49 16 -34 66q16 48 66 34q48 -12 79 -12q161 0 161 137v14h-6q-56 -77 -148 -77q-101 0 -166 66.5t-65 177.5q0 108 72.5 173t179.5 65zM284 130q59 0 98.5 35.5t39.5 90.5v3
q0 60 -38 101t-115 41q-50 0 -97 -18t-67 -54l5 -3q14 21 37.5 31t45.5 7q-39 -36 -39 -97q0 -60 32 -98.5t98 -38.5z" />
    <glyph glyph-name="h" unicode="h" horiz-adv-x="574" 
d="M321 508q85 0 141 -50t56 -154v-242q0 -27 -16 -44.5t-43 -17.5t-43 17.5t-16 44.5v229q0 64 -27 86t-75 22q-70 0 -120.5 -36t-61.5 -107h5q13 58 56 72q-3 -8 -3 -16v-250q0 -27 -16 -44.5t-43 -17.5t-43 17.5t-16 44.5v579q0 27 16 44.5t43 17.5t43 -17.5t16 -44.5
v-197h6q45 64 141 64z" />
    <glyph glyph-name="i" unicode="i" horiz-adv-x="243" 
d="M122 582q-31 0 -50.5 20t-19.5 50t19.5 50t50.5 20q30 0 49.5 -20t19.5 -50t-19.5 -50t-49.5 -20zM122 500q26 0 42 -16.5t16 -40.5v-3q0 -21 -19 -36t-41 -15v-5h60v-322q0 -27 -16 -44.5t-42 -17.5q-27 0 -43 17.5t-16 44.5v377q0 27 16 44t43 17z" />
    <glyph glyph-name="j" unicode="j" horiz-adv-x="255" 
d="M130 582q-31 0 -50.5 20t-19.5 50t19.5 50t50.5 20t50.5 -20t19.5 -50t-19.5 -50t-50.5 -20zM131 500q26 0 42 -16.5t16 -40.5v-3q0 -21 -19 -36t-41 -15v-5h60v-306q0 -88 -42.5 -143.5t-103.5 -75.5q-26 -9 -47.5 0t-29.5 33q-14 44 36 69q70 37 70 121v357q0 27 16 44
t43 17z" />
    <glyph glyph-name="k" unicode="k" horiz-adv-x="497" 
d="M459 78q9 -27 -2 -48t-39 -28q-24 -6 -43.5 7t-28.5 38l-43 103q-13 33 -29.5 48.5t-52.5 15.5h-108v-6q22 0 41.5 -16t19.5 -42v-88q0 -27 -16 -44.5t-43 -17.5t-43 17.5t-16 44.5v579q0 27 16 44.5t43 17.5t43 -17.5t16 -44.5v-319h37q31 0 46.5 13.5t30.5 44.5l37 75
q24 57 73 43q26 -7 37.5 -28t2.5 -47l-32 -69q-14 -30 -31 -48q-23 -23 -72 -14l-3 -4q51 -12 75 -35t37 -58z" />
    <glyph glyph-name="l" unicode="l" horiz-adv-x="237" 
d="M119 703q26 0 42 -16.5t16 -41.5v-3q0 -21 -19.5 -36t-40.5 -15v-5h60v-524q0 -27 -16 -44.5t-42 -17.5q-27 0 -43 17.5t-16 44.5v579q0 27 16 44.5t43 17.5z" />
    <glyph glyph-name="m" unicode="m" horiz-adv-x="804" 
d="M572 508q75 0 125.5 -47.5t50.5 -128.5v-270q0 -27 -16 -44.5t-43 -17.5t-43 17.5t-16 44.5v261q0 79 -77 79q-21 0 -42.5 -6.5t-45 -20.5t-40.5 -43t-22 -69h5q7 30 23.5 49t30.5 24q-1 -3 -1 -11v-263q0 -27 -16 -44.5t-43 -17.5t-43 17.5t-16 44.5v261q0 40 -21 59.5
t-56 19.5q-21 0 -42.5 -6.5t-45 -20.5t-40.5 -43t-22 -69h5q7 30 23.5 49t30.5 24q-1 -5 -1 -15v-259q0 -27 -16 -44.5t-43 -17.5t-43 17.5t-16 44.5v376q0 27 16 45t43 18q24 0 39.5 -14.5t17.5 -36.5v-1h5q14 22 49 40.5t71 18.5q76 0 123 -58q56 58 152 58z" />
    <glyph glyph-name="n" unicode="n" horiz-adv-x="573" 
d="M320 508q85 0 141 -50t56 -154v-242q0 -27 -16 -44.5t-43 -17.5t-43 17.5t-16 44.5v229q0 64 -27 86t-75 22q-69 0 -119.5 -36t-61.5 -107h5q13 58 56 72q-3 -8 -3 -16v-250q0 -27 -16 -44.5t-43 -17.5t-43 17.5t-16 44.5v376q0 27 16 44.5t43 17.5q25 0 40 -15t17 -40
v-1h6q58 64 142 64z" />
    <glyph glyph-name="o" unicode="o" horiz-adv-x="597" 
d="M298 -8q-114 0 -187.5 73.5t-73.5 184.5q0 112 73.5 185t187.5 73t187.5 -73t73.5 -185q0 -111 -73.5 -184.5t-187.5 -73.5zM298 102q65 0 104 42t39 106q0 66 -42.5 107.5t-120.5 41.5q-51 0 -97.5 -17t-66.5 -53l5 -3q14 21 37.5 30.5t45.5 6.5q-47 -41 -47 -113
q0 -64 39.5 -106t103.5 -42z" />
    <glyph glyph-name="p" unicode="p" horiz-adv-x="606" 
d="M305 508q115 0 189.5 -70.5t74.5 -186.5q0 -110 -67.5 -184.5t-174.5 -74.5q-59 0 -95 25t-52 89l-6 6v-204q0 -27 -16 -44.5t-43 -17.5t-43 17.5t-16 44.5v346q0 114 68.5 184t180.5 70zM317 100q62 0 98 44t36 106q0 66 -42 107.5t-120 41.5q-51 0 -97.5 -17t-66.5 -53
l5 -3q15 21 38.5 30.5t45.5 6.5q-40 -40 -40 -116v-10q0 -62 39 -99.5t104 -37.5z" />
    <glyph glyph-name="q" unicode="q" horiz-adv-x="606" 
d="M304 508q110 0 178 -65t68 -177v-358q0 -27 -16 -44.5t-43 -17.5q-26 0 -42.5 17.5t-16.5 44.5v194l-6 -4q-4 -45 -43.5 -75.5t-93.5 -30.5q-109 0 -180.5 76t-71.5 187t74.5 182t192.5 71zM293 100q60 0 99.5 37t39.5 97v25q0 140 -152 140q-122 0 -164 -70l5 -3
q13 20 35.5 30t45.5 7q-47 -42 -47 -109q0 -61 39 -107.5t99 -46.5z" />
    <glyph glyph-name="r" unicode="r" horiz-adv-x="410" 
d="M342 505q56 -11 48 -67q-5 -26 -23 -37.5t-45 -6.5q-16 2 -26 2q-54 1 -88 -49.5t-34 -152.5v-132q0 -27 -16 -44.5t-43 -17.5t-43 17.5t-16 44.5v377q0 27 16 44.5t43 17.5q25 0 40.5 -16t16.5 -42v-60l5 3q7 64 46.5 93.5t84.5 29.5q16 0 34 -4z" />
    <glyph glyph-name="s" unicode="s" horiz-adv-x="476" 
d="M245 508q108 0 162 -58q35 -35 0 -74q-25 -21 -39.5 -20.5t-33.5 14.5q-52 38 -105 38q-87 0 -113 -40l4 -3q16 21 52 19q-5 -10 -4 -20q1 -23 22.5 -34.5t75.5 -24.5q35 -8 54 -14t46 -18.5t41 -27t24.5 -39.5t10.5 -57q0 -78 -52.5 -117.5t-142.5 -39.5
q-67 0 -118.5 20t-77.5 51q-36 43 2 79q36 35 73 2q55 -51 124 -51q36 0 56.5 11t21.5 29q0 7 -2 13q13 -2 26 -10.5t17 -21.5l5 -1q-2 17 -15.5 31t-39 25.5t-48.5 19.5t-59 18q-40 11 -61 19t-47 24t-37.5 40.5t-11.5 60.5q0 78 54 117.5t136 39.5z" />
    <glyph glyph-name="t" unicode="t" horiz-adv-x="431" 
d="M330 110q26 0 41.5 -14.5t15.5 -40.5t-15.5 -40.5t-41.5 -14.5h-20q-188 0 -188 200v192h-30q-27 0 -43.5 14.5t-16.5 39.5t16.5 39.5t43.5 14.5h30v93q0 27 16 44.5t43 17.5q26 0 42 -17.5t16 -44.5v-93h87q27 0 44 -14.5t17 -39.5t-17 -39.5t-44 -14.5h-148v-5
q22 0 41.5 -16.5t19.5 -42.5v-111q0 -56 16.5 -81.5t57.5 -25.5h17z" />
    <glyph glyph-name="u" unicode="u" horiz-adv-x="582" 
d="M467 500q27 0 43 -17t16 -44v-378q0 -27 -16 -44t-42 -17q-25 0 -40.5 16t-16.5 40v1h-6q-14 -23 -52.5 -44t-89.5 -21q-41 0 -76.5 11.5t-65.5 36t-47.5 69.5t-17.5 106v224q0 27 16 44t43 17t43 -17t16 -44v-213q0 -116 44 -158l1 5q-10 16 -4.5 27.5t16.5 11.5
q22 -10 62 -10q55 1 85.5 25.5t30.5 53.5v258q0 27 16 44t42 17z" />
    <glyph glyph-name="v" unicode="v" horiz-adv-x="536" 
d="M474 495q24 -10 31.5 -33t-4.5 -47l-177 -382q-18 -38 -56 -38t-55 38l-177 382q-12 24 -5 47t31 33q25 11 47.5 2.5t32.5 -32.5l148 -352l5 10q-20 57 4 117l95 225q11 24 33 32.5t47 -2.5z" />
    <glyph glyph-name="w" unicode="w" horiz-adv-x="741" 
d="M674 497q25 -9 34.5 -31t-0.5 -47l-140 -377q-15 -42 -57 -42q-45 0 -57 46l-83 242l-84 -243q-15 -45 -57 -45q-41 0 -58 42l-140 377q-9 25 0.5 47t33.5 31q27 9 49 -1t29 -36l101 -336l5 9q-13 54 5 111l61 202q6 20 21 32t34 12q18 0 33 -12t20 -32l98 -322l4 9
q-13 54 5 112l66 215q7 26 29 36t48 1z" />
    <glyph glyph-name="x" unicode="x" horiz-adv-x="513" 
d="M459 94q17 -20 12.5 -44.5t-25.5 -39.5q-43 -29 -83 19l-133 168l-3 -4q16 -22 10 -59l-86 -105q-41 -48 -83 -19q-22 15 -26.5 39t13.5 45l140 159l-134 155q-16 20 -12 44.5t26 38.5q43 31 82 -18l128 -160l4 5q-17 23 -10 58l78 97q40 48 82 18q22 -14 26 -38.5
t-12 -44.5l-133 -155z" />
    <glyph glyph-name="y" unicode="y" horiz-adv-x="584" 
d="M469 500q27 0 43 -17t16 -44v-364q0 -110 -71 -169.5t-168 -59.5q-77 0 -140 20q-48 17 -33 68q8 23 25.5 32t41.5 2q50 -16 97 -16q59 0 98 35t39 115v1h-6q-16 -31 -54.5 -54.5t-96.5 -23.5q-84 0 -144 53t-60 166v195q0 27 16 44t43 17t43 -17t16 -44v-185
q0 -114 43 -156l1 5q-8 15 -4 25.5t13 13.5q22 -11 62 -11q60 1 90.5 29t30.5 69v210q0 27 16 44t43 17z" />
    <glyph glyph-name="z" unicode="z" horiz-adv-x="499" 
d="M399 108q28 0 45 -14t17 -40t-17 -40t-45 -14h-299q-28 0 -45 14.5t-17 40.5q0 24 15 45l201 249q32 39 80 39l3 4h-226q-28 0 -44.5 13.5t-16.5 38.5q0 26 17 41t44 15h270q34 0 54 -24q13 -15 12 -35t-15 -37l-199 -252q-32 -39 -80 -39l-4 -5h250z" />
    <glyph glyph-name="braceleft" unicode="{" horiz-adv-x="438" 
d="M352 -16q26 0 41.5 -14.5t15.5 -40.5t-15.5 -40.5t-41.5 -14.5h-40q-75 0 -117.5 35t-42.5 135v149q0 47 -29 47h-17q-24 0 -39 13t-15 38t15 38t39 13h17q29 0 29 47v144q0 100 42.5 135.5t117.5 35.5h40q26 0 41.5 -14.5t15.5 -40.5t-15.5 -40.5t-41.5 -14.5h-21
q-30 0 -46 -15t-16 -60v-145q0 -36 -21.5 -54.5t-46.5 -18.5v-20q25 0 46.5 -19t21.5 -54v-149q0 -45 16 -60t46 -15h21z" />
    <glyph glyph-name="bar" unicode="|" horiz-adv-x="354" 
d="M177 711q18 0 29 -12t11 -31v-771q0 -19 -11 -31t-29 -12t-29 12t-11 31v771q0 19 11 31t29 12z" />
    <glyph glyph-name="braceright" unicode="}" horiz-adv-x="438" 
d="M87 -16h20q30 0 46 15t16 60v149q0 35 22 54t46 19v20q-25 0 -46.5 18.5t-21.5 54.5v145q0 45 -16 60t-46 15h-20q-27 0 -42.5 14.5t-15.5 40.5t15.5 40.5t42.5 14.5h40q74 0 117 -35.5t43 -135.5v-144q0 -24 5.5 -35.5t22.5 -11.5h17q24 0 39 -13t15 -38t-15 -38
t-39 -13h-17q-17 0 -22.5 -11.5t-5.5 -35.5v-149q0 -53 -12.5 -88t-36.5 -52t-50 -23.5t-61 -6.5h-40q-27 0 -42.5 14.5t-15.5 40.5t15.5 40.5t42.5 14.5z" />
    <glyph glyph-name="asciitilde" unicode="~" horiz-adv-x="614" 
d="M529 373q21 -3 33 -19.5t9 -45.5q-6 -63 -44.5 -98.5t-107.5 -35.5q-43 0 -77.5 15.5t-53 33.5t-43.5 33.5t-51 15.5q-31 0 -45 -39q-10 -26 -24.5 -37t-39.5 -7q-21 3 -33 20t-9 46q6 62 44 97.5t106 35.5q43 0 78 -15.5t54 -33.5t44.5 -33.5t50.5 -15.5q30 0 46 39
q10 26 24 37t39 7z" />
    <glyph glyph-name="exclamdown" unicode="&#xa1;" horiz-adv-x="306" 
d="M153 510q32 0 54.5 -22.5t22.5 -54.5t-22.5 -54t-54.5 -22t-54.5 22t-22.5 54t22.5 54.5t54.5 22.5zM153 -159q-27 0 -43 17.5t-16 44.5v334q0 27 16 44t43 17q26 0 42.5 -17.5t16.5 -43.5v-334q0 -27 -16.5 -44.5t-42.5 -17.5z" />
    <glyph glyph-name="cent" unicode="&#xa2;" horiz-adv-x="576" 
d="M501 223q41 -43 1 -82q-57 -57 -138 -70v-24q0 -24 -14.5 -39.5t-38.5 -15.5t-38.5 15.5t-14.5 39.5v27q-90 19 -145.5 87.5t-55.5 164.5t55 164.5t146 87.5v28q0 24 14.5 39.5t38.5 15.5t38.5 -15.5t14.5 -39.5v-25q82 -13 138 -69q37 -37 -6 -80q-41 -38 -76 -2
q-45 45 -122 45q-51 0 -97.5 -17t-66.5 -53l5 -3q14 21 37.5 30.5t46.5 6.5q-48 -43 -48 -113q0 -62 40 -105t103 -43q58 0 103 45q39 39 80 0z" />
    <glyph glyph-name="sterling" unicode="&#xa3;" horiz-adv-x="526" 
d="M428 114q27 0 43.5 -15.5t16.5 -41.5t-16.5 -41.5t-43.5 -15.5h-361q-26 0 -41.5 14.5t-15.5 40.5t15.5 40.5t41.5 14.5h3q20 0 20 27v290q0 106 57.5 166t164.5 60h93q27 0 42.5 -14.5t15.5 -40.5t-15.5 -40.5t-42.5 -14.5h-93q-104 0 -104 -116v-35h123q28 0 45 -14.5
t17 -41.5q0 -28 -17 -42.5t-45 -14.5h-184v-5q20 0 39 -15t20 -39q1 -13 1 -38q0 -36 -6 -68h227z" />
    <glyph glyph-name="currency" unicode="&#xa4;" horiz-adv-x="640" 
d="M539 178l10 -10q18 -18 19 -39t-17 -39t-39 -17t-39 19l-12 12q-63 -36 -140 -36q-82 0 -148 41l-17 -17q-18 -18 -39 -19t-39 17t-17 39t19 39l18 18q-38 63 -38 140t38 140l-18 18q-18 18 -19 39t17 39t39 17t39 -19l17 -17q66 41 148 41q77 0 140 -36l12 12
q18 18 39 19t39 -17t17 -39t-19 -39l-10 -10q43 -65 43 -148t-43 -148zM178 326q0 -64 39 -106t104 -42t104 42t39 106q0 66 -42.5 107.5t-121.5 41.5q-50 0 -96.5 -17t-67.5 -53l5 -3q15 21 38.5 30.5t45.5 6.5q-47 -41 -47 -113z" />
    <glyph glyph-name="yen" unicode="&#xa5;" horiz-adv-x="580" 
d="M508 647q24 -10 31 -33.5t-5 -47.5l-138 -207h27q18 0 29 -10.5t11 -28.5q0 -37 -41 -37h-122v-4q17 0 33 -12.5t17 -31.5v-2h73q18 0 29 -10.5t11 -28.5q0 -37 -41 -37h-122v-5q17 0 33 -12.5t17 -31.5v-45q0 -28 -16.5 -45.5t-43.5 -17.5t-43.5 17.5t-16.5 45.5v94h-71
q-41 0 -41 38t41 38h71v50h-71q-41 0 -41 38t41 38h24l-137 207q-12 24 -5 47t31 33q25 11 46.5 3t32.5 -31l139 -226l139 227q11 22 32.5 30t46.5 -2z" />
    <glyph glyph-name="brokenbar" unicode="&#xa6;" horiz-adv-x="354" 
d="M177 711q18 0 29 -12t11 -31v-283q0 -19 -11 -31t-29 -12t-29 12t-11 31v283q0 19 11 31t29 12zM177 221q18 0 29 -12t11 -31v-281q0 -19 -11 -31t-29 -12t-29 12t-11 31v281q0 19 11 31t29 12z" />
    <glyph glyph-name="section" unicode="&#xa7;" horiz-adv-x="500" 
d="M396 198q49 -38 49 -109q0 -77 -53.5 -117t-143.5 -40q-115 0 -171 50q-41 38 -3 81q36 43 76 7q38 -32 103 -32q81 0 81 42q0 24 -23.5 37.5t-96.5 31.5q-80 20 -119 50.5t-39 88.5q0 67 53 108q-53 37 -53 108q0 76 54.5 116t135.5 40q112 0 166 -63q35 -37 -6 -77
q-15 -16 -29.5 -19t-23.5 1t-21 15q-46 39 -97 39q-70 0 -70 -40q0 -21 19.5 -34.5t84.5 -27.5q88 -18 132 -51.5t44 -100.5q0 -66 -49 -104zM167 310q0 -16 10 -27.5t32.5 -19t40 -11.5t50.5 -10q34 21 34 44q0 48 -126 71q-41 -21 -41 -47z" />
    <glyph glyph-name="dieresis" unicode="&#xa8;" horiz-adv-x="341" 
d="M93 706q-25 0 -40 15.5t-15 39.5t15 39.5t40 15.5t40 -15.5t15 -39.5t-15 -39.5t-40 -15.5zM248 706q-25 0 -40 15.5t-15 39.5t15 39.5t40 15.5t40.5 -15.5t15.5 -39.5t-15.5 -39.5t-40.5 -15.5z" />
    <glyph glyph-name="copyright" unicode="&#xa9;" horiz-adv-x="844" 
d="M422 -54q-165 0 -270 105.5t-105 270.5t105 270.5t270 105.5t270 -105.5t105 -270.5t-105 -270.5t-270 -105.5zM422 -22q153 0 246.5 99.5t93.5 244.5t-93.5 244t-246.5 99t-246.5 -99t-93.5 -244t93.5 -244.5t246.5 -99.5zM504 391q-32 30 -68 30q-43 0 -70.5 -29
t-27.5 -73t27.5 -72.5t70.5 -28.5q36 0 68 30q18 18 39.5 18t38.5 -18q19 -18 20 -41t-16 -40q-60 -60 -150 -60q-93 0 -153 60t-60 152t60 152.5t153 60.5t150 -60q17 -18 15 -39.5t-21 -39.5q-39 -39 -76 -2z" />
    <glyph glyph-name="ordfeminine" unicode="&#xaa;" horiz-adv-x="394" 
d="M191 486q46 0 46 -43q0 -44 -46 -44q-63 0 -107.5 41t-44.5 111q0 75 43.5 117.5t116.5 42.5q72 0 114 -38t42 -107v-119q0 -21 -12.5 -34.5t-33.5 -13.5t-33.5 13.5t-12.5 34.5v105q0 39 -14 57t-50 18q-68 0 -68 -76q0 -31 18.5 -48t41.5 -17z" />
    <glyph glyph-name="guillemotleft" unicode="&#xab;" horiz-adv-x="603" 
d="M166 279l111 -134q16 -19 13.5 -39.5t-20.5 -34.5q-40 -27 -72 11l-128 161q-14 17 -14 36q0 18 14 35l127 161q33 39 73 11q18 -14 20.5 -34.5t-13.5 -39.5zM408 279l110 -134q16 -19 14 -39.5t-21 -34.5q-40 -28 -72 11l-128 161q-14 19 -14 36q0 16 14 35l127 161
q33 39 73 11q19 -14 21 -34.5t-14 -39.5z" />
    <glyph glyph-name="logicalnot" unicode="&#xac;" horiz-adv-x="600" 
d="M549 282v-167q0 -27 -15.5 -43.5t-41.5 -16.5t-41.5 16.5t-15.5 43.5v109h-324q-27 0 -43.5 15.5t-16.5 41.5t16.5 41.5t43.5 15.5h378q27 0 43.5 -15.5t16.5 -40.5z" />
    <glyph glyph-name="registered" unicode="&#xae;" horiz-adv-x="568" 
d="M297 800q108 0 177 -70t69 -177q0 -106 -69 -175.5t-177 -69.5t-177 69.5t-69 175.5q0 107 69 177t177 70zM297 340q94 0 153 58t59 155t-59 156t-153 59t-153 -59t-59 -156t59 -155t153 -58zM395 478q9 -13 6 -28.5t-15 -23.5q-13 -9 -28 -6.5t-24 14.5q-35 55 -45 62
q-6 4 -13 4h-17v-42q0 -17 -10.5 -27.5t-26.5 -10.5t-27 11t-11 27v191q0 17 11 28t27 11h75q44 0 70 -25t26 -67q0 -41 -36 -68q8 -8 38 -50zM291 566q30 0 30 26q0 25 -30 25h-32v-51h32z" />
    <glyph glyph-name="macron" unicode="&#xaf;" horiz-adv-x="402" 
d="M343 755q0 -22 -14 -35t-37 -13h-182q-23 0 -37 13t-14 35t14 35t37 13h182q23 0 37 -13t14 -35z" />
    <glyph glyph-name="degree" unicode="&#xb0;" horiz-adv-x="370" 
d="M185 401q-68 0 -112 43.5t-44 111.5t44 111.5t112 43.5t111.5 -43.5t43.5 -111.5t-43.5 -111.5t-111.5 -43.5zM185 483q32 0 51 20.5t19 52.5q0 31 -19 52t-51 21t-51.5 -21t-19.5 -52q0 -32 19.5 -52.5t51.5 -20.5z" />
    <glyph glyph-name="plusminus" unicode="&#xb1;" horiz-adv-x="535" 
d="M109 278q-26 0 -42 15t-16 40t16 40t42 15h103v80q0 26 15 42t40 16t40.5 -16t15.5 -42v-80h103q26 0 42 -15t16 -40t-16 -40t-42 -15h-161v-6q20 0 38.5 -14.5t19.5 -37.5v-22q0 -26 -15.5 -42t-40.5 -16t-40 16t-15 42v80h-103zM426 110q26 0 42 -15t16 -40t-16 -40
t-42 -15h-317q-26 0 -42 15t-16 40t16 40t42 15h317z" />
    <glyph glyph-name="uni00B2" unicode="&#xb2;" horiz-adv-x="339" 
d="M255 474q19 0 30 -10t11 -27q0 -36 -41 -36h-178q-19 0 -29 15q-15 24 10 46l129 103q21 18 21 43q0 17 -11.5 27.5t-31.5 10.5q-19 0 -31.5 -9t-12.5 -22q0 -7 4 -19q10 -32 -21 -42q-37 -14 -50 11q-11 24 -11 48q0 43 35 70t91 27q54 0 86.5 -28t32.5 -75
q0 -21 -8.5 -37.5t-17.5 -25.5t-29 -25l-53 -45h75z" />
    <glyph glyph-name="uni00B3" unicode="&#xb3;" horiz-adv-x="319" 
d="M234 567q42 -27 42 -71q0 -99 -118 -99q-75 0 -103 31q-23 24 1 49q21 21 49 0q20 -15 48 -15q43 0 43 33t-37 33h-9q-36 0 -36 32t36 32h14q10 0 17 8.5t7 21.5q0 25 -35 25q-26 0 -41 -19q-21 -26 -47 -8q-28 18 -8 50q27 41 97 41q51 0 79.5 -21.5t28.5 -61.5
q0 -38 -28 -61z" />
    <glyph glyph-name="acute" unicode="&#xb4;" horiz-adv-x="266" 
d="M140 869q40 34 74 -5q33 -39 -9 -74l-77 -65q-19 -17 -39.5 -16t-36.5 20q-16 18 -13 38t23 36z" />
    <glyph glyph-name="uni00B5" unicode="&#xb5;" horiz-adv-x="647" 
d="M563 108q26 0 40.5 -14.5t14.5 -39.5q0 -26 -15 -40t-42 -14h-8q-98 0 -127 70q-51 -78 -160 -78q-49 0 -94 21v-66q0 -27 -16 -44t-42 -17t-42 17t-16 44v492q0 27 16 44t42 17t42 -17t16 -44v-206q0 -133 121 -131q56 1 86.5 25t30.5 54v258q0 27 16 44t42 17t42 -17
t16 -44v-297q0 -34 33 -34h4z" />
    <glyph glyph-name="paragraph" unicode="&#xb6;" horiz-adv-x="563" 
d="M258 653q24 0 39 -15.5t15 -40.5v-683q0 -25 -15 -40.5t-39 -15.5q-23 0 -38 15.5t-15 40.5v383q-73 4 -120 53.5t-47 123.5q0 77 51 128t128 51h41zM450 653q24 0 38.5 -15.5t14.5 -40.5v-683q0 -25 -14.5 -40.5t-38.5 -15.5t-38.5 15.5t-14.5 40.5v683q0 25 14.5 40.5
t38.5 15.5z" />
    <glyph glyph-name="periodcentered" unicode="&#xb7;" horiz-adv-x="249" 
d="M124 277q-29 0 -49.5 21t-20.5 50t20.5 49.5t49.5 20.5q30 0 50.5 -20.5t20.5 -49.5t-20.5 -50t-50.5 -21z" />
    <glyph glyph-name="cedilla" unicode="&#xb8;" horiz-adv-x="263" 
d="M77 -54l28 62h64l-17 -37q73 -23 73 -85q0 -41 -28 -63.5t-70 -22.5q-37 0 -68 18q-25 16 -18 38q10 25 38 18q39 -12 50 -12q29 0 29 21q0 32 -73 48q-12 3 -8 15z" />
    <glyph glyph-name="uni00B9" unicode="&#xb9;" horiz-adv-x="278" 
d="M144 708q68 0 68 -77v-190q0 -44 -40 -44q-41 0 -41 44v185q0 5 -4 6t-7 -3l-22 -29q-11 -13 -26 -13t-28 12q-29 29 2 56l20 19q37 34 78 34z" />
    <glyph glyph-name="ordmasculine" unicode="&#xba;" horiz-adv-x="390" 
d="M195 399q-65 0 -110.5 41.5t-45.5 114.5q0 74 45.5 115t110.5 41t110.5 -41t45.5 -115t-45.5 -115t-110.5 -41zM195 483q28 0 47.5 18.5t19.5 53.5q0 36 -19 54t-48 18q-28 0 -47.5 -18.5t-19.5 -53.5t19.5 -53.5t47.5 -18.5z" />
    <glyph glyph-name="guillemotright" unicode="&#xbb;" horiz-adv-x="603" 
d="M195 279l-110 133q-16 19 -14 39.5t21 34.5q18 13 37.5 10t34.5 -21l128 -161q13 -17 13 -35q0 -19 -14 -36l-128 -161q-31 -39 -71 -11q-19 14 -21 34.5t14 39.5zM437 279l-111 133q-16 19 -13.5 39.5t20.5 34.5q40 28 73 -11l127 -161q14 -17 14 -35q0 -17 -14 -36
l-128 -161q-32 -39 -72 -11q-18 14 -20.5 34.5t13.5 39.5z" />
    <glyph glyph-name="onequarter" unicode="&#xbc;" horiz-adv-x="618" 
d="M476 708q28 -17 8 -55l-336 -655q-8 -14 -25 -17.5t-31 6.5q-28 19 -8 55l336 655q8 14 24.5 17.5t31.5 -6.5zM156 708q68 0 68 -77v-190q0 -44 -40 -44q-41 0 -41 44v185q0 5 -4 6t-7 -3l-22 -29q-11 -13 -26 -13t-28 12q-29 29 2 56l20 19q37 34 78 34zM539 139
q14 0 25 -11t11 -26t-11 -25.5t-25 -10.5q-16 0 -16 -15v-14q0 -17 -10.5 -27t-27.5 -10q-36 0 -36 37v14q0 15 -24 15h-81q-18 0 -29.5 10t-11.5 26q0 10 10 30l102 162q22 33 54 15q16 -8 19.5 -25t-6.5 -33l-79 -112h17q20 0 32 -7v9q0 18 9 28.5t24 10.5q34 0 34 -39v-7
q10 5 20 5z" />
    <glyph glyph-name="onehalf" unicode="&#xbd;" horiz-adv-x="627" 
d="M476 708q28 -17 8 -55l-336 -655q-8 -14 -25 -17.5t-31 6.5q-28 19 -8 55l336 655q8 14 24.5 17.5t31.5 -6.5zM156 708q68 0 68 -77v-190q0 -44 -40 -44q-41 0 -41 44v185q0 5 -4 6t-7 -3l-22 -29q-11 -13 -26 -13t-28 12q-29 29 2 56l20 19q37 34 78 34zM543 72
q19 0 30.5 -10t11.5 -27t-11.5 -26.5t-30.5 -9.5h-178q-19 0 -29 15q-15 24 10 46l129 103q21 18 21 43q0 17 -11.5 27.5t-31.5 10.5q-19 0 -31.5 -9t-12.5 -22q0 -9 5 -19q10 -32 -21 -42q-38 -14 -50 11q-12 22 -12 48q0 43 35 70t91 27q54 0 87 -28t33 -75q0 -21 -9 -38
t-17.5 -25t-29.5 -25l-53 -45h75z" />
    <glyph glyph-name="threequarters" unicode="&#xbe;" horiz-adv-x="634" 
d="M513 708q28 -17 8 -55l-336 -655q-8 -14 -25 -17.5t-31 6.5q-28 19 -8 55l336 655q8 14 24.5 17.5t31.5 -6.5zM234 567q42 -27 42 -71q0 -99 -118 -99q-75 0 -103 31q-23 24 1 49q21 21 49 0q20 -15 48 -15q43 0 43 33t-37 33h-9q-36 0 -36 32t36 32h14q10 0 17 8.5
t7 21.5q0 25 -35 25q-26 0 -41 -19q-21 -26 -47 -8q-28 18 -8 50q27 41 97 41q51 0 79.5 -21.5t28.5 -61.5q0 -38 -28 -61zM571 135q14 0 25 -11t11 -26t-11 -25.5t-25 -10.5q-16 0 -16 -15v-14q0 -17 -10.5 -27t-27.5 -10q-36 0 -36 37v14q0 15 -24 15h-81q-18 0 -29.5 10
t-11.5 26q0 10 10 30l102 162q22 33 54 15q16 -8 19.5 -25t-6.5 -33l-79 -112h17q20 0 32 -7v9q0 18 9 28.5t24 10.5q34 0 34 -39v-7q10 5 20 5z" />
    <glyph glyph-name="questiondown" unicode="&#xbf;" horiz-adv-x="484" 
d="M260 508q31 0 53 -21.5t22 -52.5t-22 -53t-53 -22t-53 22t-22 53t22 52.5t53 21.5zM175 236h74v5q-49 0 -50 25l1 17q5 40 57 40q60 0 60 -50v-98q0 -14 -8.5 -22.5t-22.5 -8.5h-46q-44 0 -73 -26.5t-29 -73.5q0 -45 30 -69.5t84 -24.5q42 0 81.5 15.5t57.5 52.5l-4 1
q-22 -36 -56 -34q17 20 25 51q14 54 70 40q47 -12 37 -66q-4 -26 -17.5 -53t-38.5 -54.5t-68 -45t-98 -17.5q-103 0 -162.5 55t-59.5 148q0 80 44.5 131t111.5 62z" />
    <glyph glyph-name="Agrave" unicode="&#xc0;" 
d="M301 870l78 -66q20 -16 23 -36t-13 -38q-16 -19 -36.5 -20t-39.5 16l-77 65q-42 35 -9 74q34 39 74 5zM583 85q10 -25 1 -48t-34 -33q-24 -10 -46.5 0.5t-32.5 36.5l-31 86h-323l-2 -6q29 0 50 -24l-21 -57q-10 -25 -32 -35.5t-46 -0.5q-25 10 -34 33t1 48l217 534
q16 42 58 42q43 0 58 -42zM216 233h184l-115 307l-4 -9q21 -61 4 -114z" />
    <glyph glyph-name="Aacute" unicode="&#xc1;" 
d="M315 870q40 34 74 -5q33 -39 -9 -74l-77 -65q-19 -17 -39.5 -16t-36.5 20q-16 18 -13 38t23 36zM583 85q10 -25 1 -48t-34 -33q-24 -10 -46.5 0.5t-32.5 36.5l-31 86h-323l-2 -6q29 0 50 -24l-21 -57q-10 -25 -32 -35.5t-46 -0.5q-25 10 -34 33t1 48l217 534q16 42 58 42
q43 0 58 -42zM216 233h184l-115 307l-4 -9q21 -61 4 -114z" />
    <glyph glyph-name="Acircumflex" unicode="&#xc2;" 
d="M431 729q-17 -19 -37.5 -20.5t-36.5 15.5l-49 52l-50 -52q-17 -16 -37 -15t-37 20q-33 39 9 74l77 65q17 16 38 16q20 0 37 -16l77 -65q42 -35 9 -74zM583 85q10 -25 1 -48t-34 -33q-24 -10 -46.5 0.5t-32.5 36.5l-31 86h-323l-2 -6q29 0 50 -24l-21 -57
q-10 -25 -32 -35.5t-46 -0.5q-25 10 -34 33t1 48l217 534q16 42 58 42q43 0 58 -42zM216 233h184l-115 307l-4 -9q21 -61 4 -114z" />
    <glyph glyph-name="Atilde" unicode="&#xc3;" 
d="M432 794q21 -34 -17 -69q-24 -23 -47.5 -24t-62.5 18q-26 9 -31.5 8t-22.5 -13q-18 -12 -37 -7.5t-30 23.5q-18 31 16 67q44 44 108 10q26 -12 31.5 -12t22.5 12q21 14 39.5 10t30.5 -23zM583 85q10 -25 1 -48t-34 -33q-24 -10 -46.5 0.5t-32.5 36.5l-31 86h-323l-2 -6
q29 0 50 -24l-21 -57q-10 -25 -32 -35.5t-46 -0.5q-25 10 -34 33t1 48l217 534q16 42 58 42q43 0 58 -42zM216 233h184l-115 307l-4 -9q21 -61 4 -114z" />
    <glyph glyph-name="Adieresis" unicode="&#xc4;" 
d="M230 707q-25 0 -40 15.5t-15 39.5t15 39.5t40 15.5t40 -15.5t15 -39.5t-15 -39.5t-40 -15.5zM385 707q-25 0 -40 15.5t-15 39.5t15 39.5t40 15.5t40.5 -15.5t15.5 -39.5t-15.5 -39.5t-40.5 -15.5zM583 85q10 -25 1 -48t-34 -33q-24 -10 -46.5 0.5t-32.5 36.5l-31 86h-323
l-2 -6q29 0 50 -24l-21 -57q-10 -25 -32 -35.5t-46 -0.5q-25 10 -34 33t1 48l217 534q16 42 58 42q43 0 58 -42zM216 233h184l-115 307l-4 -9q21 -61 4 -114z" />
    <glyph glyph-name="Aring" unicode="&#xc5;" 
d="M308 700q-45 0 -73 28t-28 73q0 44 28 72t73 28q44 0 72 -28t28 -72q0 -45 -28 -73t-72 -28zM308 763q37 0 37 38q0 37 -37 37q-38 0 -38 -37q0 -38 38 -38zM583 85q10 -25 1 -48t-34 -33q-24 -10 -46.5 0.5t-32.5 36.5l-31 86h-323l-2 -6q29 0 50 -24l-21 -57
q-10 -25 -32 -35.5t-46 -0.5q-25 10 -34 33t1 48l217 534q16 42 58 42q43 0 58 -42zM216 233h184l-115 307l-4 -9q21 -61 4 -114z" />
    <glyph glyph-name="AE" unicode="&#xc6;" horiz-adv-x="877" 
d="M775 113q27 0 43.5 -15.5t16.5 -40.5q0 -26 -16.5 -41.5t-43.5 -15.5h-297q-27 0 -43.5 18t-16.5 45v74h-312l-3 -5q29 0 47 -22l-41 -76q-13 -24 -35.5 -31.5t-46.5 5.5q-23 12 -26 36.5t11 46.5l276 527q18 35 56 35h426q27 0 43.5 -15.5t16.5 -41.5q0 -25 -16.5 -40.5
t-43.5 -15.5h-292v-6q21 0 38.5 -15.5t17.5 -40.5v-89h190q26 0 43 -15t17 -40t-17 -40.5t-43 -15.5h-246v-5q21 0 38.5 -16t17.5 -41v-103h241zM222 247h196v294h-97l-2 -6q32 0 47 -22z" />
    <glyph glyph-name="Ccedilla" unicode="&#xc7;" horiz-adv-x="679" 
d="M602 171q41 -40 3 -86q-29 -35 -85.5 -61t-124.5 -31l-9 -20q73 -23 73 -85q0 -41 -28 -63.5t-70 -22.5q-37 0 -68 18q-25 16 -18 38q10 25 38 18q39 -12 50 -12q29 0 29 21q0 32 -73 48q-12 3 -8 15l21 46q-125 13 -205 106t-80 227q0 144 91.5 239t232.5 95
q73 0 134.5 -25.5t90.5 -60.5q36 -41 -6 -83q-39 -40 -80 -2q-18 17 -31.5 26t-51.5 20t-90 11q-133 0 -179 -75l5 -4q29 41 81 34q-75 -61 -75 -175q0 -96 56 -158.5t148 -62.5q35 0 66.5 12t44 22t34.5 29q45 40 84 2z" />
    <glyph glyph-name="Egrave" unicode="&#xc8;" horiz-adv-x="524" 
d="M263 870l78 -66q20 -16 23 -36t-13 -38q-16 -19 -36.5 -20t-39.5 16l-77 65q-42 35 -9 74q34 39 74 5zM422 113q27 0 43.5 -15.5t16.5 -40.5q0 -26 -16.5 -41.5t-43.5 -15.5h-296q-27 0 -43.5 17.5t-16.5 45.5v527q0 28 16.5 45.5t43.5 17.5h291q27 0 43.5 -15.5
t16.5 -41.5q0 -25 -16.5 -40.5t-43.5 -15.5h-292v-6q21 0 39 -15.5t18 -40.5v-89h189q27 0 44 -15.5t17 -39.5q0 -25 -17.5 -40.5t-43.5 -15.5h-246v-5q21 0 39 -16t18 -41v-103h240z" />
    <glyph glyph-name="Eacute" unicode="&#xc9;" horiz-adv-x="524" 
d="M277 870q40 34 74 -5q33 -39 -9 -74l-77 -65q-19 -17 -39.5 -16t-36.5 20q-16 18 -13 38t23 36zM422 113q27 0 43.5 -15.5t16.5 -40.5q0 -26 -16.5 -41.5t-43.5 -15.5h-296q-27 0 -43.5 17.5t-16.5 45.5v527q0 28 16.5 45.5t43.5 17.5h291q27 0 43.5 -15.5t16.5 -41.5
q0 -25 -16.5 -40.5t-43.5 -15.5h-292v-6q21 0 39 -15.5t18 -40.5v-89h189q27 0 44 -15.5t17 -39.5q0 -25 -17.5 -40.5t-43.5 -15.5h-246v-5q21 0 39 -16t18 -41v-103h240z" />
    <glyph glyph-name="Ecircumflex" unicode="&#xca;" horiz-adv-x="524" 
d="M393 729q-17 -19 -37.5 -20.5t-36.5 15.5l-49 52l-50 -52q-17 -16 -37 -15t-37 20q-33 39 9 74l77 65q17 16 38 16q20 0 37 -16l77 -65q42 -35 9 -74zM422 113q27 0 43.5 -15.5t16.5 -40.5q0 -26 -16.5 -41.5t-43.5 -15.5h-296q-27 0 -43.5 17.5t-16.5 45.5v527
q0 28 16.5 45.5t43.5 17.5h291q27 0 43.5 -15.5t16.5 -41.5q0 -25 -16.5 -40.5t-43.5 -15.5h-292v-6q21 0 39 -15.5t18 -40.5v-89h189q27 0 44 -15.5t17 -39.5q0 -25 -17.5 -40.5t-43.5 -15.5h-246v-5q21 0 39 -16t18 -41v-103h240z" />
    <glyph glyph-name="Edieresis" unicode="&#xcb;" horiz-adv-x="524" 
d="M192 707q-25 0 -40 15.5t-15 39.5t15 39.5t40 15.5t40 -15.5t15 -39.5t-15 -39.5t-40 -15.5zM347 707q-25 0 -40 15.5t-15 39.5t15 39.5t40 15.5t40.5 -15.5t15.5 -39.5t-15.5 -39.5t-40.5 -15.5zM422 113q27 0 43.5 -15.5t16.5 -40.5q0 -26 -16.5 -41.5t-43.5 -15.5
h-296q-27 0 -43.5 17.5t-16.5 45.5v527q0 28 16.5 45.5t43.5 17.5h291q27 0 43.5 -15.5t16.5 -41.5q0 -25 -16.5 -40.5t-43.5 -15.5h-292v-6q21 0 39 -15.5t18 -40.5v-89h189q27 0 44 -15.5t17 -39.5q0 -25 -17.5 -40.5t-43.5 -15.5h-246v-5q21 0 39 -16t18 -41v-103h240z
" />
    <glyph glyph-name="Igrave" unicode="&#xcc;" horiz-adv-x="259" 
d="M123 870l78 -66q20 -16 23 -36t-13 -38q-16 -19 -36.5 -20t-39.5 16l-77 65q-42 35 -9 74q34 39 74 5zM130 653q27 0 43.5 -17t16.5 -42v-3q0 -22 -20 -37t-41 -15v-5h61v-471q0 -27 -16.5 -45t-43.5 -18t-43.5 17.5t-16.5 45.5v527q0 28 16.5 45.5t43.5 17.5z" />
    <glyph glyph-name="Iacute" unicode="&#xcd;" horiz-adv-x="259" 
d="M137 870q40 34 74 -5q33 -39 -9 -74l-77 -65q-19 -17 -39.5 -16t-36.5 20q-16 18 -13 38t23 36zM130 653q27 0 43.5 -17t16.5 -42v-3q0 -22 -20 -37t-41 -15v-5h61v-471q0 -27 -16.5 -45t-43.5 -18t-43.5 17.5t-16.5 45.5v527q0 28 16.5 45.5t43.5 17.5z" />
    <glyph glyph-name="Icircumflex" unicode="&#xce;" horiz-adv-x="259" 
d="M253 729q-17 -19 -37.5 -20.5t-36.5 15.5l-49 52l-50 -52q-17 -16 -37 -15t-37 20q-33 39 9 74l77 65q17 16 38 16q20 0 37 -16l77 -65q42 -35 9 -74zM130 653q27 0 43.5 -17t16.5 -42v-3q0 -22 -20 -37t-41 -15v-5h61v-471q0 -27 -16.5 -45t-43.5 -18t-43.5 17.5
t-16.5 45.5v527q0 28 16.5 45.5t43.5 17.5z" />
    <glyph glyph-name="Idieresis" unicode="&#xcf;" horiz-adv-x="259" 
d="M52 707q-25 0 -40.5 15.5t-15.5 39.5t15.5 39.5t40.5 15.5t40 -15.5t15 -39.5t-15 -39.5t-40 -15.5zM207 707q-25 0 -40 15.5t-15 39.5t15 39.5t40 15.5t40.5 -15.5t15.5 -39.5t-15.5 -39.5t-40.5 -15.5zM130 653q27 0 43.5 -17t16.5 -42v-3q0 -22 -20 -37t-41 -15v-5h61
v-471q0 -27 -16.5 -45t-43.5 -18t-43.5 17.5t-16.5 45.5v527q0 28 16.5 45.5t43.5 17.5z" />
    <glyph glyph-name="Eth" unicode="&#xd0;" horiz-adv-x="698" 
d="M349 653q137 0 219.5 -88.5t82.5 -237.5t-82 -238t-219 -89h-175q-27 0 -43.5 18t-16.5 45v207h-29q-24 0 -39 14t-15 37t15 37t39 14h29v218q0 27 16.5 45t43.5 18h174zM350 113q91 0 136 58.5t45 155.5t-45.5 155t-136.5 58h-175v-6q22 0 41.5 -16t19.5 -42v-104h71
q24 0 39 -14t15 -37t-15 -37t-39 -14h-132v-6q22 0 41.5 -16t19.5 -41v-94h115z" />
    <glyph glyph-name="Ntilde" unicode="&#xd1;" horiz-adv-x="669" 
d="M459 794q21 -34 -17 -69q-24 -23 -47.5 -24t-62.5 18q-26 9 -31.5 8t-22.5 -13q-18 -12 -37 -7.5t-30 23.5q-18 31 16 67q44 44 108 10q26 -12 31.5 -12t22.5 12q21 14 39.5 10t30.5 -23zM543 653q27 0 43.5 -17.5t16.5 -45.5v-527q0 -28 -16.5 -45.5t-43.5 -17.5
q-30 0 -47 20l-354 460l-4 -5q48 -74 48 -117v-295q0 -27 -16.5 -45t-43.5 -18t-43.5 17.5t-16.5 45.5v527q0 28 16.5 45.5t43.5 17.5q28 0 52 -29l349 -455l4 5q-48 74 -48 118v298q0 27 16.5 45t43.5 18z" />
    <glyph glyph-name="Ograve" unicode="&#xd2;" horiz-adv-x="764" 
d="M375 870l78 -66q20 -16 23 -36t-13 -38q-16 -19 -36.5 -20t-39.5 16l-77 65q-42 35 -9 74q34 39 74 5zM382 -8q-147 0 -241 94t-94 239q0 146 94 241t241 95t241 -95t94 -241q0 -145 -94 -239t-241 -94zM382 106q96 0 154.5 61.5t58.5 157.5q0 98 -62.5 160t-172.5 62
q-66 0 -124.5 -21t-80.5 -58l5 -3q14 22 39 31.5t49 5.5q-79 -62 -79 -177q0 -96 58.5 -157.5t154.5 -61.5z" />
    <glyph glyph-name="Oacute" unicode="&#xd3;" horiz-adv-x="764" 
d="M389 870q40 34 74 -5q33 -39 -9 -74l-77 -65q-19 -17 -39.5 -16t-36.5 20q-16 18 -13 38t23 36zM382 -8q-147 0 -241 94t-94 239q0 146 94 241t241 95t241 -95t94 -241q0 -145 -94 -239t-241 -94zM382 106q96 0 154.5 61.5t58.5 157.5q0 98 -62.5 160t-172.5 62
q-66 0 -124.5 -21t-80.5 -58l5 -3q14 22 39 31.5t49 5.5q-79 -62 -79 -177q0 -96 58.5 -157.5t154.5 -61.5z" />
    <glyph glyph-name="Ocircumflex" unicode="&#xd4;" horiz-adv-x="764" 
d="M505 729q-17 -19 -37.5 -20.5t-36.5 15.5l-49 52l-50 -52q-17 -16 -37 -15t-37 20q-33 39 9 74l77 65q17 16 38 16q20 0 37 -16l77 -65q42 -35 9 -74zM382 -8q-147 0 -241 94t-94 239q0 146 94 241t241 95t241 -95t94 -241q0 -145 -94 -239t-241 -94zM382 106
q96 0 154.5 61.5t58.5 157.5q0 98 -62.5 160t-172.5 62q-66 0 -124.5 -21t-80.5 -58l5 -3q14 22 39 31.5t49 5.5q-79 -62 -79 -177q0 -96 58.5 -157.5t154.5 -61.5z" />
    <glyph glyph-name="Otilde" unicode="&#xd5;" horiz-adv-x="764" 
d="M506 794q21 -34 -17 -69q-24 -23 -47.5 -24t-62.5 18q-26 9 -31.5 8t-22.5 -13q-18 -12 -37 -7.5t-30 23.5q-18 31 16 67q44 44 108 10q26 -12 31.5 -12t22.5 12q21 14 39.5 10t30.5 -23zM382 -8q-147 0 -241 94t-94 239q0 146 94 241t241 95t241 -95t94 -241
q0 -145 -94 -239t-241 -94zM382 106q96 0 154.5 61.5t58.5 157.5q0 98 -62.5 160t-172.5 62q-66 0 -124.5 -21t-80.5 -58l5 -3q14 22 39 31.5t49 5.5q-79 -62 -79 -177q0 -96 58.5 -157.5t154.5 -61.5z" />
    <glyph glyph-name="Odieresis" unicode="&#xd6;" horiz-adv-x="764" 
d="M304 707q-25 0 -40 15.5t-15 39.5t15 39.5t40 15.5t40 -15.5t15 -39.5t-15 -39.5t-40 -15.5zM459 707q-25 0 -40 15.5t-15 39.5t15 39.5t40 15.5t40.5 -15.5t15.5 -39.5t-15.5 -39.5t-40.5 -15.5zM382 -8q-147 0 -241 94t-94 239q0 146 94 241t241 95t241 -95t94 -241
q0 -145 -94 -239t-241 -94zM382 106q96 0 154.5 61.5t58.5 157.5q0 98 -62.5 160t-172.5 62q-66 0 -124.5 -21t-80.5 -58l5 -3q14 22 39 31.5t49 5.5q-79 -62 -79 -177q0 -96 58.5 -157.5t154.5 -61.5z" />
    <glyph glyph-name="multiply" unicode="&#xd7;" horiz-adv-x="530" 
d="M341 281l119 -119q18 -18 18.5 -40t-16.5 -38q-16 -17 -38 -17t-41 19l-154 154l-4 -4q20 -31 8 -63l-87 -87q-18 -19 -40 -19t-39 17q-17 16 -16.5 38t18.5 40l119 119l-119 119q-18 18 -18.5 40t16.5 38q17 17 39 17t40 -19l119 -118l118 118q19 19 41 19t38 -17
q17 -16 16.5 -38t-18.5 -40z" />
    <glyph glyph-name="Oslash" unicode="&#xd8;" horiz-adv-x="764" 
d="M613 483q24 21 60 16q44 -79 44 -174q0 -145 -94 -239t-241 -94q-117 0 -204 63l-38 -38q-16 -16 -35 -16.5t-34 14.5t-14.5 34t16.5 35l38 38q-64 86 -64 203q0 146 94 241t241 95q119 0 205 -64l40 40q16 16 35 16.5t34 -14.5t14.5 -34t-16.5 -35l-84 -84zM169 325
q0 -66 29 -116l304 304q-51 34 -120 34q-95 0 -154 -62.5t-59 -159.5zM382 106q96 0 154.5 61.5t58.5 157.5q0 66 -29 118l-334 -333l4 -5q13 13 33.5 17t29.5 -1q37 -15 83 -15z" />
    <glyph glyph-name="Ugrave" unicode="&#xd9;" horiz-adv-x="653" 
d="M319 870l78 -66q20 -16 23 -36t-13 -38q-16 -19 -36.5 -20t-39.5 16l-77 65q-42 35 -9 74q34 39 74 5zM531 653q27 0 43.5 -17.5t16.5 -45.5v-338q0 -129 -74 -194t-191 -66q-116 -1 -190 64.5t-74 195.5v338q0 28 16.5 45.5t43.5 17.5t43.5 -17.5t16.5 -45.5v-328
q0 -139 48 -190l1 5q-9 16 -6 25.5t9 14t11 4.5q36 -18 81 -18q145 0 145 159v328q0 28 16.5 45.5t43.5 17.5z" />
    <glyph glyph-name="Uacute" unicode="&#xda;" horiz-adv-x="653" 
d="M333 870q40 34 74 -5q33 -39 -9 -74l-77 -65q-19 -17 -39.5 -16t-36.5 20q-16 18 -13 38t23 36zM531 653q27 0 43.5 -17.5t16.5 -45.5v-338q0 -129 -74 -194t-191 -66q-116 -1 -190 64.5t-74 195.5v338q0 28 16.5 45.5t43.5 17.5t43.5 -17.5t16.5 -45.5v-328
q0 -139 48 -190l1 5q-9 16 -6 25.5t9 14t11 4.5q36 -18 81 -18q145 0 145 159v328q0 28 16.5 45.5t43.5 17.5z" />
    <glyph glyph-name="Ucircumflex" unicode="&#xdb;" horiz-adv-x="653" 
d="M449 729q-17 -19 -37.5 -20.5t-36.5 15.5l-49 52l-50 -52q-17 -16 -37 -15t-37 20q-33 39 9 74l77 65q17 16 38 16q20 0 37 -16l77 -65q42 -35 9 -74zM531 653q27 0 43.5 -17.5t16.5 -45.5v-338q0 -129 -74 -194t-191 -66q-116 -1 -190 64.5t-74 195.5v338
q0 28 16.5 45.5t43.5 17.5t43.5 -17.5t16.5 -45.5v-328q0 -139 48 -190l1 5q-9 16 -6 25.5t9 14t11 4.5q36 -18 81 -18q145 0 145 159v328q0 28 16.5 45.5t43.5 17.5z" />
    <glyph glyph-name="Udieresis" unicode="&#xdc;" horiz-adv-x="653" 
d="M248 707q-25 0 -40 15.5t-15 39.5t15 39.5t40 15.5t40 -15.5t15 -39.5t-15 -39.5t-40 -15.5zM403 707q-25 0 -40 15.5t-15 39.5t15 39.5t40 15.5t40.5 -15.5t15.5 -39.5t-15.5 -39.5t-40.5 -15.5zM531 653q27 0 43.5 -17.5t16.5 -45.5v-338q0 -129 -74 -194t-191 -66
q-116 -1 -190 64.5t-74 195.5v338q0 28 16.5 45.5t43.5 17.5t43.5 -17.5t16.5 -45.5v-328q0 -139 48 -190l1 5q-9 16 -6 25.5t9 14t11 4.5q36 -18 81 -18q145 0 145 159v328q0 28 16.5 45.5t43.5 17.5z" />
    <glyph glyph-name="Yacute" unicode="&#xdd;" horiz-adv-x="585" 
d="M299 870q40 34 74 -5q33 -39 -9 -74l-77 -65q-19 -17 -39.5 -16t-36.5 20q-16 18 -13 38t23 36zM481 653q27 0 43.5 -17.5t16.5 -45.5v-83q0 -104 -59.5 -175.5t-170.5 -80.5v-5q41 -16 41 -54v-129q0 -28 -16.5 -45.5t-43.5 -17.5t-43.5 18t-16.5 45v194
q-87 18 -137.5 85t-50.5 165v83q0 28 16.5 45.5t43.5 17.5t43.5 -18t16.5 -45v-75q0 -137 48 -186l1 6q-9 15 -6.5 24.5t8.5 13.5t12 4q29 -16 65 -16q62 0 95.5 41t33.5 113v75q0 27 16.5 45t43.5 18z" />
    <glyph glyph-name="Thorn" unicode="&#xde;" horiz-adv-x="548" 
d="M280 561q103 0 166.5 -68t63.5 -163q0 -94 -63.5 -162t-166.5 -68h-155v-5q19 0 39 -12.5t21 -24.5v-1q-2 -25 -18 -41t-41 -16q-27 0 -43.5 17.5t-16.5 45.5v527q0 28 16.5 45.5t43.5 17.5t43.5 -17.5t16.5 -44.5v-30h94zM259 210q133 0 133 120q0 121 -133 121h-134v-6
q22 0 41.5 -16t19.5 -42v-177h73z" />
    <glyph glyph-name="germandbls" unicode="&#xdf;" horiz-adv-x="562" 
d="M389 348q0 -21 22 -43t48 -39.5t48 -50t22 -72.5q0 -61 -42.5 -106t-123.5 -45q-53 0 -91 16q-51 21 -35 71q17 51 73 33q36 -11 53 -11q49 0 49 38q0 7 -1 11q12 -3 24.5 -14.5t14.5 -25.5l4 -1q0 20 -18.5 41t-45.5 40.5t-54 40.5t-45.5 48.5t-18.5 57.5
q0 32 12.5 61.5t27.5 47t28 36.5t14 33v8q34 -5 44 -33h4q-5 25 -26.5 39.5t-39 17.5t-33.5 3q-56 0 -92.5 -38.5t-36.5 -100.5v-348q0 -27 -16 -45t-43 -18t-43 17.5t-16 45.5v360q0 105 71 171.5t178 66.5q81 0 123.5 -38t42.5 -99q0 -38 -20.5 -71t-41 -59t-20.5 -46z
" />
    <glyph glyph-name="agrave" unicode="&#xe0;" horiz-adv-x="606" 
d="M297 717l78 -66q20 -16 23 -36t-13 -38q-16 -19 -36.5 -20t-39.5 16l-77 65q-42 35 -9 74q34 39 74 5zM305 508q100 0 172.5 -61.5t72.5 -167.5v-217q0 -27 -16 -44.5t-43 -17.5q-25 0 -40 15.5t-16 39.5l-1 1h-6q-44 -64 -143 -64q-100 0 -174 72.5t-74 178.5
q0 118 72.5 191.5t195.5 73.5zM299 102q61 0 97.5 38t36.5 109v20q0 130 -155 130q-51 0 -97.5 -17t-66.5 -53l5 -3q14 21 37.5 30.5t44.5 6.5q-46 -39 -46 -113q0 -68 40 -108t104 -40z" />
    <glyph glyph-name="aacute" unicode="&#xe1;" horiz-adv-x="606" 
d="M311 717q40 34 74 -5q33 -39 -9 -74l-77 -65q-19 -17 -39.5 -16t-36.5 20q-16 18 -13 38t23 36zM305 508q100 0 172.5 -61.5t72.5 -167.5v-217q0 -27 -16 -44.5t-43 -17.5q-25 0 -40 15.5t-16 39.5l-1 1h-6q-44 -64 -143 -64q-100 0 -174 72.5t-74 178.5
q0 118 72.5 191.5t195.5 73.5zM299 102q61 0 97.5 38t36.5 109v20q0 130 -155 130q-51 0 -97.5 -17t-66.5 -53l5 -3q14 21 37.5 30.5t44.5 6.5q-46 -39 -46 -113q0 -68 40 -108t104 -40z" />
    <glyph glyph-name="acircumflex" unicode="&#xe2;" horiz-adv-x="606" 
d="M427 576q-17 -19 -37.5 -20.5t-36.5 15.5l-49 52l-50 -52q-17 -16 -37 -15t-37 20q-33 39 9 74l77 65q17 16 38 16q20 0 37 -16l77 -65q42 -35 9 -74zM305 508q100 0 172.5 -61.5t72.5 -167.5v-217q0 -27 -16 -44.5t-43 -17.5q-25 0 -40 15.5t-16 39.5l-1 1h-6
q-44 -64 -143 -64q-100 0 -174 72.5t-74 178.5q0 118 72.5 191.5t195.5 73.5zM299 102q61 0 97.5 38t36.5 109v20q0 130 -155 130q-51 0 -97.5 -17t-66.5 -53l5 -3q14 21 37.5 30.5t44.5 6.5q-46 -39 -46 -113q0 -68 40 -108t104 -40z" />
    <glyph glyph-name="atilde" unicode="&#xe3;" horiz-adv-x="606" 
d="M428 641q21 -34 -17 -69q-24 -23 -47.5 -24t-62.5 18q-26 9 -31.5 8t-22.5 -13q-18 -12 -37 -7.5t-30 23.5q-18 31 16 67q44 44 108 10q26 -12 31.5 -12t22.5 12q21 14 39.5 10t30.5 -23zM305 508q100 0 172.5 -61.5t72.5 -167.5v-217q0 -27 -16 -44.5t-43 -17.5
q-25 0 -40 15.5t-16 39.5l-1 1h-6q-44 -64 -143 -64q-100 0 -174 72.5t-74 178.5q0 118 72.5 191.5t195.5 73.5zM299 102q61 0 97.5 38t36.5 109v20q0 130 -155 130q-51 0 -97.5 -17t-66.5 -53l5 -3q14 21 37.5 30.5t44.5 6.5q-46 -39 -46 -113q0 -68 40 -108t104 -40z" />
    <glyph glyph-name="adieresis" unicode="&#xe4;" horiz-adv-x="606" 
d="M226 554q-25 0 -40 15.5t-15 39.5t15 39.5t40 15.5t40 -15.5t15 -39.5t-15 -39.5t-40 -15.5zM381 554q-25 0 -40 15.5t-15 39.5t15 39.5t40 15.5t40.5 -15.5t15.5 -39.5t-15.5 -39.5t-40.5 -15.5zM305 508q100 0 172.5 -61.5t72.5 -167.5v-217q0 -27 -16 -44.5t-43 -17.5
q-25 0 -40 15.5t-16 39.5l-1 1h-6q-44 -64 -143 -64q-100 0 -174 72.5t-74 178.5q0 118 72.5 191.5t195.5 73.5zM299 102q61 0 97.5 38t36.5 109v20q0 130 -155 130q-51 0 -97.5 -17t-66.5 -53l5 -3q14 21 37.5 30.5t44.5 6.5q-46 -39 -46 -113q0 -68 40 -108t104 -40z" />
    <glyph glyph-name="aring" unicode="&#xe5;" horiz-adv-x="606" 
d="M304 547q-45 0 -73 28t-28 73q0 44 28 72t73 28q44 0 72 -28t28 -72q0 -45 -28 -73t-72 -28zM304 610q37 0 37 38q0 37 -37 37q-38 0 -38 -37q0 -38 38 -38zM305 508q100 0 172.5 -61.5t72.5 -167.5v-217q0 -27 -16 -44.5t-43 -17.5q-25 0 -40 15.5t-16 39.5l-1 1h-6
q-44 -64 -143 -64q-100 0 -174 72.5t-74 178.5q0 118 72.5 191.5t195.5 73.5zM299 102q61 0 97.5 38t36.5 109v20q0 130 -155 130q-51 0 -97.5 -17t-66.5 -53l5 -3q14 21 37.5 30.5t44.5 6.5q-46 -39 -46 -113q0 -68 40 -108t104 -40z" />
    <glyph glyph-name="ae" unicode="&#xe6;" horiz-adv-x="948" 
d="M835 201h-307v-5q25 0 43 -31q39 -67 121 -67q46 0 106 27q53 22 77 -21q25 -45 -24 -75q-65 -37 -155 -37q-120 0 -192.5 73t-72.5 184v1v10q0 68 -35.5 103t-117.5 35q-51 0 -97 -19.5t-67 -56.5l5 -3q15 21 38 31.5t40 7.5q-42 -42 -42 -108q0 -61 32 -104.5
t106 -43.5q33 0 64 9q52 13 67 -36q15 -48 -39 -68q-40 -15 -100 -15q-112 0 -180 77t-68 181q0 114 73.5 186.5t185.5 72.5q130 0 200 -81q72 80 187 80q100 0 166.5 -61.5t66.5 -159.5q0 -37 -22 -61.5t-59 -24.5zM513 332q14 21 37.5 30.5t44.5 7.5q-30 -30 -40 -71h248
q-1 42 -38.5 74t-98.5 32q-45 0 -92 -17.5t-67 -52.5z" />
    <glyph glyph-name="ccedilla" unicode="&#xe7;" horiz-adv-x="538" 
d="M481 147q41 -43 1 -82q-66 -66 -165 -72l-9 -20q73 -23 73 -85q0 -41 -28 -63.5t-70 -22.5q-37 0 -68 18q-25 16 -18 38q10 25 38 18q39 -12 50 -12q29 0 29 21q0 32 -73 48q-12 3 -8 15l21 47q-96 14 -156.5 85t-60.5 170q0 112 73.5 185t187.5 73q112 0 184 -72
q37 -37 -6 -80q-41 -38 -76 -2q-45 45 -122 45q-51 0 -97.5 -17t-66.5 -53l5 -3q14 21 37.5 30.5t46.5 6.5q-48 -43 -48 -113q0 -62 40 -105t103 -43q58 0 103 45q39 39 80 0z" />
    <glyph glyph-name="egrave" unicode="&#xe8;" horiz-adv-x="553" 
d="M282 717l78 -66q20 -16 23 -36t-13 -38q-16 -19 -36.5 -20t-39.5 16l-77 65q-42 35 -9 74q34 39 74 5zM521 287q0 -38 -21.5 -62t-58.5 -24h-308l1 -5q25 0 43 -31q37 -67 121 -67q46 0 106 27q53 22 77 -21q25 -45 -24 -75q-65 -37 -156 -37q-120 0 -192 73t-72 184
q0 114 72 186.5t180 72.5q100 0 166 -61.5t66 -159.5zM161 299h248q-1 42 -38.5 74t-98.5 32q-45 0 -92 -17.5t-67 -52.5l5 -3q15 21 38.5 30.5t44.5 7.5q-30 -30 -40 -71z" />
    <glyph glyph-name="eacute" unicode="&#xe9;" horiz-adv-x="553" 
d="M296 717q40 34 74 -5q33 -39 -9 -74l-77 -65q-19 -17 -39.5 -16t-36.5 20q-16 18 -13 38t23 36zM521 287q0 -38 -21.5 -62t-58.5 -24h-308l1 -5q25 0 43 -31q37 -67 121 -67q46 0 106 27q53 22 77 -21q25 -45 -24 -75q-65 -37 -156 -37q-120 0 -192 73t-72 184
q0 114 72 186.5t180 72.5q100 0 166 -61.5t66 -159.5zM161 299h248q-1 42 -38.5 74t-98.5 32q-45 0 -92 -17.5t-67 -52.5l5 -3q15 21 38.5 30.5t44.5 7.5q-30 -30 -40 -71z" />
    <glyph glyph-name="ecircumflex" unicode="&#xea;" horiz-adv-x="553" 
d="M412 576q-17 -19 -37.5 -20.5t-36.5 15.5l-49 52l-50 -52q-17 -16 -37 -15t-37 20q-33 39 9 74l77 65q17 16 38 16q20 0 37 -16l77 -65q42 -35 9 -74zM521 287q0 -38 -21.5 -62t-58.5 -24h-308l1 -5q25 0 43 -31q37 -67 121 -67q46 0 106 27q53 22 77 -21q25 -45 -24 -75
q-65 -37 -156 -37q-120 0 -192 73t-72 184q0 114 72 186.5t180 72.5q100 0 166 -61.5t66 -159.5zM161 299h248q-1 42 -38.5 74t-98.5 32q-45 0 -92 -17.5t-67 -52.5l5 -3q15 21 38.5 30.5t44.5 7.5q-30 -30 -40 -71z" />
    <glyph glyph-name="edieresis" unicode="&#xeb;" horiz-adv-x="553" 
d="M211 554q-25 0 -40 15.5t-15 39.5t15 39.5t40 15.5t40 -15.5t15 -39.5t-15 -39.5t-40 -15.5zM366 554q-25 0 -40 15.5t-15 39.5t15 39.5t40 15.5t40.5 -15.5t15.5 -39.5t-15.5 -39.5t-40.5 -15.5zM521 287q0 -38 -21.5 -62t-58.5 -24h-308l1 -5q25 0 43 -31
q37 -67 121 -67q46 0 106 27q53 22 77 -21q25 -45 -24 -75q-65 -37 -156 -37q-120 0 -192 73t-72 184q0 114 72 186.5t180 72.5q100 0 166 -61.5t66 -159.5zM161 299h248q-1 42 -38.5 74t-98.5 32q-45 0 -92 -17.5t-67 -52.5l5 -3q15 21 38.5 30.5t44.5 7.5q-30 -30 -40 -71
z" />
    <glyph glyph-name="igrave" unicode="&#xec;" horiz-adv-x="230" 
d="M108 741l78 -66q20 -16 23 -36t-13 -38q-16 -19 -36.5 -20t-39.5 16l-77 65q-42 35 -9 74q34 39 74 5zM115 500q26 0 42.5 -16.5t16.5 -40.5v-3q0 -21 -19.5 -36t-40.5 -15v-5h60v-322q0 -27 -16.5 -44.5t-42.5 -17.5q-27 0 -43 17.5t-16 44.5v377q0 27 16 44t43 17z" />
    <glyph glyph-name="iacute" unicode="&#xed;" horiz-adv-x="230" 
d="M122 741q40 34 74 -5q33 -39 -9 -74l-77 -65q-19 -17 -39.5 -16t-36.5 20q-16 18 -13 38t23 36zM115 500q26 0 42.5 -16.5t16.5 -40.5v-3q0 -21 -19.5 -36t-40.5 -15v-5h60v-322q0 -27 -16.5 -44.5t-42.5 -17.5q-27 0 -43 17.5t-16 44.5v377q0 27 16 44t43 17z" />
    <glyph glyph-name="icircumflex" unicode="&#xee;" horiz-adv-x="230" 
d="M238 600q-17 -19 -37.5 -20.5t-36.5 15.5l-49 52l-50 -52q-17 -16 -37 -15t-37 20q-33 39 9 74l77 65q17 16 38 16q20 0 37 -16l77 -65q42 -35 9 -74zM115 500q26 0 42.5 -16.5t16.5 -40.5v-3q0 -21 -19.5 -36t-40.5 -15v-5h60v-322q0 -27 -16.5 -44.5t-42.5 -17.5
q-27 0 -43 17.5t-16 44.5v377q0 27 16 44t43 17z" />
    <glyph glyph-name="idieresis" unicode="&#xef;" horiz-adv-x="230" 
d="M37 578q-25 0 -40.5 15.5t-15.5 39.5t15.5 39.5t40.5 15.5t40 -15.5t15 -39.5t-15 -39.5t-40 -15.5zM192 578q-25 0 -40 15.5t-15 39.5t15 39.5t40 15.5t40.5 -15.5t15.5 -39.5t-15.5 -39.5t-40.5 -15.5zM115 500q26 0 42.5 -16.5t16.5 -40.5v-3q0 -21 -19.5 -36
t-40.5 -15v-5h60v-322q0 -27 -16.5 -44.5t-42.5 -17.5q-27 0 -43 17.5t-16 44.5v377q0 27 16 44t43 17z" />
    <glyph glyph-name="eth" unicode="&#xf0;" horiz-adv-x="595" 
d="M358 574q13 12 34.5 15t31.5 -3q124 -142 124 -315q0 -128 -73 -203.5t-187 -75.5q-108 0 -179.5 65t-71.5 171q0 92 52 148t124 81q55 20 76 -23q11 -29 2 -48t-30 -27q-22 -10 -36.5 -18.5t-32.5 -24t-27.5 -37.5t-9.5 -50q0 -58 40.5 -92.5t110.5 -34.5q51 0 97.5 17
t66.5 53l-5 3q-15 -21 -38.5 -30.5t-45.5 -6.5q49 47 49 134q0 89 -34 150.5t-90 114.5l-22 -18q-35 -30 -64 4q-26 33 10 61l14 12l-12 13q-39 49 5 83q15 12 30 13t26 -4t27 -17l13 -11l22 18q33 28 62 -5q28 -32 -9 -61l-55 -46z" />
    <glyph glyph-name="ntilde" unicode="&#xf1;" horiz-adv-x="573" 
d="M411 641q21 -34 -17 -69q-24 -23 -47.5 -24t-62.5 18q-26 9 -31.5 8t-22.5 -13q-18 -12 -37 -7.5t-30 23.5q-18 31 16 67q44 44 108 10q26 -12 31.5 -12t22.5 12q21 14 39.5 10t30.5 -23zM320 508q85 0 141 -50t56 -154v-242q0 -27 -16 -44.5t-43 -17.5t-43 17.5
t-16 44.5v229q0 64 -27 86t-75 22q-69 0 -119.5 -36t-61.5 -107h5q13 58 56 72q-3 -8 -3 -16v-250q0 -27 -16 -44.5t-43 -17.5t-43 17.5t-16 44.5v376q0 27 16 44.5t43 17.5q25 0 40 -15t17 -40v-1h6q58 64 142 64z" />
    <glyph glyph-name="ograve" unicode="&#xf2;" horiz-adv-x="597" 
d="M291 717l78 -66q20 -16 23 -36t-13 -38q-16 -19 -36.5 -20t-39.5 16l-77 65q-42 35 -9 74q34 39 74 5zM298 -8q-114 0 -187.5 73.5t-73.5 184.5q0 112 73.5 185t187.5 73t187.5 -73t73.5 -185q0 -111 -73.5 -184.5t-187.5 -73.5zM298 102q65 0 104 42t39 106
q0 66 -42.5 107.5t-120.5 41.5q-51 0 -97.5 -17t-66.5 -53l5 -3q14 21 37.5 30.5t45.5 6.5q-47 -41 -47 -113q0 -64 39.5 -106t103.5 -42z" />
    <glyph glyph-name="oacute" unicode="&#xf3;" horiz-adv-x="597" 
d="M305 717q40 34 74 -5q33 -39 -9 -74l-77 -65q-19 -17 -39.5 -16t-36.5 20q-16 18 -13 38t23 36zM298 -8q-114 0 -187.5 73.5t-73.5 184.5q0 112 73.5 185t187.5 73t187.5 -73t73.5 -185q0 -111 -73.5 -184.5t-187.5 -73.5zM298 102q65 0 104 42t39 106q0 66 -42.5 107.5
t-120.5 41.5q-51 0 -97.5 -17t-66.5 -53l5 -3q14 21 37.5 30.5t45.5 6.5q-47 -41 -47 -113q0 -64 39.5 -106t103.5 -42z" />
    <glyph glyph-name="ocircumflex" unicode="&#xf4;" horiz-adv-x="597" 
d="M421 576q-17 -19 -37.5 -20.5t-36.5 15.5l-49 52l-50 -52q-17 -16 -37 -15t-37 20q-33 39 9 74l77 65q17 16 38 16q20 0 37 -16l77 -65q42 -35 9 -74zM298 -8q-114 0 -187.5 73.5t-73.5 184.5q0 112 73.5 185t187.5 73t187.5 -73t73.5 -185q0 -111 -73.5 -184.5
t-187.5 -73.5zM298 102q65 0 104 42t39 106q0 66 -42.5 107.5t-120.5 41.5q-51 0 -97.5 -17t-66.5 -53l5 -3q14 21 37.5 30.5t45.5 6.5q-47 -41 -47 -113q0 -64 39.5 -106t103.5 -42z" />
    <glyph glyph-name="otilde" unicode="&#xf5;" horiz-adv-x="597" 
d="M422 641q21 -34 -17 -69q-24 -23 -47.5 -24t-62.5 18q-26 9 -31.5 8t-22.5 -13q-18 -12 -37 -7.5t-30 23.5q-18 31 16 67q44 44 108 10q26 -12 31.5 -12t22.5 12q21 14 39.5 10t30.5 -23zM298 -8q-114 0 -187.5 73.5t-73.5 184.5q0 112 73.5 185t187.5 73t187.5 -73
t73.5 -185q0 -111 -73.5 -184.5t-187.5 -73.5zM298 102q65 0 104 42t39 106q0 66 -42.5 107.5t-120.5 41.5q-51 0 -97.5 -17t-66.5 -53l5 -3q14 21 37.5 30.5t45.5 6.5q-47 -41 -47 -113q0 -64 39.5 -106t103.5 -42z" />
    <glyph glyph-name="odieresis" unicode="&#xf6;" horiz-adv-x="597" 
d="M220 554q-25 0 -40 15.5t-15 39.5t15 39.5t40 15.5t40 -15.5t15 -39.5t-15 -39.5t-40 -15.5zM375 554q-25 0 -40 15.5t-15 39.5t15 39.5t40 15.5t40.5 -15.5t15.5 -39.5t-15.5 -39.5t-40.5 -15.5zM298 -8q-114 0 -187.5 73.5t-73.5 184.5q0 112 73.5 185t187.5 73
t187.5 -73t73.5 -185q0 -111 -73.5 -184.5t-187.5 -73.5zM298 102q65 0 104 42t39 106q0 66 -42.5 107.5t-120.5 41.5q-51 0 -97.5 -17t-66.5 -53l5 -3q14 21 37.5 30.5t45.5 6.5q-47 -41 -47 -113q0 -64 39.5 -106t103.5 -42z" />
    <glyph glyph-name="divide" unicode="&#xf7;" horiz-adv-x="600" 
d="M300 391q-31 0 -52 21.5t-21 51.5q0 31 21 52t52 21q30 0 51.5 -21t21.5 -52q0 -30 -21.5 -51.5t-51.5 -21.5zM549 281q0 -26 -16.5 -41.5t-43.5 -15.5h-378q-27 0 -43.5 15.5t-16.5 41.5t16.5 41.5t43.5 15.5h378q27 0 43.5 -15.5t16.5 -41.5zM300 25q-31 0 -52 21
t-21 52q0 30 21 51.5t52 21.5q30 0 51.5 -21.5t21.5 -51.5q0 -31 -21.5 -52t-51.5 -21z" />
    <glyph glyph-name="oslash" unicode="&#xf8;" horiz-adv-x="597" 
d="M476 360q22 21 52 18q31 -54 31 -128q0 -111 -73.5 -184.5t-187.5 -73.5q-86 0 -152 44l-22 -21q-31 -32 -61 -2q-13 13 -12.5 29.5t14.5 30.5l21 21q-49 68 -49 156q0 112 73.5 185t187.5 73q89 0 156 -46l24 24q14 14 31 14.5t30 -12.5q28 -30 -2 -61l-64 -64zM155 250
q0 -37 15 -72l202 202q-33 19 -74 19q-65 0 -104 -42.5t-39 -106.5zM298 102q65 0 104 42t39 106q0 39 -13 69l-226 -227l4 -3q20 19 49 19q17 -6 43 -6z" />
    <glyph glyph-name="ugrave" unicode="&#xf9;" horiz-adv-x="582" 
d="M283 717l78 -66q20 -16 23 -36t-13 -38q-16 -19 -36.5 -20t-39.5 16l-77 65q-42 35 -9 74q34 39 74 5zM467 500q27 0 43 -17t16 -44v-378q0 -27 -16 -44t-42 -17q-25 0 -40.5 16t-16.5 40v1h-6q-14 -23 -52.5 -44t-89.5 -21q-41 0 -76.5 11.5t-65.5 36t-47.5 69.5
t-17.5 106v224q0 27 16 44t43 17t43 -17t16 -44v-213q0 -116 44 -158l1 5q-10 16 -4.5 27.5t16.5 11.5q22 -10 62 -10q55 1 85.5 25.5t30.5 53.5v258q0 27 16 44t42 17z" />
    <glyph glyph-name="uacute" unicode="&#xfa;" horiz-adv-x="582" 
d="M297 717q40 34 74 -5q33 -39 -9 -74l-77 -65q-19 -17 -39.5 -16t-36.5 20q-16 18 -13 38t23 36zM467 500q27 0 43 -17t16 -44v-378q0 -27 -16 -44t-42 -17q-25 0 -40.5 16t-16.5 40v1h-6q-14 -23 -52.5 -44t-89.5 -21q-41 0 -76.5 11.5t-65.5 36t-47.5 69.5t-17.5 106
v224q0 27 16 44t43 17t43 -17t16 -44v-213q0 -116 44 -158l1 5q-10 16 -4.5 27.5t16.5 11.5q22 -10 62 -10q55 1 85.5 25.5t30.5 53.5v258q0 27 16 44t42 17z" />
    <glyph glyph-name="ucircumflex" unicode="&#xfb;" horiz-adv-x="582" 
d="M413 576q-17 -19 -37.5 -20.5t-36.5 15.5l-49 52l-50 -52q-17 -16 -37 -15t-37 20q-33 39 9 74l77 65q17 16 38 16q20 0 37 -16l77 -65q42 -35 9 -74zM467 500q27 0 43 -17t16 -44v-378q0 -27 -16 -44t-42 -17q-25 0 -40.5 16t-16.5 40v1h-6q-14 -23 -52.5 -44t-89.5 -21
q-41 0 -76.5 11.5t-65.5 36t-47.5 69.5t-17.5 106v224q0 27 16 44t43 17t43 -17t16 -44v-213q0 -116 44 -158l1 5q-10 16 -4.5 27.5t16.5 11.5q22 -10 62 -10q55 1 85.5 25.5t30.5 53.5v258q0 27 16 44t42 17z" />
    <glyph glyph-name="udieresis" unicode="&#xfc;" horiz-adv-x="582" 
d="M212 554q-25 0 -40 15.5t-15 39.5t15 39.5t40 15.5t40 -15.5t15 -39.5t-15 -39.5t-40 -15.5zM367 554q-25 0 -40 15.5t-15 39.5t15 39.5t40 15.5t40.5 -15.5t15.5 -39.5t-15.5 -39.5t-40.5 -15.5zM467 500q27 0 43 -17t16 -44v-378q0 -27 -16 -44t-42 -17q-25 0 -40.5 16
t-16.5 40v1h-6q-14 -23 -52.5 -44t-89.5 -21q-41 0 -76.5 11.5t-65.5 36t-47.5 69.5t-17.5 106v224q0 27 16 44t43 17t43 -17t16 -44v-213q0 -116 44 -158l1 5q-10 16 -4.5 27.5t16.5 11.5q22 -10 62 -10q55 1 85.5 25.5t30.5 53.5v258q0 27 16 44t42 17z" />
    <glyph glyph-name="yacute" unicode="&#xfd;" horiz-adv-x="584" 
d="M299 717q40 34 74 -5q33 -39 -9 -74l-77 -65q-19 -17 -39.5 -16t-36.5 20q-16 18 -13 38t23 36zM469 500q27 0 43 -17t16 -44v-364q0 -110 -71 -169.5t-168 -59.5q-77 0 -140 20q-48 17 -33 68q8 23 25.5 32t41.5 2q50 -16 97 -16q59 0 98 35t39 115v1h-6
q-16 -31 -54.5 -54.5t-96.5 -23.5q-84 0 -144 53t-60 166v195q0 27 16 44t43 17t43 -17t16 -44v-185q0 -114 43 -156l1 5q-8 15 -4 25.5t13 13.5q22 -11 62 -11q60 1 90.5 29t30.5 69v210q0 27 16 44t43 17z" />
    <glyph glyph-name="thorn" unicode="&#xfe;" horiz-adv-x="605" 
d="M320 508q111 0 179 -70.5t68 -186.5q0 -111 -66.5 -185t-174.5 -74q-56 0 -91.5 24t-53.5 80l-7 4v-192q0 -27 -16 -44.5t-43 -17.5t-43 17.5t-16 44.5v733q0 27 16 44.5t43 17.5t43 -17.5t16 -44.5v-254l6 4q0 53 42 85t98 32zM334 100q39 0 88 16.5t71 55.5l-5 3
q-31 -45 -80 -36q42 44 42 111q0 66 -36.5 107t-108.5 41q-60 0 -95.5 -40.5t-35.5 -105.5v-15q0 -62 42.5 -99.5t117.5 -37.5z" />
    <glyph glyph-name="ydieresis" unicode="&#xff;" horiz-adv-x="584" 
d="M214 554q-25 0 -40 15.5t-15 39.5t15 39.5t40 15.5t40 -15.5t15 -39.5t-15 -39.5t-40 -15.5zM369 554q-25 0 -40 15.5t-15 39.5t15 39.5t40 15.5t40.5 -15.5t15.5 -39.5t-15.5 -39.5t-40.5 -15.5zM469 500q27 0 43 -17t16 -44v-364q0 -110 -71 -169.5t-168 -59.5
q-77 0 -140 20q-48 17 -33 68q8 23 25.5 32t41.5 2q50 -16 97 -16q59 0 98 35t39 115v1h-6q-16 -31 -54.5 -54.5t-96.5 -23.5q-84 0 -144 53t-60 166v195q0 27 16 44t43 17t43 -17t16 -44v-185q0 -114 43 -156l1 5q-8 15 -4 25.5t13 13.5q22 -11 62 -11q60 1 90.5 29
t30.5 69v210q0 27 16 44t43 17z" />
    <glyph glyph-name="Amacron" unicode="&#x100;" 
d="M450 756q0 -22 -14 -35t-37 -13h-182q-23 0 -37 13t-14 35t14 35t37 13h182q23 0 37 -13t14 -35zM583 85q10 -25 1 -48t-34 -33q-24 -10 -46.5 0.5t-32.5 36.5l-31 86h-323l-2 -6q29 0 50 -24l-21 -57q-10 -25 -32 -35.5t-46 -0.5q-25 10 -34 33t1 48l217 534
q16 42 58 42q43 0 58 -42zM216 233h184l-115 307l-4 -9q21 -61 4 -114z" />
    <glyph glyph-name="amacron" unicode="&#x101;" horiz-adv-x="606" 
d="M446 603q0 -22 -14 -35t-37 -13h-182q-23 0 -37 13t-14 35t14 35t37 13h182q23 0 37 -13t14 -35zM305 508q100 0 172.5 -61.5t72.5 -167.5v-217q0 -27 -16 -44.5t-43 -17.5q-25 0 -40 15.5t-16 39.5l-1 1h-6q-44 -64 -143 -64q-100 0 -174 72.5t-74 178.5
q0 118 72.5 191.5t195.5 73.5zM299 102q61 0 97.5 38t36.5 109v20q0 130 -155 130q-51 0 -97.5 -17t-66.5 -53l5 -3q14 21 37.5 30.5t44.5 6.5q-46 -39 -46 -113q0 -68 40 -108t104 -40z" />
    <glyph glyph-name="Abreve" unicode="&#x102;" 
d="M440 874q43 -22 12 -83q-43 -81 -144 -81q-102 0 -145 81q-31 61 12 83q43 25 72 -21q11 -18 16 -24.5t17.5 -15t27.5 -8.5t27 8t17.5 15.5t15.5 24.5q29 46 72 21zM583 85q10 -25 1 -48t-34 -33q-24 -10 -46.5 0.5t-32.5 36.5l-31 86h-323l-2 -6q29 0 50 -24l-21 -57
q-10 -25 -32 -35.5t-46 -0.5q-25 10 -34 33t1 48l217 534q16 42 58 42q43 0 58 -42zM216 233h184l-115 307l-4 -9q21 -61 4 -114z" />
    <glyph glyph-name="abreve" unicode="&#x103;" horiz-adv-x="606" 
d="M436 721q43 -22 12 -83q-43 -81 -144 -81q-102 0 -145 81q-31 61 12 83q43 25 72 -21q11 -18 16 -24.5t17.5 -15t27.5 -8.5t27 8t17.5 15.5t15.5 24.5q29 46 72 21zM305 508q100 0 172.5 -61.5t72.5 -167.5v-217q0 -27 -16 -44.5t-43 -17.5q-25 0 -40 15.5t-16 39.5l-1 1
h-6q-44 -64 -143 -64q-100 0 -174 72.5t-74 178.5q0 118 72.5 191.5t195.5 73.5zM299 102q61 0 97.5 38t36.5 109v20q0 130 -155 130q-51 0 -97.5 -17t-66.5 -53l5 -3q14 21 37.5 30.5t44.5 6.5q-46 -39 -46 -113q0 -68 40 -108t104 -40z" />
    <glyph glyph-name="Aogonek" unicode="&#x104;" 
d="M589 -95q16 -37 -19 -59q-24 -14 -56 -14q-41 -1 -68.5 20.5t-28.5 62.5q-2 68 67 104q-9 11 -13 22l-31 86h-323l-2 -6q29 0 50 -24l-21 -57q-10 -25 -32 -35.5t-46 -0.5q-25 10 -34 33t1 48l217 534q16 42 58 42q43 0 58 -42l217 -534q10 -25 1 -48t-34 -33
q-6 -2 -14 -4q-47 -16 -47 -49q0 -24 24 -24q1 0 29 7q32 9 47 -29zM216 233h184l-115 307l-4 -9q21 -61 4 -114z" />
    <glyph glyph-name="aogonek" unicode="&#x105;" horiz-adv-x="606" 
d="M554 -95q16 -37 -19 -59q-24 -14 -56 -14q-41 -1 -68.5 20.5t-28.5 62.5q-1 67 66 103q-13 16 -13 37l-1 1h-6q-44 -64 -143 -64q-100 0 -174 72.5t-74 178.5q0 118 72.5 191.5t195.5 73.5q100 0 172.5 -61.5t72.5 -167.5v-217q0 -49 -42 -60q-54 -15 -54 -51
q0 -24 24 -24q1 0 29 7q32 9 47 -29zM433 249v20q0 130 -155 130q-51 0 -97.5 -17t-66.5 -53l5 -3q14 21 37.5 30.5t44.5 6.5q-46 -39 -46 -113q0 -68 40 -108t104 -40q61 0 97.5 38t36.5 109z" />
    <glyph glyph-name="Cacute" unicode="&#x106;" horiz-adv-x="679" 
d="M372 870q40 34 74 -5q33 -39 -9 -74l-77 -65q-19 -17 -39.5 -16t-36.5 20q-16 18 -13 38t23 36zM510 490q-18 17 -31.5 26t-51.5 20t-90 11q-133 0 -179 -75l5 -4q29 41 81 34q-75 -61 -75 -175q0 -96 56 -158.5t148 -62.5q35 0 66.5 12t44 22t34.5 29q45 40 84 2
q41 -40 3 -86q-32 -38 -96.5 -65.5t-140.5 -27.5q-138 0 -229.5 95.5t-91.5 239.5t91.5 239t232.5 95q73 0 134.5 -25.5t90.5 -60.5q36 -41 -6 -83q-39 -40 -80 -2z" />
    <glyph glyph-name="cacute" unicode="&#x107;" horiz-adv-x="538" 
d="M296 717q40 34 74 -5q33 -39 -9 -74l-77 -65q-19 -17 -39.5 -16t-36.5 20q-16 18 -13 38t23 36zM400 354q-45 45 -122 45q-51 0 -97.5 -17t-66.5 -53l5 -3q14 21 37.5 30.5t46.5 6.5q-48 -43 -48 -113q0 -62 40 -105t103 -43q58 0 103 45q39 39 80 0q41 -43 1 -82
q-73 -73 -184 -73q-114 0 -187.5 73.5t-73.5 184.5q0 112 73.5 185t187.5 73q112 0 184 -72q37 -37 -6 -80q-41 -38 -76 -2z" />
    <glyph glyph-name="Cdotaccent" unicode="&#x10a;" horiz-adv-x="679" 
d="M365 694q-28 0 -45.5 18t-17.5 45t17.5 45t45.5 18t45.5 -18t17.5 -45t-17.5 -45t-45.5 -18zM510 490q-18 17 -31.5 26t-51.5 20t-90 11q-133 0 -179 -75l5 -4q29 41 81 34q-75 -61 -75 -175q0 -96 56 -158.5t148 -62.5q35 0 66.5 12t44 22t34.5 29q45 40 84 2
q41 -40 3 -86q-32 -38 -96.5 -65.5t-140.5 -27.5q-138 0 -229.5 95.5t-91.5 239.5t91.5 239t232.5 95q73 0 134.5 -25.5t90.5 -60.5q36 -41 -6 -83q-39 -40 -80 -2z" />
    <glyph glyph-name="cdotaccent" unicode="&#x10b;" horiz-adv-x="538" 
d="M289 541q-28 0 -45.5 18t-17.5 45t17.5 45t45.5 18t45.5 -18t17.5 -45t-17.5 -45t-45.5 -18zM400 354q-45 45 -122 45q-51 0 -97.5 -17t-66.5 -53l5 -3q14 21 37.5 30.5t46.5 6.5q-48 -43 -48 -113q0 -62 40 -105t103 -43q58 0 103 45q39 39 80 0q41 -43 1 -82
q-73 -73 -184 -73q-114 0 -187.5 73.5t-73.5 184.5q0 112 73.5 185t187.5 73q112 0 184 -72q37 -37 -6 -80q-41 -38 -76 -2z" />
    <glyph glyph-name="Ccaron" unicode="&#x10c;" horiz-adv-x="679" 
d="M488 865q33 -39 -9 -74l-77 -65q-17 -16 -37 -16q-21 0 -38 16l-77 65q-42 35 -9 74q17 19 37 20t37 -15l50 -52l49 52q16 17 36.5 15.5t37.5 -20.5zM510 490q-18 17 -31.5 26t-51.5 20t-90 11q-133 0 -179 -75l5 -4q29 41 81 34q-75 -61 -75 -175q0 -96 56 -158.5
t148 -62.5q35 0 66.5 12t44 22t34.5 29q45 40 84 2q41 -40 3 -86q-32 -38 -96.5 -65.5t-140.5 -27.5q-138 0 -229.5 95.5t-91.5 239.5t91.5 239t232.5 95q73 0 134.5 -25.5t90.5 -60.5q36 -41 -6 -83q-39 -40 -80 -2z" />
    <glyph glyph-name="ccaron" unicode="&#x10d;" horiz-adv-x="538" 
d="M412 712q33 -39 -9 -74l-77 -65q-17 -16 -37 -16q-21 0 -38 16l-77 65q-42 35 -9 74q17 19 37 20t37 -15l50 -52l49 52q16 17 36.5 15.5t37.5 -20.5zM400 354q-45 45 -122 45q-51 0 -97.5 -17t-66.5 -53l5 -3q14 21 37.5 30.5t46.5 6.5q-48 -43 -48 -113q0 -62 40 -105
t103 -43q58 0 103 45q39 39 80 0q41 -43 1 -82q-73 -73 -184 -73q-114 0 -187.5 73.5t-73.5 184.5q0 112 73.5 185t187.5 73q112 0 184 -72q37 -37 -6 -80q-41 -38 -76 -2z" />
    <glyph glyph-name="Dcaron" unicode="&#x10e;" horiz-adv-x="648" 
d="M414 865q33 -39 -9 -74l-77 -65q-17 -16 -37 -16q-21 0 -38 16l-77 65q-42 35 -9 74q17 19 37 20t37 -15l50 -52l49 52q16 17 36.5 15.5t37.5 -20.5zM299 653q137 0 219.5 -88.5t82.5 -237.5t-82 -238t-219 -89h-174q-27 0 -43.5 17.5t-16.5 45.5v527q0 28 16.5 45.5
t43.5 17.5h173zM311 113q144 0 194 73l-5 3q-17 -24 -43 -32.5t-42 -5.5q66 54 66 176q0 97 -45.5 155t-136.5 58h-175v-6q22 0 41.5 -16t19.5 -42v-363h126z" />
    <glyph glyph-name="dcaron" unicode="&#x10f;" horiz-adv-x="727" 
d="M721 629l-40 -105q-13 -25 -38 -25q-17 0 -27 12.5t-9 30.5l4 108q3 61 61 61q33 0 47.5 -24.5t1.5 -57.5zM491 703q27 0 43 -17.5t16 -44.5v-413q0 -101 -72.5 -168.5t-180.5 -67.5q-113 0 -186.5 71.5t-73.5 185.5q0 115 74.5 187t177.5 72q64 0 104 -40q34 -36 34 -75
l5 -7v255q0 27 16.5 44.5t42.5 17.5zM433 237v19q0 66 -39 105.5t-116 39.5q-50 0 -97 -18t-67 -54l5 -3q14 21 37.5 30.5t45.5 6.5q-47 -41 -47 -111q0 -62 39.5 -106t106.5 -44q59 0 95.5 38t36.5 97z" />
    <glyph glyph-name="Dcroat" unicode="&#x110;" horiz-adv-x="698" 
d="M349 653q137 0 219.5 -88.5t82.5 -237.5t-82 -238t-219 -89h-175q-27 0 -43.5 18t-16.5 45v207h-29q-24 0 -39 14t-15 37t15 37t39 14h29v218q0 27 16.5 45t43.5 18h174zM350 113q91 0 136 58.5t45 155.5t-45.5 155t-136.5 58h-175v-6q22 0 41.5 -16t19.5 -42v-104h71
q24 0 39 -14t15 -37t-15 -37t-39 -14h-132v-6q22 0 41.5 -16t19.5 -41v-94h115z" />
    <glyph glyph-name="dcroat" unicode="&#x111;" horiz-adv-x="687" 
d="M580 652q23 -1 37 -14t14 -35t-13.5 -35t-36.5 -14h-92v-5q22 0 41.5 -16.5t19.5 -42.5v-262q0 -101 -72.5 -168.5t-180.5 -67.5q-113 0 -186.5 71.5t-73.5 185.5q0 115 74.5 187t177.5 72q40 0 71.5 -12.5t41.5 -21t24 -23.5h6v103h-33q-24 0 -38.5 13.5t-14.5 35.5
t14.5 35.5t38.5 13.5h34v1q4 23 19 36.5t39 13.5t39.5 -13.5t18.5 -36.5v-1h31zM433 237v19q0 66 -39 105.5t-116 39.5q-50 0 -97 -18t-67 -54l5 -3q14 21 37.5 30.5t45.5 6.5q-47 -41 -47 -111q0 -63 43 -107t121 -43q51 0 97.5 16.5t66.5 52.5l-5 3q-14 -21 -38 -30.5
t-46 -6.5q39 37 39 100z" />
    <glyph glyph-name="Emacron" unicode="&#x112;" horiz-adv-x="524" 
d="M412 756q0 -22 -14 -35t-37 -13h-182q-23 0 -37 13t-14 35t14 35t37 13h182q23 0 37 -13t14 -35zM422 113q27 0 43.5 -15.5t16.5 -40.5q0 -26 -16.5 -41.5t-43.5 -15.5h-296q-27 0 -43.5 17.5t-16.5 45.5v527q0 28 16.5 45.5t43.5 17.5h291q27 0 43.5 -15.5t16.5 -41.5
q0 -25 -16.5 -40.5t-43.5 -15.5h-292v-6q21 0 39 -15.5t18 -40.5v-89h189q27 0 44 -15.5t17 -39.5q0 -25 -17.5 -40.5t-43.5 -15.5h-246v-5q21 0 39 -16t18 -41v-103h240z" />
    <glyph glyph-name="emacron" unicode="&#x113;" horiz-adv-x="553" 
d="M431 603q0 -22 -14 -35t-37 -13h-182q-23 0 -37 13t-14 35t14 35t37 13h182q23 0 37 -13t14 -35zM521 287q0 -38 -21.5 -62t-58.5 -24h-308l1 -5q25 0 43 -31q37 -67 121 -67q46 0 106 27q53 22 77 -21q25 -45 -24 -75q-65 -37 -156 -37q-120 0 -192 73t-72 184
q0 114 72 186.5t180 72.5q100 0 166 -61.5t66 -159.5zM161 299h248q-1 42 -38.5 74t-98.5 32q-45 0 -92 -17.5t-67 -52.5l5 -3q15 21 38.5 30.5t44.5 7.5q-30 -30 -40 -71z" />
    <glyph glyph-name="Ebreve" unicode="&#x114;" horiz-adv-x="524" 
d="M402 874q43 -22 12 -83q-43 -81 -144 -81q-102 0 -145 81q-31 61 12 83q43 25 72 -21q11 -18 16 -24.5t17.5 -15t27.5 -8.5t27 8t17.5 15.5t15.5 24.5q29 46 72 21zM422 113q27 0 43.5 -15.5t16.5 -40.5q0 -26 -16.5 -41.5t-43.5 -15.5h-296q-27 0 -43.5 17.5t-16.5 45.5
v527q0 28 16.5 45.5t43.5 17.5h291q27 0 43.5 -15.5t16.5 -41.5q0 -25 -16.5 -40.5t-43.5 -15.5h-292v-6q21 0 39 -15.5t18 -40.5v-89h189q27 0 44 -15.5t17 -39.5q0 -25 -17.5 -40.5t-43.5 -15.5h-246v-5q21 0 39 -16t18 -41v-103h240z" />
    <glyph glyph-name="ebreve" unicode="&#x115;" horiz-adv-x="553" 
d="M421 721q43 -22 12 -83q-43 -81 -144 -81q-102 0 -145 81q-31 61 12 83q43 25 72 -21q11 -18 16 -24.5t17.5 -15t27.5 -8.5t27 8t17.5 15.5t15.5 24.5q29 46 72 21zM521 287q0 -38 -21.5 -62t-58.5 -24h-308l1 -5q25 0 43 -31q37 -67 121 -67q46 0 106 27q53 22 77 -21
q25 -45 -24 -75q-65 -37 -156 -37q-120 0 -192 73t-72 184q0 114 72 186.5t180 72.5q100 0 166 -61.5t66 -159.5zM161 299h248q-1 42 -38.5 74t-98.5 32q-45 0 -92 -17.5t-67 -52.5l5 -3q15 21 38.5 30.5t44.5 7.5q-30 -30 -40 -71z" />
    <glyph glyph-name="Edotaccent" unicode="&#x116;" horiz-adv-x="524" 
d="M270 694q-28 0 -45.5 18t-17.5 45t17.5 45t45.5 18t45.5 -18t17.5 -45t-17.5 -45t-45.5 -18zM422 113q27 0 43.5 -15.5t16.5 -40.5q0 -26 -16.5 -41.5t-43.5 -15.5h-296q-27 0 -43.5 17.5t-16.5 45.5v527q0 28 16.5 45.5t43.5 17.5h291q27 0 43.5 -15.5t16.5 -41.5
q0 -25 -16.5 -40.5t-43.5 -15.5h-292v-6q21 0 39 -15.5t18 -40.5v-89h189q27 0 44 -15.5t17 -39.5q0 -25 -17.5 -40.5t-43.5 -15.5h-246v-5q21 0 39 -16t18 -41v-103h240z" />
    <glyph glyph-name="edotaccent" unicode="&#x117;" horiz-adv-x="553" 
d="M289 541q-28 0 -45.5 18t-17.5 45t17.5 45t45.5 18t45.5 -18t17.5 -45t-17.5 -45t-45.5 -18zM521 287q0 -38 -21.5 -62t-58.5 -24h-308l1 -5q25 0 43 -31q37 -67 121 -67q46 0 106 27q53 22 77 -21q25 -45 -24 -75q-65 -37 -156 -37q-120 0 -192 73t-72 184
q0 114 72 186.5t180 72.5q100 0 166 -61.5t66 -159.5zM161 299h248q-1 42 -38.5 74t-98.5 32q-45 0 -92 -17.5t-67 -52.5l5 -3q15 21 38.5 30.5t44.5 7.5q-30 -30 -40 -71z" />
    <glyph glyph-name="Eogonek" unicode="&#x118;" horiz-adv-x="524" 
d="M484 -95q16 -37 -19 -59q-24 -14 -56 -14q-41 -1 -68.5 20.5t-28.5 62.5q-1 49 39 85h-225q-27 0 -43.5 17.5t-16.5 45.5v527q0 28 16.5 45.5t43.5 17.5h291q27 0 43.5 -15.5t16.5 -41.5q0 -25 -16.5 -40.5t-43.5 -15.5h-292v-6q21 0 39 -15.5t18 -40.5v-89h189
q27 0 44 -15.5t17 -39.5q0 -25 -17.5 -40.5t-43.5 -15.5h-246v-5q21 0 39 -16t18 -41v-103h240q27 0 43.5 -15.5t16.5 -40.5q0 -22 -13 -37t-35 -19q-50 -15 -50 -50q0 -24 24 -24q1 0 29 7q32 9 47 -29z" />
    <glyph glyph-name="eogonek" unicode="&#x119;" horiz-adv-x="553" 
d="M521 287q0 -38 -21.5 -62t-58.5 -24h-308l1 -5q25 0 43 -31q37 -67 121 -67q46 0 106 27q53 22 77 -21q25 -45 -24 -75q-32 -18 -72 -27q-25 -7 -39 -20.5t-14 -30.5q0 -24 24 -24q1 0 29 7q32 9 47 -29q16 -37 -19 -59q-24 -14 -56 -14q-41 -1 -68.5 20.5t-28.5 62.5
q0 44 31 77q-116 4 -185 76t-69 181q0 114 72 186.5t180 72.5q100 0 166 -61.5t66 -159.5zM161 299h248q-1 42 -38.5 74t-98.5 32q-45 0 -92 -17.5t-67 -52.5l5 -3q15 21 38.5 30.5t44.5 7.5q-30 -30 -40 -71z" />
    <glyph glyph-name="Ecaron" unicode="&#x11a;" horiz-adv-x="524" 
d="M393 865q33 -39 -9 -74l-77 -65q-17 -16 -37 -16q-21 0 -38 16l-77 65q-42 35 -9 74q17 19 37 20t37 -15l50 -52l49 52q16 17 36.5 15.5t37.5 -20.5zM422 113q27 0 43.5 -15.5t16.5 -40.5q0 -26 -16.5 -41.5t-43.5 -15.5h-296q-27 0 -43.5 17.5t-16.5 45.5v527
q0 28 16.5 45.5t43.5 17.5h291q27 0 43.5 -15.5t16.5 -41.5q0 -25 -16.5 -40.5t-43.5 -15.5h-292v-6q21 0 39 -15.5t18 -40.5v-89h189q27 0 44 -15.5t17 -39.5q0 -25 -17.5 -40.5t-43.5 -15.5h-246v-5q21 0 39 -16t18 -41v-103h240z" />
    <glyph glyph-name="ecaron" unicode="&#x11b;" horiz-adv-x="553" 
d="M412 712q33 -39 -9 -74l-77 -65q-17 -16 -37 -16q-21 0 -38 16l-77 65q-42 35 -9 74q17 19 37 20t37 -15l50 -52l49 52q16 17 36.5 15.5t37.5 -20.5zM521 287q0 -38 -21.5 -62t-58.5 -24h-308l1 -5q25 0 43 -31q37 -67 121 -67q46 0 106 27q53 22 77 -21q25 -45 -24 -75
q-65 -37 -156 -37q-120 0 -192 73t-72 184q0 114 72 186.5t180 72.5q100 0 166 -61.5t66 -159.5zM161 299h248q-1 42 -38.5 74t-98.5 32q-45 0 -92 -17.5t-67 -52.5l5 -3q15 21 38.5 30.5t44.5 7.5q-30 -30 -40 -71z" />
    <glyph glyph-name="Gbreve" unicode="&#x11e;" horiz-adv-x="708" 
d="M500 874q43 -22 12 -83q-43 -81 -144 -81q-102 0 -145 81q-31 61 12 83q43 25 72 -21q11 -18 16 -24.5t17.5 -15t27.5 -8.5t27 8t17.5 15.5t15.5 24.5q29 46 72 21zM603 381q26 0 41.5 -15t15.5 -40v-81q0 -80 -43 -139t-108.5 -86.5t-140.5 -27.5q-135 0 -228 93.5
t-93 239.5q0 144 91 240t232 96q71 0 131.5 -24.5t88.5 -57.5q32 -38 0 -78q-16 -21 -40.5 -22t-41.5 14q-22 16 -34 24t-51 20t-86 12q-132 0 -179 -76l5 -3q30 41 80 34q-74 -63 -74 -178q0 -100 59 -161t149 -61q63 0 107 31t56 85l1 3q4 19 21.5 31t37.5 12v5h-162
q-27 0 -43 15t-16 40t16 40t43 15h165z" />
    <glyph glyph-name="gbreve" unicode="&#x11f;" horiz-adv-x="594" 
d="M419 721q43 -22 12 -83q-43 -81 -144 -81q-102 0 -145 81q-31 61 12 83q43 25 72 -21q11 -18 16 -24.5t17.5 -15t27.5 -8.5t27 8t17.5 15.5t15.5 24.5q29 46 72 21zM289 508q110 0 179.5 -67t69.5 -167v-195q0 -97 -70 -165t-198 -68q-71 0 -120 18q-49 16 -34 66
q16 48 66 34q48 -12 79 -12q161 0 161 137v14h-6q-56 -77 -148 -77q-101 0 -166 66.5t-65 177.5q0 108 72.5 173t179.5 65zM284 130q59 0 98.5 35.5t39.5 90.5v3q0 60 -38 101t-115 41q-50 0 -97 -18t-67 -54l5 -3q14 21 37.5 31t45.5 7q-39 -36 -39 -97q0 -60 32 -98.5
t98 -38.5z" />
    <glyph glyph-name="Gdotaccent" unicode="&#x120;" horiz-adv-x="708" 
d="M368 694q-28 0 -45.5 18t-17.5 45t17.5 45t45.5 18t45.5 -18t17.5 -45t-17.5 -45t-45.5 -18zM603 381q26 0 41.5 -15t15.5 -40v-81q0 -80 -43 -139t-108.5 -86.5t-140.5 -27.5q-135 0 -228 93.5t-93 239.5q0 144 91 240t232 96q71 0 131.5 -24.5t88.5 -57.5q32 -38 0 -78
q-16 -21 -40.5 -22t-41.5 14q-22 16 -34 24t-51 20t-86 12q-132 0 -179 -76l5 -3q30 41 80 34q-74 -63 -74 -178q0 -100 59 -161t149 -61q63 0 107 31t56 85l1 3q4 19 21.5 31t37.5 12v5h-162q-27 0 -43 15t-16 40t16 40t43 15h165z" />
    <glyph glyph-name="gdotaccent" unicode="&#x121;" horiz-adv-x="594" 
d="M287 541q-28 0 -45.5 18t-17.5 45t17.5 45t45.5 18t45.5 -18t17.5 -45t-17.5 -45t-45.5 -18zM289 508q110 0 179.5 -67t69.5 -167v-195q0 -97 -70 -165t-198 -68q-71 0 -120 18q-49 16 -34 66q16 48 66 34q48 -12 79 -12q161 0 161 137v14h-6q-56 -77 -148 -77
q-101 0 -166 66.5t-65 177.5q0 108 72.5 173t179.5 65zM284 130q59 0 98.5 35.5t39.5 90.5v3q0 60 -38 101t-115 41q-50 0 -97 -18t-67 -54l5 -3q14 21 37.5 31t45.5 7q-39 -36 -39 -97q0 -60 32 -98.5t98 -38.5z" />
    <glyph glyph-name="uni0122" unicode="&#x122;" horiz-adv-x="708" 
d="M603 381q26 0 41.5 -15t15.5 -40v-81q0 -80 -43 -139t-108.5 -86.5t-140.5 -27.5q-135 0 -228 93.5t-93 239.5q0 144 91 240t232 96q71 0 131.5 -24.5t88.5 -57.5q32 -38 0 -78q-16 -21 -40.5 -22t-41.5 14q-22 16 -34 24t-51 20t-86 12q-132 0 -179 -76l5 -3
q30 41 80 34q-74 -63 -74 -178q0 -100 59 -161t149 -61q63 0 107 31t56 85l1 3q4 19 21.5 31t37.5 12v5h-162q-27 0 -43 15t-16 40t16 40t43 15h165zM417 -109l-56 -76q-11 -16 -26 -16q-13 0 -21.5 9t-8.5 21q0 5 1 9l20 87q11 44 54 44q48 0 48 -48q0 -14 -11 -30z" />
    <glyph glyph-name="uni0123" unicode="&#x123;" horiz-adv-x="594" 
d="M235 629l53 91q17 31 52 15q26 -11 18 -43l-28 -99q-7 -30 -31 -40.5t-47 1.5q-19 9 -25 31t8 44zM289 508q110 0 179.5 -67t69.5 -167v-195q0 -97 -70 -165t-198 -68q-71 0 -120 18q-49 16 -34 66q16 48 66 34q48 -12 79 -12q161 0 161 137v14h-6q-56 -77 -148 -77
q-101 0 -166 66.5t-65 177.5q0 108 72.5 173t179.5 65zM284 130q59 0 98.5 35.5t39.5 90.5v3q0 60 -38 101t-115 41q-50 0 -97 -18t-67 -54l5 -3q14 21 37.5 31t45.5 7q-39 -36 -39 -97q0 -60 32 -98.5t98 -38.5z" />
    <glyph glyph-name="Hbar" unicode="&#x126;" horiz-adv-x="698" 
d="M572 653q27 0 43.5 -17.5t16.5 -45.5v-527q0 -28 -16.5 -45.5t-43.5 -17.5t-43.5 18t-16.5 45v121h-387v-5q21 0 41 -16t20 -40v-60q0 -27 -16.5 -45t-43.5 -18t-43.5 17.5t-16.5 45.5v527q0 28 16.5 45.5t43.5 17.5t43.5 -18t16.5 -45v-106h326v106q0 27 16.5 45
t43.5 18zM186 293h326v82h-387v-5q21 0 41 -16t20 -40v-21z" />
    <glyph glyph-name="hbar" unicode="&#x127;" horiz-adv-x="610" 
d="M358 508q85 0 141 -50t56 -154v-242q0 -27 -16 -44.5t-43 -17.5t-43 17.5t-16 44.5v229q0 64 -27 86t-75 22q-70 0 -120.5 -36t-61.5 -107h5q13 58 56 72q-3 -8 -3 -16v-250q0 -27 -16 -44.5t-43 -17.5t-43 17.5t-16 44.5v492h-31q-24 0 -38.5 13.5t-14.5 35.5t14.5 35.5
t38.5 13.5h32q3 23 18.5 37t39.5 14t39.5 -14t18.5 -37h32q23 0 37.5 -13.5t14.5 -35.5t-14.5 -35.5t-37.5 -13.5h-31v-110h6q45 64 141 64z" />
    <glyph glyph-name="Itilde" unicode="&#x128;" horiz-adv-x="259" 
d="M254 794q21 -34 -17 -69q-24 -23 -47.5 -24t-62.5 18q-26 9 -31.5 8t-22.5 -13q-18 -12 -37 -7.5t-30 23.5q-18 31 16 67q44 44 108 10q26 -12 31.5 -12t22.5 12q21 14 39.5 10t30.5 -23zM130 653q27 0 43.5 -17t16.5 -42v-3q0 -22 -20 -37t-41 -15v-5h61v-471
q0 -27 -16.5 -45t-43.5 -18t-43.5 17.5t-16.5 45.5v527q0 28 16.5 45.5t43.5 17.5z" />
    <glyph glyph-name="itilde" unicode="&#x129;" horiz-adv-x="230" 
d="M239 665q21 -34 -17 -69q-24 -23 -47.5 -24t-62.5 18q-26 9 -31.5 8t-22.5 -13q-18 -12 -37 -7.5t-30 23.5q-18 31 16 67q44 44 108 10q26 -12 31.5 -12t22.5 12q21 14 39.5 10t30.5 -23zM115 500q26 0 42.5 -16.5t16.5 -40.5v-3q0 -21 -19.5 -36t-40.5 -15v-5h60v-322
q0 -27 -16.5 -44.5t-42.5 -17.5q-27 0 -43 17.5t-16 44.5v377q0 27 16 44t43 17z" />
    <glyph glyph-name="Imacron" unicode="&#x12a;" horiz-adv-x="259" 
d="M237 756q0 -22 -14 -35t-37 -13h-112q-23 0 -37 13t-14 35t14 35t37 13h112q23 0 37 -13t14 -35zM130 653q27 0 43.5 -17t16.5 -42v-3q0 -22 -20 -37t-41 -15v-5h61v-471q0 -27 -16.5 -45t-43.5 -18t-43.5 17.5t-16.5 45.5v527q0 28 16.5 45.5t43.5 17.5z" />
    <glyph glyph-name="imacron" unicode="&#x12b;" horiz-adv-x="230" 
d="M222 627q0 -22 -14 -35t-37 -13h-112q-23 0 -37 13t-14 35t14 35t37 13h112q23 0 37 -13t14 -35zM115 500q26 0 42.5 -16.5t16.5 -40.5v-3q0 -21 -19.5 -36t-40.5 -15v-5h60v-322q0 -27 -16.5 -44.5t-42.5 -17.5q-27 0 -43 17.5t-16 44.5v377q0 27 16 44t43 17z" />
    <glyph glyph-name="Ibreve" unicode="&#x12c;" horiz-adv-x="259" 
d="M262 874q43 -22 12 -83q-43 -81 -144 -81q-102 0 -145 81q-31 61 12 83q43 25 72 -21q11 -18 16 -24.5t17.5 -15t27.5 -8.5t27 8t17.5 15.5t15.5 24.5q29 46 72 21zM130 653q27 0 43.5 -17t16.5 -42v-3q0 -22 -20 -37t-41 -15v-5h61v-471q0 -27 -16.5 -45t-43.5 -18
t-43.5 17.5t-16.5 45.5v527q0 28 16.5 45.5t43.5 17.5z" />
    <glyph glyph-name="ibreve" unicode="&#x12d;" horiz-adv-x="230" 
d="M247 745q43 -22 12 -83q-43 -81 -144 -81q-102 0 -145 81q-31 61 12 83q43 25 72 -21q11 -18 16 -24.5t17.5 -15t27.5 -8.5t27 8t17.5 15.5t15.5 24.5q29 46 72 21zM115 500q26 0 42.5 -16.5t16.5 -40.5v-3q0 -21 -19.5 -36t-40.5 -15v-5h60v-322q0 -27 -16.5 -44.5
t-42.5 -17.5q-27 0 -43 17.5t-16 44.5v377q0 27 16 44t43 17z" />
    <glyph glyph-name="Iogonek" unicode="&#x12e;" horiz-adv-x="259" 
d="M191 -95q16 -37 -19 -59q-24 -14 -56 -14q-41 -1 -68.5 20.5t-28.5 62.5q-2 69 67 103q-16 19 -16 45v527q0 28 16.5 45.5t43.5 17.5t43.5 -17t16.5 -42v-3q0 -22 -20 -37t-41 -15v-5h61v-471q0 -24 -13.5 -41t-35.5 -21q-50 -15 -50 -50q0 -24 24 -24q1 0 29 7
q32 9 47 -29z" />
    <glyph glyph-name="iogonek" unicode="&#x12f;" horiz-adv-x="243" 
d="M122 582q-31 0 -50.5 20t-19.5 50t19.5 50t50.5 20q30 0 49.5 -20t19.5 -50t-19.5 -50t-49.5 -20zM204 -96q16 -37 -19 -59q-24 -14 -56 -14q-41 -1 -68.5 20.5t-28.5 62.5q-1 60 55 97q-24 16 -24 51v377q0 27 16 44t43 17q26 0 42 -16.5t16 -40.5v-3q0 -21 -19 -36
t-41 -15v-5h60v-322q0 -33 -22 -50v-11q-54 -15 -54 -51q0 -24 24 -24q1 0 29 7q32 9 47 -29z" />
    <glyph glyph-name="Idotaccent" unicode="&#x130;" horiz-adv-x="259" 
d="M130 694q-28 0 -45.5 18t-17.5 45t17.5 45t45.5 18t45.5 -18t17.5 -45t-17.5 -45t-45.5 -18zM130 653q27 0 43.5 -17t16.5 -42v-3q0 -22 -20 -37t-41 -15v-5h61v-471q0 -27 -16.5 -45t-43.5 -18t-43.5 17.5t-16.5 45.5v527q0 28 16.5 45.5t43.5 17.5z" />
    <glyph glyph-name="dotlessi" unicode="&#x131;" horiz-adv-x="230" 
d="M115 500q26 0 42.5 -16.5t16.5 -40.5v-3q0 -21 -19.5 -36t-40.5 -15v-5h60v-322q0 -27 -16.5 -44.5t-42.5 -17.5q-27 0 -43 17.5t-16 44.5v377q0 27 16 44t43 17z" />
    <glyph glyph-name="uni0136" unicode="&#x136;" horiz-adv-x="608" 
d="M563 77q9 -25 -4 -48t-38 -28q-22 -5 -43 7.5t-31 38.5l-55 131q-21 49 -48.5 71.5t-84.5 22.5h-134v-5q22 0 41.5 -16t19.5 -42v-146q0 -27 -16.5 -45t-43.5 -18t-43.5 17.5t-16.5 45.5v527q0 28 16.5 45.5t43.5 17.5t43.5 -18t16.5 -45v-206h57q49 0 72.5 22t45.5 73
l53 127q23 58 74 45q26 -7 38 -28t3 -47l-55 -131q-20 -48 -42 -70q-24 -25 -71 -13l-6 -4q103 -31 153 -147zM360 -109l-56 -76q-11 -16 -26 -16q-13 0 -21.5 9t-8.5 21q0 5 1 9l20 87q11 44 54 44q48 0 48 -48q0 -14 -11 -30z" />
    <glyph glyph-name="uni0137" unicode="&#x137;" horiz-adv-x="497" 
d="M459 78q9 -27 -2 -48t-39 -28q-24 -6 -43.5 7t-28.5 38l-43 103q-13 33 -29.5 48.5t-52.5 15.5h-108v-6q22 0 41.5 -16t19.5 -42v-88q0 -27 -16 -44.5t-43 -17.5t-43 17.5t-16 44.5v579q0 27 16 44.5t43 17.5t43 -17.5t16 -44.5v-319h37q31 0 46.5 13.5t30.5 44.5l37 75
q24 57 73 43q26 -7 37.5 -28t2.5 -47l-32 -69q-14 -30 -31 -48q-23 -23 -72 -14l-3 -4q51 -12 75 -35t37 -58zM308 -109l-56 -76q-11 -16 -26 -16q-13 0 -21.5 9t-8.5 21q0 5 1 9l20 87q11 44 54 44q48 0 48 -48q0 -14 -11 -30z" />
    <glyph glyph-name="Lacute" unicode="&#x139;" horiz-adv-x="512" 
d="M271 870q40 34 74 -5q33 -39 -9 -74l-77 -65q-19 -17 -39.5 -16t-36.5 20q-16 18 -13 38t23 36zM420 113q27 0 43.5 -15.5t16.5 -40.5q0 -26 -16.5 -41.5t-43.5 -15.5h-295q-26 0 -42.5 17.5t-16.5 45.5v527q0 28 16.5 45.5t43.5 17.5t43.5 -18t16.5 -45v-413
q0 -26 -19.5 -42t-41.5 -16v-6h295z" />
    <glyph glyph-name="lacute" unicode="&#x13a;" horiz-adv-x="237" 
d="M126 909q40 34 74 -5q33 -39 -9 -74l-77 -65q-19 -17 -39.5 -16t-36.5 20q-16 18 -13 38t23 36zM119 703q26 0 42 -16.5t16 -41.5v-3q0 -21 -19.5 -36t-40.5 -15v-5h60v-524q0 -27 -16 -44.5t-42 -17.5q-27 0 -43 17.5t-16 44.5v579q0 27 16 44.5t43 17.5z" />
    <glyph glyph-name="uni013B" unicode="&#x13b;" horiz-adv-x="512" 
d="M420 113q27 0 43.5 -15.5t16.5 -40.5q0 -26 -16.5 -41.5t-43.5 -15.5h-295q-26 0 -42.5 17.5t-16.5 45.5v527q0 28 16.5 45.5t43.5 17.5t43.5 -18t16.5 -45v-413q0 -26 -19.5 -42t-41.5 -16v-6h295zM319 -109l-56 -76q-11 -16 -26 -16q-13 0 -21.5 9t-8.5 21q0 5 1 9
l20 87q11 44 54 44q48 0 48 -48q0 -14 -11 -30z" />
    <glyph glyph-name="uni013C" unicode="&#x13c;" horiz-adv-x="237" 
d="M119 703q26 0 42 -16.5t16 -41.5v-3q0 -21 -19.5 -36t-40.5 -15v-5h60v-524q0 -27 -16 -44.5t-42 -17.5q-27 0 -43 17.5t-16 44.5v579q0 27 16 44.5t43 17.5zM162 -109l-56 -76q-11 -16 -26 -16q-13 0 -21.5 9t-8.5 21q0 5 1 9l20 87q11 44 54 44q48 0 48 -48
q0 -14 -11 -30z" />
    <glyph glyph-name="Lcaron" unicode="&#x13d;" horiz-adv-x="512" 
d="M394 629l-40 -105q-12 -25 -38 -25q-17 0 -27 12.5t-9 30.5l4 108q3 61 61 61q33 0 47.5 -24.5t1.5 -57.5zM420 113q27 0 43.5 -15.5t16.5 -40.5q0 -26 -16.5 -41.5t-43.5 -15.5h-295q-26 0 -42.5 17.5t-16.5 45.5v527q0 28 16.5 45.5t43.5 17.5t43.5 -18t16.5 -45v-413
q0 -26 -19.5 -42t-41.5 -16v-6h295z" />
    <glyph glyph-name="lcaron" unicode="&#x13e;" horiz-adv-x="354" 
d="M119 703q26 0 42 -16.5t16 -41.5v-3q0 -21 -19.5 -36t-40.5 -15v-5h60v-524q0 -27 -16 -44.5t-42 -17.5q-27 0 -43 17.5t-16 44.5v579q0 27 16 44.5t43 17.5zM348 610l-40 -104q-11 -26 -38 -26q-17 0 -27 12.5t-9 30.5l4 109q1 29 18 45t43 16q33 0 47.5 -24.5
t1.5 -58.5z" />
    <glyph glyph-name="Ldot" unicode="&#x13f;" horiz-adv-x="512" 
d="M420 113q27 0 43.5 -15.5t16.5 -40.5q0 -26 -16.5 -41.5t-43.5 -15.5h-295q-26 0 -42.5 17.5t-16.5 45.5v527q0 28 16.5 45.5t43.5 17.5t43.5 -18t16.5 -45v-413q0 -26 -19.5 -42t-41.5 -16v-6h295zM328 280q-29 0 -50 21t-21 50t21 50t50 21t50 -21t21 -50t-21 -50
t-50 -21z" />
    <glyph glyph-name="ldot" unicode="&#x140;" horiz-adv-x="434" 
d="M119 703q26 0 42 -16.5t16 -41.5v-3q0 -21 -19.5 -36t-40.5 -15v-5h60v-524q0 -27 -16 -44.5t-42 -17.5q-27 0 -43 17.5t-16 44.5v579q0 27 16 44.5t43 17.5zM324 277q-29 0 -49.5 21t-20.5 50t20.5 49.5t49.5 20.5q30 0 50.5 -20.5t20.5 -49.5t-20.5 -50t-50.5 -21z" />
    <glyph glyph-name="Lslash" unicode="&#x141;" horiz-adv-x="572" 
d="M480 113q27 0 43.5 -15.5t16.5 -40.5q0 -26 -16.5 -41.5t-43.5 -15.5h-295q-26 0 -42.5 17.5t-16.5 45.5v172l-13 -11q-17 -14 -37 -13t-33 18q-14 17 -11.5 37t20.5 34l74 61v229q0 28 16.5 45.5t43.5 17.5t43.5 -18t16.5 -45v-129l37 31q17 15 37.5 14.5t33.5 -17.5
q14 -18 11.5 -37.5t-20.5 -34.5l-119 -100v-5q20 -16 20 -42v-93q0 -26 -19.5 -42t-42.5 -16v-6h296z" />
    <glyph glyph-name="lslash" unicode="&#x142;" horiz-adv-x="299" 
d="M282 480q15 -18 12.5 -39.5t-21.5 -37.5l-90 -75v-5q24 -9 24 -39v-222q0 -27 -16 -44.5t-43 -17.5q-26 0 -42.5 17.5t-16.5 44.5v188h-1q-19 -14 -38.5 -11.5t-32.5 19.5q-15 18 -12.5 39t21.5 37l63 54v253q0 27 16.5 44.5t42.5 17.5q27 0 43 -17.5t16 -44.5v-156l1 1
q19 15 40 13.5t34 -19.5z" />
    <glyph glyph-name="Nacute" unicode="&#x143;" horiz-adv-x="669" 
d="M342 870q40 34 74 -5q33 -39 -9 -74l-77 -65q-19 -17 -39.5 -16t-36.5 20q-16 18 -13 38t23 36zM543 653q27 0 43.5 -17.5t16.5 -45.5v-527q0 -28 -16.5 -45.5t-43.5 -17.5q-30 0 -47 20l-354 460l-4 -5q48 -74 48 -117v-295q0 -27 -16.5 -45t-43.5 -18t-43.5 17.5
t-16.5 45.5v527q0 28 16.5 45.5t43.5 17.5q28 0 52 -29l349 -455l4 5q-48 74 -48 118v298q0 27 16.5 45t43.5 18z" />
    <glyph glyph-name="nacute" unicode="&#x144;" horiz-adv-x="573" 
d="M294 717q40 34 74 -5q33 -39 -9 -74l-77 -65q-19 -17 -39.5 -16t-36.5 20q-16 18 -13 38t23 36zM320 508q85 0 141 -50t56 -154v-242q0 -27 -16 -44.5t-43 -17.5t-43 17.5t-16 44.5v229q0 64 -27 86t-75 22q-69 0 -119.5 -36t-61.5 -107h5q13 58 56 72q-3 -8 -3 -16v-250
q0 -27 -16 -44.5t-43 -17.5t-43 17.5t-16 44.5v376q0 27 16 44.5t43 17.5q25 0 40 -15t17 -40v-1h6q58 64 142 64z" />
    <glyph glyph-name="uni0145" unicode="&#x145;" horiz-adv-x="669" 
d="M543 653q27 0 43.5 -17.5t16.5 -45.5v-527q0 -28 -16.5 -45.5t-43.5 -17.5q-30 0 -47 20l-354 460l-4 -5q48 -74 48 -117v-295q0 -27 -16.5 -45t-43.5 -18t-43.5 17.5t-16.5 45.5v527q0 28 16.5 45.5t43.5 17.5q28 0 52 -29l349 -455l4 5q-48 74 -48 118v298
q0 27 16.5 45t43.5 18zM390 -109l-56 -76q-11 -16 -26 -16q-13 0 -21.5 9t-8.5 21q0 5 1 9l20 87q11 44 54 44q48 0 48 -48q0 -14 -11 -30z" />
    <glyph glyph-name="uni0146" unicode="&#x146;" horiz-adv-x="573" 
d="M320 508q85 0 141 -50t56 -154v-242q0 -27 -16 -44.5t-43 -17.5t-43 17.5t-16 44.5v229q0 64 -27 86t-75 22q-69 0 -119.5 -36t-61.5 -107h5q13 58 56 72q-3 -8 -3 -16v-250q0 -27 -16 -44.5t-43 -17.5t-43 17.5t-16 44.5v376q0 27 16 44.5t43 17.5q25 0 40 -15t17 -40
v-1h6q58 64 142 64zM342 -109l-56 -76q-11 -16 -26 -16q-13 0 -21.5 9t-8.5 21q0 5 1 9l20 87q11 44 54 44q48 0 48 -48q0 -14 -11 -30z" />
    <glyph glyph-name="Ncaron" unicode="&#x147;" horiz-adv-x="669" 
d="M458 865q33 -39 -9 -74l-77 -65q-17 -16 -37 -16q-21 0 -38 16l-77 65q-42 35 -9 74q17 19 37 20t37 -15l50 -52l49 52q16 17 36.5 15.5t37.5 -20.5zM543 653q27 0 43.5 -17.5t16.5 -45.5v-527q0 -28 -16.5 -45.5t-43.5 -17.5q-30 0 -47 20l-354 460l-4 -5
q48 -74 48 -117v-295q0 -27 -16.5 -45t-43.5 -18t-43.5 17.5t-16.5 45.5v527q0 28 16.5 45.5t43.5 17.5q28 0 52 -29l349 -455l4 5q-48 74 -48 118v298q0 27 16.5 45t43.5 18z" />
    <glyph glyph-name="ncaron" unicode="&#x148;" horiz-adv-x="573" 
d="M410 712q33 -39 -9 -74l-77 -65q-17 -16 -37 -16q-21 0 -38 16l-77 65q-42 35 -9 74q17 19 37 20t37 -15l50 -52l49 52q16 17 36.5 15.5t37.5 -20.5zM320 508q85 0 141 -50t56 -154v-242q0 -27 -16 -44.5t-43 -17.5t-43 17.5t-16 44.5v229q0 64 -27 86t-75 22
q-69 0 -119.5 -36t-61.5 -107h5q13 58 56 72q-3 -8 -3 -16v-250q0 -27 -16 -44.5t-43 -17.5t-43 17.5t-16 44.5v376q0 27 16 44.5t43 17.5q25 0 40 -15t17 -40v-1h6q58 64 142 64z" />
    <glyph glyph-name="Eng" unicode="&#x14a;" horiz-adv-x="669" 
d="M543 653q27 0 43.5 -17.5t16.5 -45.5v-535q-3 -81 -44.5 -129t-102.5 -69q-27 -10 -49.5 -0.5t-29.5 34.5q-15 44 36 69q44 23 56 51.5t-10 57.5l-317 411l-4 -5q48 -74 48 -117v-295q0 -27 -16.5 -45t-43.5 -18t-43.5 17.5t-16.5 45.5v527q0 28 16.5 45.5t43.5 17.5
q29 0 52 -29l349 -455l4 5q-48 74 -48 118v298q0 27 16.5 45t43.5 18z" />
    <glyph glyph-name="eng" unicode="&#x14b;" horiz-adv-x="573" 
d="M320 509q85 0 141 -50t56 -155v-256q0 -70 -43.5 -121t-103.5 -72q-26 -8 -47.5 0.5t-28.5 32.5q-14 45 35 70q70 34 70 123v210q0 64 -27 86t-75 22q-69 0 -119.5 -36t-61.5 -107h5q13 58 56 72q-3 -8 -3 -16v-250q0 -27 -16 -44.5t-43 -17.5t-43 17.5t-16 44.5v377
q0 27 16 44.5t43 17.5q24 0 40 -15t17 -40v-1h6q55 64 142 64z" />
    <glyph glyph-name="Omacron" unicode="&#x14c;" horiz-adv-x="764" 
d="M524 756q0 -22 -14 -35t-37 -13h-182q-23 0 -37 13t-14 35t14 35t37 13h182q23 0 37 -13t14 -35zM382 -8q-147 0 -241 94t-94 239q0 146 94 241t241 95t241 -95t94 -241q0 -145 -94 -239t-241 -94zM382 106q96 0 154.5 61.5t58.5 157.5q0 98 -62.5 160t-172.5 62
q-66 0 -124.5 -21t-80.5 -58l5 -3q14 22 39 31.5t49 5.5q-79 -62 -79 -177q0 -96 58.5 -157.5t154.5 -61.5z" />
    <glyph glyph-name="omacron" unicode="&#x14d;" horiz-adv-x="597" 
d="M440 603q0 -22 -14 -35t-37 -13h-182q-23 0 -37 13t-14 35t14 35t37 13h182q23 0 37 -13t14 -35zM298 -8q-114 0 -187.5 73.5t-73.5 184.5q0 112 73.5 185t187.5 73t187.5 -73t73.5 -185q0 -111 -73.5 -184.5t-187.5 -73.5zM298 102q65 0 104 42t39 106q0 66 -42.5 107.5
t-120.5 41.5q-51 0 -97.5 -17t-66.5 -53l5 -3q14 21 37.5 30.5t45.5 6.5q-47 -41 -47 -113q0 -64 39.5 -106t103.5 -42z" />
    <glyph glyph-name="Obreve" unicode="&#x14e;" horiz-adv-x="764" 
d="M514 874q43 -22 12 -83q-43 -81 -144 -81q-102 0 -145 81q-31 61 12 83q43 25 72 -21q11 -18 16 -24.5t17.5 -15t27.5 -8.5t27 8t17.5 15.5t15.5 24.5q29 46 72 21zM382 -8q-147 0 -241 94t-94 239q0 146 94 241t241 95t241 -95t94 -241q0 -145 -94 -239t-241 -94z
M382 106q96 0 154.5 61.5t58.5 157.5q0 98 -62.5 160t-172.5 62q-66 0 -124.5 -21t-80.5 -58l5 -3q14 22 39 31.5t49 5.5q-79 -62 -79 -177q0 -96 58.5 -157.5t154.5 -61.5z" />
    <glyph glyph-name="obreve" unicode="&#x14f;" horiz-adv-x="597" 
d="M430 721q43 -22 12 -83q-43 -81 -144 -81q-102 0 -145 81q-31 61 12 83q43 25 72 -21q11 -18 16 -24.5t17.5 -15t27.5 -8.5t27 8t17.5 15.5t15.5 24.5q29 46 72 21zM298 -8q-114 0 -187.5 73.5t-73.5 184.5q0 112 73.5 185t187.5 73t187.5 -73t73.5 -185
q0 -111 -73.5 -184.5t-187.5 -73.5zM298 102q65 0 104 42t39 106q0 66 -42.5 107.5t-120.5 41.5q-51 0 -97.5 -17t-66.5 -53l5 -3q14 21 37.5 30.5t45.5 6.5q-47 -41 -47 -113q0 -64 39.5 -106t103.5 -42z" />
    <glyph glyph-name="Ohungarumlaut" unicode="&#x150;" horiz-adv-x="764" 
d="M495 870q33 38 68 7q34 -28 2 -69l-72 -83q-30 -37 -69 -6q-16 13 -16 31.5t14 35.5zM313 870q30 37 68 7q34 -29 2 -69l-72 -83q-32 -39 -69 -6q-16 14 -16.5 32t14.5 35zM382 -8q-147 0 -241 94t-94 239q0 146 94 241t241 95t241 -95t94 -241q0 -145 -94 -239t-241 -94
zM382 106q96 0 154.5 61.5t58.5 157.5q0 98 -62.5 160t-172.5 62q-66 0 -124.5 -21t-80.5 -58l5 -3q14 22 39 31.5t49 5.5q-79 -62 -79 -177q0 -96 58.5 -157.5t154.5 -61.5z" />
    <glyph glyph-name="ohungarumlaut" unicode="&#x151;" horiz-adv-x="597" 
d="M411 717q33 38 68 7q34 -28 2 -69l-72 -83q-30 -37 -69 -6q-16 13 -16 31.5t14 35.5zM229 717q30 37 68 7q34 -29 2 -69l-72 -83q-32 -39 -69 -6q-16 14 -16.5 32t14.5 35zM298 -8q-114 0 -187.5 73.5t-73.5 184.5q0 112 73.5 185t187.5 73t187.5 -73t73.5 -185
q0 -111 -73.5 -184.5t-187.5 -73.5zM298 102q65 0 104 42t39 106q0 66 -42.5 107.5t-120.5 41.5q-51 0 -97.5 -17t-66.5 -53l5 -3q14 21 37.5 30.5t45.5 6.5q-47 -41 -47 -113q0 -64 39.5 -106t103.5 -42z" />
    <glyph glyph-name="OE" unicode="&#x152;" horiz-adv-x="1057" 
d="M955 113q27 0 43.5 -15.5t16.5 -40.5q0 -26 -16.5 -41.5t-43.5 -15.5h-296q-27 0 -43.5 17.5t-16.5 45.5v2q-90 -73 -217 -73q-147 0 -241 94t-94 239q0 146 94 241t241 95q125 0 217 -74v3q0 28 16.5 45.5t43.5 17.5h291q27 0 43.5 -15.5t16.5 -41.5q0 -25 -16.5 -40.5
t-43.5 -15.5h-292v-6q21 0 39 -15.5t18 -40.5v-89h189q27 0 44 -15.5t17 -39.5q0 -25 -17.5 -40.5t-43.5 -15.5h-246v-5q21 0 39 -16t18 -41v-103h240zM382 106q96 0 154.5 61.5t58.5 157.5q0 98 -62.5 160t-172.5 62q-66 0 -124.5 -21t-80.5 -58l5 -3q14 22 39 31.5t49 5.5
q-79 -62 -79 -177q0 -96 58.5 -157.5t154.5 -61.5z" />
    <glyph glyph-name="oe" unicode="&#x153;" horiz-adv-x="958" 
d="M926 287q0 -37 -22 -61.5t-59 -24.5h-307l1 -5q24 0 42 -31q39 -67 121 -67q46 0 106 27q53 22 77 -21q25 -45 -24 -75q-65 -37 -155 -37q-133 0 -207 89q-74 -89 -201 -89q-114 0 -187.5 73.5t-73.5 184.5q0 112 73.5 185t187.5 73q128 0 201 -89q72 89 194 89
q100 0 166.5 -61.5t66.5 -159.5zM565 299h248q-1 42 -38.5 74t-97.5 32q-45 0 -92 -17.5t-67 -52.5l5 -3q14 21 37.5 30.5t44.5 7.5q-28 -28 -40 -71zM298 102q65 0 104 42t39 106t-44.5 106.5t-118.5 42.5q-51 0 -97.5 -17t-66.5 -53l5 -3q14 21 37.5 30.5t45.5 6.5
q-47 -42 -47 -113q0 -64 39 -106t104 -42z" />
    <glyph glyph-name="Racute" unicode="&#x154;" horiz-adv-x="617" 
d="M307 870q40 34 74 -5q33 -39 -9 -74l-77 -65q-19 -17 -39.5 -16t-36.5 20q-16 18 -13 38t23 36zM557 95q14 -22 10 -45.5t-24 -38.5q-21 -15 -44.5 -10.5t-39.5 26.5l-77 112q-1 1 -7 10t-8.5 12.5t-9 12t-11 13l-11.5 11.5t-13 10.5t-14 8t-16 6t-17 1.5h-150v-5
q22 0 41.5 -16.5t19.5 -41.5v-98q0 -27 -16.5 -45t-43.5 -18t-43.5 17.5t-16.5 45.5v527q0 28 16.5 45.5t43.5 17.5h198q111 0 167.5 -61t56.5 -149q0 -57 -28.5 -108.5t-82.5 -82.5q30 -25 48 -53zM316 329q18 0 37.5 2.5t44 9t44 21.5t28.5 36l-5 3q-10 -20 -29 -28.5
t-32 -8.5q26 27 26 73q0 43 -28 73.5t-92 30.5h-185v-6q22 0 41.5 -16t19.5 -42v-148h130z" />
    <glyph glyph-name="racute" unicode="&#x155;" horiz-adv-x="410" 
d="M213 717q40 34 74 -5q33 -39 -9 -74l-77 -65q-19 -17 -39.5 -16t-36.5 20q-16 18 -13 38t23 36zM342 505q56 -11 48 -67q-5 -26 -23 -37.5t-45 -6.5q-16 2 -26 2q-54 1 -88 -49.5t-34 -152.5v-132q0 -27 -16 -44.5t-43 -17.5t-43 17.5t-16 44.5v377q0 27 16 44.5t43 17.5
q25 0 40.5 -16t16.5 -42v-60l5 3q7 64 46.5 93.5t84.5 29.5q16 0 34 -4z" />
    <glyph glyph-name="uni0156" unicode="&#x156;" horiz-adv-x="617" 
d="M557 95q14 -22 10 -45.5t-24 -38.5q-21 -15 -44.5 -10.5t-39.5 26.5l-77 112q-1 1 -7 10t-8.5 12.5t-9 12t-11 13l-11.5 11.5t-13 10.5t-14 8t-16 6t-17 1.5h-150v-5q22 0 41.5 -16.5t19.5 -41.5v-98q0 -27 -16.5 -45t-43.5 -18t-43.5 17.5t-16.5 45.5v527
q0 28 16.5 45.5t43.5 17.5h198q111 0 167.5 -61t56.5 -149q0 -57 -28.5 -108.5t-82.5 -82.5q30 -25 48 -53zM316 329q18 0 37.5 2.5t44 9t44 21.5t28.5 36l-5 3q-10 -20 -29 -28.5t-32 -8.5q26 27 26 73q0 43 -28 73.5t-92 30.5h-185v-6q22 0 41.5 -16t19.5 -42v-148h130z
M355 -109l-56 -76q-11 -16 -26 -16q-13 0 -21.5 9t-8.5 21q0 5 1 9l20 87q11 44 54 44q48 0 48 -48q0 -14 -11 -30z" />
    <glyph glyph-name="uni0157" unicode="&#x157;" horiz-adv-x="410" 
d="M342 505q56 -11 48 -67q-5 -26 -23 -37.5t-45 -6.5q-16 2 -26 2q-54 1 -88 -49.5t-34 -152.5v-132q0 -27 -16 -44.5t-43 -17.5t-43 17.5t-16 44.5v377q0 27 16 44.5t43 17.5q25 0 40.5 -16t16.5 -42v-60l5 3q7 64 46.5 93.5t84.5 29.5q16 0 34 -4zM173 -109l-56 -76
q-11 -16 -26 -16q-13 0 -21.5 9t-8.5 21q0 5 1 9l20 87q11 44 54 44q48 0 48 -48q0 -14 -11 -30z" />
    <glyph glyph-name="Rcaron" unicode="&#x158;" horiz-adv-x="617" 
d="M423 865q33 -39 -9 -74l-77 -65q-17 -16 -37 -16q-21 0 -38 16l-77 65q-42 35 -9 74q17 19 37 20t37 -15l50 -52l49 52q16 17 36.5 15.5t37.5 -20.5zM557 95q14 -22 10 -45.5t-24 -38.5q-21 -15 -44.5 -10.5t-39.5 26.5l-77 112q-1 1 -7 10t-8.5 12.5t-9 12t-11 13
l-11.5 11.5t-13 10.5t-14 8t-16 6t-17 1.5h-150v-5q22 0 41.5 -16.5t19.5 -41.5v-98q0 -27 -16.5 -45t-43.5 -18t-43.5 17.5t-16.5 45.5v527q0 28 16.5 45.5t43.5 17.5h198q111 0 167.5 -61t56.5 -149q0 -57 -28.5 -108.5t-82.5 -82.5q30 -25 48 -53zM316 329q18 0 37.5 2.5
t44 9t44 21.5t28.5 36l-5 3q-10 -20 -29 -28.5t-32 -8.5q26 27 26 73q0 43 -28 73.5t-92 30.5h-185v-6q22 0 41.5 -16t19.5 -42v-148h130z" />
    <glyph glyph-name="rcaron" unicode="&#x159;" horiz-adv-x="410" 
d="M329 712q33 -39 -9 -74l-77 -65q-17 -16 -37 -16q-21 0 -38 16l-77 65q-42 35 -9 74q17 19 37 20t37 -15l50 -52l49 52q16 17 36.5 15.5t37.5 -20.5zM342 505q56 -11 48 -67q-5 -26 -23 -37.5t-45 -6.5q-16 2 -26 2q-54 1 -88 -49.5t-34 -152.5v-132q0 -27 -16 -44.5
t-43 -17.5t-43 17.5t-16 44.5v377q0 27 16 44.5t43 17.5q25 0 40.5 -16t16.5 -42v-60l5 3q7 64 46.5 93.5t84.5 29.5q16 0 34 -4z" />
    <glyph glyph-name="Sacute" unicode="&#x15a;" horiz-adv-x="571" 
d="M295 870q40 34 74 -5q33 -39 -9 -74l-77 -65q-19 -17 -39.5 -16t-36.5 20q-16 18 -13 38t23 36zM283 661q65 0 119 -24t82 -56q39 -43 -1 -84q-41 -41 -81 -4l-6 6q-6 6 -10.5 10t-13.5 10.5t-19.5 11.5t-24 9.5t-30 7t-35.5 2.5q-96 0 -126 -44l5 -3q19 25 57 19
q-19 -17 -19 -42q0 -33 32 -50.5t111 -40.5q41 -11 70 -23t64 -34t54 -57t19 -81q0 -85 -64.5 -143.5t-172.5 -58.5q-81 0 -142.5 31t-91.5 66q-37 45 1 85q16 16 31 19.5t26.5 -1.5t26.5 -17q2 -2 12.5 -11t16 -13.5t17 -13t21.5 -13t24 -10t29.5 -8t32.5 -2.5q54 0 84 25
t31 58q0 5 -2 15q38 -9 47 -37h6q-6 27 -41.5 51t-71 36.5t-92.5 30.5q-12 3 -17 5q-86 25 -131.5 64t-45.5 114q0 87 61.5 141t157.5 54z" />
    <glyph glyph-name="sacute" unicode="&#x15b;" horiz-adv-x="476" 
d="M245 717q40 34 74 -5q33 -39 -9 -74l-77 -65q-19 -17 -39.5 -16t-36.5 20q-16 18 -13 38t23 36zM245 508q108 0 162 -58q35 -35 0 -74q-25 -21 -39.5 -20.5t-33.5 14.5q-52 38 -105 38q-87 0 -113 -40l4 -3q16 21 52 19q-5 -10 -4 -20q1 -23 22.5 -34.5t75.5 -24.5
q35 -8 54 -14t46 -18.5t41 -27t24.5 -39.5t10.5 -57q0 -78 -52.5 -117.5t-142.5 -39.5q-67 0 -118.5 20t-77.5 51q-36 43 2 79q36 35 73 2q55 -51 124 -51q36 0 56.5 11t21.5 29q0 7 -2 13q13 -2 26 -10.5t17 -21.5l5 -1q-2 17 -15.5 31t-39 25.5t-48.5 19.5t-59 18
q-40 11 -61 19t-47 24t-37.5 40.5t-11.5 60.5q0 78 54 117.5t136 39.5z" />
    <glyph glyph-name="Scedilla" unicode="&#x15e;" horiz-adv-x="571" 
d="M530 194q0 -76 -52.5 -132t-142.5 -67l-10 -22q73 -23 73 -85q0 -41 -28 -63.5t-70 -22.5q-36 0 -68 18q-25 16 -18 38q10 25 38 18q39 -12 50 -12q29 0 29 21q0 32 -73 48q-12 3 -8 15l20 45q-73 5 -128.5 34.5t-82.5 61.5q-37 45 1 85q16 16 31 19.5t26.5 -1.5
t26.5 -17q2 -2 12.5 -11t16 -13.5t17 -13t21.5 -13t24 -10t29.5 -8t32.5 -2.5q54 0 84 25t31 58q0 5 -2 15q38 -9 47 -37h6q-6 27 -41.5 51t-71 36.5t-92.5 30.5q-12 3 -17 5q-86 25 -131.5 64t-45.5 114q0 87 61.5 141t157.5 54q65 0 119 -24t82 -56q39 -43 -1 -84
q-41 -41 -81 -4l-6 6q-6 6 -10.5 10t-13.5 10.5t-19.5 11.5t-24 9.5t-30 7t-35.5 2.5q-96 0 -126 -44l5 -3q19 25 57 19q-19 -17 -19 -42q0 -33 32 -50.5t111 -40.5q41 -11 70 -23t64 -34t54 -57t19 -81z" />
    <glyph glyph-name="scedilla" unicode="&#x15f;" horiz-adv-x="476" 
d="M442 149q0 -74 -47 -113t-128 -43l-9 -20q73 -23 73 -85q0 -41 -28 -63.5t-70 -22.5q-37 0 -68 18q-25 16 -18 38q10 25 38 18q39 -12 50 -12q29 0 29 21q0 32 -73 48q-12 3 -8 15l21 46q-106 13 -153 69q-36 43 2 79q36 35 73 2q55 -51 124 -51q36 0 56.5 11t21.5 29
q0 7 -2 13q13 -2 26 -10.5t17 -21.5l5 -1q-2 17 -15.5 31t-39 25.5t-48.5 19.5t-59 18q-40 11 -61 19t-47 24t-37.5 40.5t-11.5 60.5q0 78 54 117.5t136 39.5q108 0 162 -58q35 -35 0 -74q-25 -21 -39.5 -20.5t-33.5 14.5q-52 38 -105 38q-87 0 -113 -40l4 -3q16 21 52 19
q-5 -10 -4 -20q1 -23 22.5 -34.5t75.5 -24.5q35 -8 54 -14t46 -18.5t41 -27t24.5 -39.5t10.5 -57z" />
    <glyph glyph-name="Scaron" unicode="&#x160;" horiz-adv-x="571" 
d="M411 865q33 -39 -9 -74l-77 -65q-17 -16 -37 -16q-21 0 -38 16l-77 65q-42 35 -9 74q17 19 37 20t37 -15l50 -52l49 52q16 17 36.5 15.5t37.5 -20.5zM283 661q65 0 119 -24t82 -56q39 -43 -1 -84q-41 -41 -81 -4l-6 6q-6 6 -10.5 10t-13.5 10.5t-19.5 11.5t-24 9.5t-30 7
t-35.5 2.5q-96 0 -126 -44l5 -3q19 25 57 19q-19 -17 -19 -42q0 -33 32 -50.5t111 -40.5q41 -11 70 -23t64 -34t54 -57t19 -81q0 -85 -64.5 -143.5t-172.5 -58.5q-81 0 -142.5 31t-91.5 66q-37 45 1 85q16 16 31 19.5t26.5 -1.5t26.5 -17q2 -2 12.5 -11t16 -13.5t17 -13
t21.5 -13t24 -10t29.5 -8t32.5 -2.5q54 0 84 25t31 58q0 5 -2 15q38 -9 47 -37h6q-6 27 -41.5 51t-71 36.5t-92.5 30.5q-12 3 -17 5q-86 25 -131.5 64t-45.5 114q0 87 61.5 141t157.5 54z" />
    <glyph glyph-name="scaron" unicode="&#x161;" horiz-adv-x="476" 
d="M361 712q33 -39 -9 -74l-77 -65q-17 -16 -37 -16q-21 0 -38 16l-77 65q-42 35 -9 74q17 19 37 20t37 -15l50 -52l49 52q16 17 36.5 15.5t37.5 -20.5zM245 508q108 0 162 -58q35 -35 0 -74q-25 -21 -39.5 -20.5t-33.5 14.5q-52 38 -105 38q-87 0 -113 -40l4 -3
q16 21 52 19q-5 -10 -4 -20q1 -23 22.5 -34.5t75.5 -24.5q35 -8 54 -14t46 -18.5t41 -27t24.5 -39.5t10.5 -57q0 -78 -52.5 -117.5t-142.5 -39.5q-67 0 -118.5 20t-77.5 51q-36 43 2 79q36 35 73 2q55 -51 124 -51q36 0 56.5 11t21.5 29q0 7 -2 13q13 -2 26 -10.5t17 -21.5
l5 -1q-2 17 -15.5 31t-39 25.5t-48.5 19.5t-59 18q-40 11 -61 19t-47 24t-37.5 40.5t-11.5 60.5q0 78 54 117.5t136 39.5z" />
    <glyph glyph-name="uni0162" unicode="&#x162;" horiz-adv-x="572" 
d="M484 653q27 0 43.5 -15.5t16.5 -41.5q0 -25 -16.5 -40.5t-43.5 -15.5h-199v-6q22 0 41.5 -16t19.5 -41v-414q0 -38 -28 -54l-16 -36q73 -23 73 -85q0 -41 -28 -63.5t-70 -22.5q-37 0 -68 18q-25 16 -18 38q10 25 38 18q39 -12 50 -12q29 0 29 21q0 32 -73 48q-12 3 -8 15
l27 60q-28 18 -28 55v477h-138q-26 0 -43 15.5t-17 40.5t17 41t43 16h396z" />
    <glyph glyph-name="uni0163" unicode="&#x163;" horiz-adv-x="431" 
d="M330 110q26 0 41.5 -14.5t15.5 -40.5t-15.5 -40.5t-41.5 -14.5h-20h-12l-13 -27q73 -23 73 -85q0 -41 -28 -63.5t-70 -22.5q-36 0 -68 18q-25 16 -18 38q10 25 38 18q39 -12 50 -12q29 0 29 21q0 32 -73 48q-12 3 -8 15l28 61q-116 32 -116 191v192h-30q-27 0 -43.5 14.5
t-16.5 39.5t16.5 39.5t43.5 14.5h30v93q0 27 16 44.5t43 17.5q26 0 42 -17.5t16 -44.5v-93h87q27 0 44 -14.5t17 -39.5t-17 -39.5t-44 -14.5h-148v-5q22 0 41.5 -16.5t19.5 -42.5v-111q0 -56 16.5 -81.5t57.5 -25.5h17z" />
    <glyph glyph-name="Tcaron" unicode="&#x164;" horiz-adv-x="572" 
d="M409 865q33 -39 -9 -74l-77 -65q-17 -16 -37 -16q-21 0 -38 16l-77 65q-42 35 -9 74q17 19 37 20t37 -15l50 -52l49 52q16 17 36.5 15.5t37.5 -20.5zM484 653q27 0 43.5 -15.5t16.5 -41.5q0 -25 -16.5 -40.5t-43.5 -15.5h-199v-6q22 0 41.5 -16t19.5 -41v-414
q0 -28 -16.5 -45.5t-43.5 -17.5t-43.5 18t-16.5 45v477h-138q-26 0 -43 15.5t-17 40.5t17 41t43 16h396z" />
    <glyph glyph-name="tcaron" unicode="&#x165;" horiz-adv-x="433" 
d="M400 688l-40 -105q-11 -25 -38 -25q-17 0 -27 12.5t-9 30.5l4 108q1 30 18 45.5t43 15.5q33 0 47.5 -24t1.5 -58zM330 110q26 0 41.5 -14.5t15.5 -40.5t-15.5 -40.5t-41.5 -14.5h-20q-188 0 -188 200v192h-30q-27 0 -43.5 14.5t-16.5 39.5t16.5 39.5t43.5 14.5h30v93
q0 27 16 44.5t43 17.5q26 0 42 -17.5t16 -44.5v-93h87q27 0 44 -14.5t17 -39.5t-17 -39.5t-44 -14.5h-148v-5q22 0 41.5 -16.5t19.5 -42.5v-111q0 -56 16.5 -81.5t57.5 -25.5h17z" />
    <glyph glyph-name="Tbar" unicode="&#x166;" horiz-adv-x="572" 
d="M484 653q27 0 43.5 -15.5t16.5 -41.5q0 -25 -16.5 -40.5t-43.5 -15.5h-199v-6q22 0 41.5 -16t19.5 -41v-105h50q24 0 39.5 -14t15.5 -37t-15.5 -37t-39.5 -14h-111v-6q22 0 41.5 -16t19.5 -42v-143q0 -28 -16.5 -45.5t-43.5 -17.5t-43.5 18t-16.5 45v207h-50
q-24 0 -39 14t-15 37t15 37t39 14h50v168h-138q-26 0 -43 15.5t-17 40.5t17 41t43 16h396z" />
    <glyph glyph-name="tbar" unicode="&#x167;" horiz-adv-x="431" 
d="M334 223h-152v-6q19 0 37 -13.5t24 -34.5q3 -3 3 -6q12 -53 67 -53h17q26 0 41.5 -14.5t15.5 -40.5t-15.5 -40.5t-41.5 -14.5h-20q-188 0 -188 200v23h-37q-24 0 -38.5 13.5t-14.5 36.5t14.5 36.5t38.5 13.5h37v77h-37q-24 0 -38.5 13.5t-14.5 36.5t14.5 36.5t38.5 13.5
h37v93q0 27 16 44.5t43 17.5q26 0 42 -17.5t16 -44.5v-93h95q24 0 38.5 -13.5t14.5 -36.5t-14.5 -36.5t-38.5 -13.5h-152v-5q20 0 38 -14.5t19 -36.5v-21h95q24 0 38.5 -13.5t14.5 -36.5t-14.5 -36.5t-38.5 -13.5z" />
    <glyph glyph-name="Utilde" unicode="&#x168;" horiz-adv-x="653" 
d="M450 794q21 -34 -17 -69q-24 -23 -47.5 -24t-62.5 18q-26 9 -31.5 8t-22.5 -13q-18 -12 -37 -7.5t-30 23.5q-18 31 16 67q44 44 108 10q26 -12 31.5 -12t22.5 12q21 14 39.5 10t30.5 -23zM531 653q27 0 43.5 -17.5t16.5 -45.5v-338q0 -129 -74 -194t-191 -66
q-116 -1 -190 64.5t-74 195.5v338q0 28 16.5 45.5t43.5 17.5t43.5 -17.5t16.5 -45.5v-328q0 -139 48 -190l1 5q-9 16 -6 25.5t9 14t11 4.5q36 -18 81 -18q145 0 145 159v328q0 28 16.5 45.5t43.5 17.5z" />
    <glyph glyph-name="utilde" unicode="&#x169;" horiz-adv-x="582" 
d="M414 641q21 -34 -17 -69q-24 -23 -47.5 -24t-62.5 18q-26 9 -31.5 8t-22.5 -13q-18 -12 -37 -7.5t-30 23.5q-18 31 16 67q44 44 108 10q26 -12 31.5 -12t22.5 12q21 14 39.5 10t30.5 -23zM467 500q27 0 43 -17t16 -44v-378q0 -27 -16 -44t-42 -17q-25 0 -40.5 16
t-16.5 40v1h-6q-14 -23 -52.5 -44t-89.5 -21q-41 0 -76.5 11.5t-65.5 36t-47.5 69.5t-17.5 106v224q0 27 16 44t43 17t43 -17t16 -44v-213q0 -116 44 -158l1 5q-10 16 -4.5 27.5t16.5 11.5q22 -10 62 -10q55 1 85.5 25.5t30.5 53.5v258q0 27 16 44t42 17z" />
    <glyph glyph-name="Umacron" unicode="&#x16a;" horiz-adv-x="653" 
d="M468 756q0 -22 -14 -35t-37 -13h-182q-23 0 -37 13t-14 35t14 35t37 13h182q23 0 37 -13t14 -35zM531 653q27 0 43.5 -17.5t16.5 -45.5v-338q0 -129 -74 -194t-191 -66q-116 -1 -190 64.5t-74 195.5v338q0 28 16.5 45.5t43.5 17.5t43.5 -17.5t16.5 -45.5v-328
q0 -139 48 -190l1 5q-9 16 -6 25.5t9 14t11 4.5q36 -18 81 -18q145 0 145 159v328q0 28 16.5 45.5t43.5 17.5z" />
    <glyph glyph-name="umacron" unicode="&#x16b;" horiz-adv-x="582" 
d="M432 603q0 -22 -14 -35t-37 -13h-182q-23 0 -37 13t-14 35t14 35t37 13h182q23 0 37 -13t14 -35zM467 500q27 0 43 -17t16 -44v-378q0 -27 -16 -44t-42 -17q-25 0 -40.5 16t-16.5 40v1h-6q-14 -23 -52.5 -44t-89.5 -21q-41 0 -76.5 11.5t-65.5 36t-47.5 69.5t-17.5 106
v224q0 27 16 44t43 17t43 -17t16 -44v-213q0 -116 44 -158l1 5q-10 16 -4.5 27.5t16.5 11.5q22 -10 62 -10q55 1 85.5 25.5t30.5 53.5v258q0 27 16 44t42 17z" />
    <glyph glyph-name="Ubreve" unicode="&#x16c;" horiz-adv-x="653" 
d="M458 874q43 -22 12 -83q-43 -81 -144 -81q-102 0 -145 81q-31 61 12 83q43 25 72 -21q11 -18 16 -24.5t17.5 -15t27.5 -8.5t27 8t17.5 15.5t15.5 24.5q29 46 72 21zM531 653q27 0 43.5 -17.5t16.5 -45.5v-338q0 -129 -74 -194t-191 -66q-116 -1 -190 64.5t-74 195.5v338
q0 28 16.5 45.5t43.5 17.5t43.5 -17.5t16.5 -45.5v-328q0 -139 48 -190l1 5q-9 16 -6 25.5t9 14t11 4.5q36 -18 81 -18q145 0 145 159v328q0 28 16.5 45.5t43.5 17.5z" />
    <glyph glyph-name="ubreve" unicode="&#x16d;" horiz-adv-x="582" 
d="M422 721q43 -22 12 -83q-43 -81 -144 -81q-102 0 -145 81q-31 61 12 83q43 25 72 -21q11 -18 16 -24.5t17.5 -15t27.5 -8.5t27 8t17.5 15.5t15.5 24.5q29 46 72 21zM467 500q27 0 43 -17t16 -44v-378q0 -27 -16 -44t-42 -17q-25 0 -40.5 16t-16.5 40v1h-6
q-14 -23 -52.5 -44t-89.5 -21q-41 0 -76.5 11.5t-65.5 36t-47.5 69.5t-17.5 106v224q0 27 16 44t43 17t43 -17t16 -44v-213q0 -116 44 -158l1 5q-10 16 -4.5 27.5t16.5 11.5q22 -10 62 -10q55 1 85.5 25.5t30.5 53.5v258q0 27 16 44t42 17z" />
    <glyph glyph-name="Uring" unicode="&#x16e;" horiz-adv-x="653" 
d="M326 700q-45 0 -73 28t-28 73q0 44 28 72t73 28q44 0 72 -28t28 -72q0 -45 -28 -73t-72 -28zM326 763q37 0 37 38q0 37 -37 37q-38 0 -38 -37q0 -38 38 -38zM531 653q27 0 43.5 -17.5t16.5 -45.5v-338q0 -129 -74 -194t-191 -66q-116 -1 -190 64.5t-74 195.5v338
q0 28 16.5 45.5t43.5 17.5t43.5 -17.5t16.5 -45.5v-328q0 -139 48 -190l1 5q-9 16 -6 25.5t9 14t11 4.5q36 -18 81 -18q145 0 145 159v328q0 28 16.5 45.5t43.5 17.5z" />
    <glyph glyph-name="uring" unicode="&#x16f;" horiz-adv-x="582" 
d="M290 547q-45 0 -73 28t-28 73q0 44 28 72t73 28q44 0 72 -28t28 -72q0 -45 -28 -73t-72 -28zM290 610q37 0 37 38q0 37 -37 37q-38 0 -38 -37q0 -38 38 -38zM467 500q27 0 43 -17t16 -44v-378q0 -27 -16 -44t-42 -17q-25 0 -40.5 16t-16.5 40v1h-6q-14 -23 -52.5 -44
t-89.5 -21q-41 0 -76.5 11.5t-65.5 36t-47.5 69.5t-17.5 106v224q0 27 16 44t43 17t43 -17t16 -44v-213q0 -116 44 -158l1 5q-10 16 -4.5 27.5t16.5 11.5q22 -10 62 -10q55 1 85.5 25.5t30.5 53.5v258q0 27 16 44t42 17z" />
    <glyph glyph-name="Uhungarumlaut" unicode="&#x170;" horiz-adv-x="653" 
d="M439 870q33 38 68 7q34 -28 2 -69l-72 -83q-30 -37 -69 -6q-16 13 -16 31.5t14 35.5zM257 870q30 37 68 7q34 -29 2 -69l-72 -83q-32 -39 -69 -6q-16 14 -16.5 32t14.5 35zM531 653q27 0 43.5 -17.5t16.5 -45.5v-338q0 -129 -74 -194t-191 -66q-116 -1 -190 64.5
t-74 195.5v338q0 28 16.5 45.5t43.5 17.5t43.5 -17.5t16.5 -45.5v-328q0 -139 48 -190l1 5q-9 16 -6 25.5t9 14t11 4.5q36 -18 81 -18q145 0 145 159v328q0 28 16.5 45.5t43.5 17.5z" />
    <glyph glyph-name="uhungarumlaut" unicode="&#x171;" horiz-adv-x="582" 
d="M403 717q33 38 68 7q34 -28 2 -69l-72 -83q-30 -37 -69 -6q-16 13 -16 31.5t14 35.5zM221 717q30 37 68 7q34 -29 2 -69l-72 -83q-32 -39 -69 -6q-16 14 -16.5 32t14.5 35zM467 500q27 0 43 -17t16 -44v-378q0 -27 -16 -44t-42 -17q-25 0 -40.5 16t-16.5 40v1h-6
q-14 -23 -52.5 -44t-89.5 -21q-41 0 -76.5 11.5t-65.5 36t-47.5 69.5t-17.5 106v224q0 27 16 44t43 17t43 -17t16 -44v-213q0 -116 44 -158l1 5q-10 16 -4.5 27.5t16.5 11.5q22 -10 62 -10q55 1 85.5 25.5t30.5 53.5v258q0 27 16 44t42 17z" />
    <glyph glyph-name="Uogonek" unicode="&#x172;" horiz-adv-x="653" 
d="M531 653q27 0 43.5 -17.5t16.5 -45.5v-338q0 -105 -50 -167.5t-135 -83.5q-51 -15 -51 -50q0 -24 24 -24q1 0 29 7q32 9 47 -29q16 -37 -19 -59q-24 -14 -56 -14q-41 -1 -68.5 20.5t-28.5 62.5q0 44 31 77q-111 3 -181.5 68.5t-70.5 191.5v338q0 28 16.5 45.5t43.5 17.5
t43.5 -17.5t16.5 -45.5v-328q0 -139 48 -190l1 5q-9 16 -6 25.5t9 14t11 4.5q36 -18 81 -18q145 0 145 159v328q0 28 16.5 45.5t43.5 17.5z" />
    <glyph glyph-name="uogonek" unicode="&#x173;" horiz-adv-x="582" 
d="M530 -95q16 -37 -19 -59q-24 -14 -56 -14q-41 -1 -68.5 20.5t-28.5 62.5q-2 69 67 103q-14 16 -14 38v1h-6q-14 -23 -52.5 -44t-89.5 -21q-41 0 -76.5 11.5t-65.5 36t-47.5 69.5t-17.5 106v224q0 27 16 44t43 17t43 -17t16 -44v-213q0 -116 44 -158l1 5q-10 16 -4.5 27.5
t16.5 11.5q22 -10 62 -10q55 1 85.5 25.5t30.5 53.5v258q0 27 16 44t42 17q27 0 43 -17t16 -44v-378q0 -22 -11.5 -38t-31.5 -21q-53 -15 -53 -51q0 -24 24 -24q1 0 29 7q32 9 47 -29z" />
    <glyph glyph-name="Wcircumflex" unicode="&#x174;" horiz-adv-x="885" 
d="M565 729q-17 -19 -37.5 -20.5t-36.5 15.5l-49 52l-50 -52q-17 -16 -37 -15t-37 20q-33 39 9 74l77 65q17 16 38 16q20 0 37 -16l77 -65q42 -35 9 -74zM815 649q54 -19 37 -79l-176 -529q-7 -21 -23.5 -33t-37.5 -12q-47 0 -62 46l-111 317l-110 -317q-16 -46 -63 -46
q-21 0 -37.5 12t-22.5 33l-176 529q-17 60 37 79q28 9 50.5 -1t28.5 -39l140 -478l4 10q-13 60 6 123l84 273q5 19 21.5 31t37.5 12t37.5 -11.5t22.5 -30.5l123 -407l4 10q-14 62 6 123l104 348q14 56 76 37z" />
    <glyph glyph-name="wcircumflex" unicode="&#x175;" horiz-adv-x="741" 
d="M494 576q-17 -19 -37.5 -20.5t-36.5 15.5l-49 52l-50 -52q-17 -16 -37 -15t-37 20q-33 39 9 74l77 65q17 16 38 16q20 0 37 -16l77 -65q42 -35 9 -74zM674 497q25 -9 34.5 -31t-0.5 -47l-140 -377q-15 -42 -57 -42q-45 0 -57 46l-83 242l-84 -243q-15 -45 -57 -45
q-41 0 -58 42l-140 377q-9 25 0.5 47t33.5 31q27 9 49 -1t29 -36l101 -336l5 9q-13 54 5 111l61 202q6 20 21 32t34 12q18 0 33 -12t20 -32l98 -322l4 9q-13 54 5 112l66 215q7 26 29 36t48 1z" />
    <glyph glyph-name="Ycircumflex" unicode="&#x176;" horiz-adv-x="585" 
d="M415 729q-17 -19 -37.5 -20.5t-36.5 15.5l-49 52l-50 -52q-17 -16 -37 -15t-37 20q-33 39 9 74l77 65q17 16 38 16q20 0 37 -16l77 -65q42 -35 9 -74zM481 653q27 0 43.5 -17.5t16.5 -45.5v-83q0 -104 -59.5 -175.5t-170.5 -80.5v-5q41 -16 41 -54v-129
q0 -28 -16.5 -45.5t-43.5 -17.5t-43.5 18t-16.5 45v194q-87 18 -137.5 85t-50.5 165v83q0 28 16.5 45.5t43.5 17.5t43.5 -18t16.5 -45v-75q0 -137 48 -186l1 6q-9 15 -6.5 24.5t8.5 13.5t12 4q29 -16 65 -16q62 0 95.5 41t33.5 113v75q0 27 16.5 45t43.5 18z" />
    <glyph glyph-name="ycircumflex" unicode="&#x177;" horiz-adv-x="584" 
d="M415 576q-17 -19 -37.5 -20.5t-36.5 15.5l-49 52l-50 -52q-17 -16 -37 -15t-37 20q-33 39 9 74l77 65q17 16 38 16q20 0 37 -16l77 -65q42 -35 9 -74zM469 500q27 0 43 -17t16 -44v-364q0 -110 -71 -169.5t-168 -59.5q-77 0 -140 20q-48 17 -33 68q8 23 25.5 32t41.5 2
q50 -16 97 -16q59 0 98 35t39 115v1h-6q-16 -31 -54.5 -54.5t-96.5 -23.5q-84 0 -144 53t-60 166v195q0 27 16 44t43 17t43 -17t16 -44v-185q0 -114 43 -156l1 5q-8 15 -4 25.5t13 13.5q22 -11 62 -11q60 1 90.5 29t30.5 69v210q0 27 16 44t43 17z" />
    <glyph glyph-name="Ydieresis" unicode="&#x178;" horiz-adv-x="585" 
d="M214 707q-25 0 -40 15.5t-15 39.5t15 39.5t40 15.5t40 -15.5t15 -39.5t-15 -39.5t-40 -15.5zM369 707q-25 0 -40 15.5t-15 39.5t15 39.5t40 15.5t40.5 -15.5t15.5 -39.5t-15.5 -39.5t-40.5 -15.5zM481 653q27 0 43.5 -17.5t16.5 -45.5v-83q0 -104 -59.5 -175.5
t-170.5 -80.5v-5q41 -16 41 -54v-129q0 -28 -16.5 -45.5t-43.5 -17.5t-43.5 18t-16.5 45v194q-87 18 -137.5 85t-50.5 165v83q0 28 16.5 45.5t43.5 17.5t43.5 -18t16.5 -45v-75q0 -137 48 -186l1 6q-9 15 -6.5 24.5t8.5 13.5t12 4q29 -16 65 -16q62 0 95.5 41t33.5 113v75
q0 27 16.5 45t43.5 18z" />
    <glyph glyph-name="Zacute" unicode="&#x179;" horiz-adv-x="579" 
d="M301 870q40 34 74 -5q33 -39 -9 -74l-77 -65q-19 -17 -39.5 -16t-36.5 20q-16 18 -13 38t23 36zM477 114q27 0 43.5 -15.5t16.5 -41.5t-16.5 -41.5t-43.5 -15.5h-381q-41 0 -52 46q-5 28 10 52l273 389q34 47 92 47l4 5h-314q-26 0 -39.5 15.5t-13.5 41.5q0 25 17 41
t43 16h355q41 0 54 -31q17 -33 -5 -66l-273 -390q-35 -47 -93 -47l-4 -5h327z" />
    <glyph glyph-name="zacute" unicode="&#x17a;" horiz-adv-x="499" 
d="M257 717q40 34 74 -5q33 -39 -9 -74l-77 -65q-19 -17 -39.5 -16t-36.5 20q-16 18 -13 38t23 36zM399 108q28 0 45 -14t17 -40t-17 -40t-45 -14h-299q-28 0 -45 14.5t-17 40.5q0 24 15 45l201 249q32 39 80 39l3 4h-226q-28 0 -44.5 13.5t-16.5 38.5q0 26 17 41t44 15h270
q34 0 54 -24q13 -15 12 -35t-15 -37l-199 -252q-32 -39 -80 -39l-4 -5h250z" />
    <glyph glyph-name="Zdotaccent" unicode="&#x17b;" horiz-adv-x="579" 
d="M294 694q-28 0 -45.5 18t-17.5 45t17.5 45t45.5 18t45.5 -18t17.5 -45t-17.5 -45t-45.5 -18zM477 114q27 0 43.5 -15.5t16.5 -41.5t-16.5 -41.5t-43.5 -15.5h-381q-41 0 -52 46q-5 28 10 52l273 389q34 47 92 47l4 5h-314q-26 0 -39.5 15.5t-13.5 41.5q0 25 17 41t43 16
h355q41 0 54 -31q17 -33 -5 -66l-273 -390q-35 -47 -93 -47l-4 -5h327z" />
    <glyph glyph-name="zdotaccent" unicode="&#x17c;" horiz-adv-x="499" 
d="M250 541q-28 0 -45.5 18t-17.5 45t17.5 45t45.5 18t45.5 -18t17.5 -45t-17.5 -45t-45.5 -18zM399 108q28 0 45 -14t17 -40t-17 -40t-45 -14h-299q-28 0 -45 14.5t-17 40.5q0 24 15 45l201 249q32 39 80 39l3 4h-226q-28 0 -44.5 13.5t-16.5 38.5q0 26 17 41t44 15h270
q34 0 54 -24q13 -15 12 -35t-15 -37l-199 -252q-32 -39 -80 -39l-4 -5h250z" />
    <glyph glyph-name="Zcaron" unicode="&#x17d;" horiz-adv-x="579" 
d="M417 865q33 -39 -9 -74l-77 -65q-17 -16 -37 -16q-21 0 -38 16l-77 65q-42 35 -9 74q17 19 37 20t37 -15l50 -52l49 52q16 17 36.5 15.5t37.5 -20.5zM477 114q27 0 43.5 -15.5t16.5 -41.5t-16.5 -41.5t-43.5 -15.5h-381q-41 0 -52 46q-5 28 10 52l273 389q34 47 92 47
l4 5h-314q-26 0 -39.5 15.5t-13.5 41.5q0 25 17 41t43 16h355q41 0 54 -31q17 -33 -5 -66l-273 -390q-35 -47 -93 -47l-4 -5h327z" />
    <glyph glyph-name="zcaron" unicode="&#x17e;" horiz-adv-x="499" 
d="M373 712q33 -39 -9 -74l-77 -65q-17 -16 -37 -16q-21 0 -38 16l-77 65q-42 35 -9 74q17 19 37 20t37 -15l50 -52l49 52q16 17 36.5 15.5t37.5 -20.5zM399 108q28 0 45 -14t17 -40t-17 -40t-45 -14h-299q-28 0 -45 14.5t-17 40.5q0 24 15 45l201 249q32 39 80 39l3 4h-226
q-28 0 -44.5 13.5t-16.5 38.5q0 26 17 41t44 15h270q34 0 54 -24q13 -15 12 -35t-15 -37l-199 -252q-32 -39 -80 -39l-4 -5h250z" />
    <glyph glyph-name="florin" unicode="&#x192;" horiz-adv-x="513" 
d="M360 596q-56 0 -80 -30.5t-24 -90.5v-82h128q28 0 44.5 -14.5t16.5 -42.5q0 -27 -16.5 -42t-44.5 -15h-189v-5q22 0 41.5 -16t19.5 -42v-160q0 -78 -44.5 -118.5t-117.5 -40.5h-28q-26 0 -41.5 14.5t-15.5 39.5q0 26 15.5 40t41.5 14h26q46 0 46 53v415q0 109 57 170
t165 61h68q27 0 42 -14t15 -40q0 -25 -15.5 -39.5t-41.5 -14.5h-68z" />
    <glyph glyph-name="uni0218" unicode="&#x218;" horiz-adv-x="571" 
d="M283 661q65 0 119 -24t82 -56q39 -43 -1 -84q-41 -41 -81 -4l-6 6q-6 6 -10.5 10t-13.5 10.5t-19.5 11.5t-24 9.5t-30 7t-35.5 2.5q-96 0 -126 -44l5 -3q19 25 57 19q-19 -17 -19 -42q0 -33 32 -50.5t111 -40.5q41 -11 70 -23t64 -34t54 -57t19 -81q0 -85 -64.5 -143.5
t-172.5 -58.5q-81 0 -142.5 31t-91.5 66q-37 45 1 85q16 16 31 19.5t26.5 -1.5t26.5 -17q2 -2 12.5 -11t16 -13.5t17 -13t21.5 -13t24 -10t29.5 -8t32.5 -2.5q54 0 84 25t31 58q0 5 -2 15q38 -9 47 -37h6q-6 27 -41.5 51t-71 36.5t-92.5 30.5q-12 3 -17 5q-86 25 -131.5 64
t-45.5 114q0 87 61.5 141t157.5 54zM343 -109l-56 -76q-11 -16 -26 -16q-13 0 -21.5 9t-8.5 21q0 5 1 9l20 87q11 44 54 44q48 0 48 -48q0 -14 -11 -30z" />
    <glyph glyph-name="uni0219" unicode="&#x219;" horiz-adv-x="476" 
d="M245 508q108 0 162 -58q35 -35 0 -74q-25 -21 -39.5 -20.5t-33.5 14.5q-52 38 -105 38q-87 0 -113 -40l4 -3q16 21 52 19q-5 -10 -4 -20q1 -23 22.5 -34.5t75.5 -24.5q35 -8 54 -14t46 -18.5t41 -27t24.5 -39.5t10.5 -57q0 -78 -52.5 -117.5t-142.5 -39.5
q-67 0 -118.5 20t-77.5 51q-36 43 2 79q36 35 73 2q55 -51 124 -51q36 0 56.5 11t21.5 29q0 7 -2 13q13 -2 26 -10.5t17 -21.5l5 -1q-2 17 -15.5 31t-39 25.5t-48.5 19.5t-59 18q-40 11 -61 19t-47 24t-37.5 40.5t-11.5 60.5q0 78 54 117.5t136 39.5zM276 -109l-56 -76
q-11 -16 -26 -16q-13 0 -21.5 9t-8.5 21q0 5 1 9l20 87q11 44 54 44q48 0 48 -48q0 -14 -11 -30z" />
    <glyph glyph-name="uni021A" unicode="&#x21a;" horiz-adv-x="572" 
d="M484 653q27 0 43.5 -15.5t16.5 -41.5q0 -25 -16.5 -40.5t-43.5 -15.5h-199v-6q22 0 41.5 -16t19.5 -41v-414q0 -28 -16.5 -45.5t-43.5 -17.5t-43.5 18t-16.5 45v477h-138q-26 0 -43 15.5t-17 40.5t17 41t43 16h396zM320 -109l-56 -76q-11 -16 -26 -16q-13 0 -21.5 9
t-8.5 21q0 5 1 9l20 87q11 44 54 44q48 0 48 -48q0 -14 -11 -30z" />
    <glyph glyph-name="uni021B" unicode="&#x21b;" horiz-adv-x="431" 
d="M330 110q26 0 41.5 -14.5t15.5 -40.5t-15.5 -40.5t-41.5 -14.5h-20q-188 0 -188 200v192h-30q-27 0 -43.5 14.5t-16.5 39.5t16.5 39.5t43.5 14.5h30v93q0 27 16 44.5t43 17.5q26 0 42 -17.5t16 -44.5v-93h87q27 0 44 -14.5t17 -39.5t-17 -39.5t-44 -14.5h-148v-5
q22 0 41.5 -16.5t19.5 -42.5v-111q0 -56 16.5 -81.5t57.5 -25.5h17zM302 -109l-56 -76q-11 -16 -26 -16q-13 0 -21.5 9t-8.5 21q0 5 1 9l20 87q11 44 54 44q48 0 48 -48q0 -14 -11 -30z" />
    <glyph glyph-name="uni0237" unicode="&#x237;" horiz-adv-x="246" 
d="M131 500q26 0 42 -16.5t16 -40.5v-3q0 -21 -19 -36t-41 -15v-5h60v-306q0 -88 -42.5 -143.5t-103.5 -75.5q-26 -9 -47.5 0t-29.5 33q-14 44 36 69q70 37 70 121v357q0 27 16 44t43 17z" />
    <glyph glyph-name="circumflex" unicode="&#x2c6;" horiz-adv-x="351" 
d="M299 728q-17 -19 -37.5 -20.5t-36.5 15.5l-49 52l-50 -52q-17 -16 -37 -15t-37 20q-33 39 9 74l77 65q17 16 38 16q20 0 37 -16l77 -65q42 -35 9 -74z" />
    <glyph glyph-name="caron" unicode="&#x2c7;" horiz-adv-x="351" 
d="M299 864q33 -39 -9 -74l-77 -65q-17 -16 -37 -16q-21 0 -38 16l-77 65q-42 35 -9 74q17 19 37 20t37 -15l50 -52l49 52q16 17 36.5 15.5t37.5 -20.5z" />
    <glyph glyph-name="breve" unicode="&#x2d8;" horiz-adv-x="396" 
d="M330 873q43 -22 12 -83q-43 -81 -144 -81q-102 0 -145 81q-31 61 12 83q43 25 72 -21q11 -18 16 -24.5t17.5 -15t27.5 -8.5t27 8t17.5 15.5t15.5 24.5q29 46 72 21z" />
    <glyph glyph-name="dotaccent" unicode="&#x2d9;" horiz-adv-x="204" 
d="M102 693q-28 0 -45.5 18t-17.5 45t17.5 45t45.5 18t45.5 -18t17.5 -45t-17.5 -45t-45.5 -18z" />
    <glyph glyph-name="ring" unicode="&#x2da;" horiz-adv-x="279" 
d="M140 699q-45 0 -73 28t-28 73q0 44 28 72t73 28q44 0 72 -28t28 -72q0 -45 -28 -73t-72 -28zM140 762q37 0 37 38q0 37 -37 37q-38 0 -38 -37q0 -38 38 -38z" />
    <glyph glyph-name="ogonek" unicode="&#x2db;" horiz-adv-x="260" 
d="M173 1q-54 -15 -54 -51q0 -24 24 -24q1 0 29 7q32 9 47 -29q16 -37 -19 -59q-24 -14 -56 -14q-41 -1 -68.5 20.5t-28.5 62.5q-1 47 33.5 80t91.5 42z" />
    <glyph glyph-name="tilde" unicode="&#x2dc;" horiz-adv-x="361" 
d="M304 793q21 -34 -17 -69q-24 -23 -47.5 -24t-62.5 18q-26 9 -31.5 8t-22.5 -13q-18 -12 -37 -7.5t-30 23.5q-18 31 16 67q44 44 108 10q26 -12 31.5 -12t22.5 12q21 14 39.5 10t30.5 -23z" />
    <glyph glyph-name="hungarumlaut" unicode="&#x2dd;" horiz-adv-x="429" 
d="M308 869q33 38 68 7q34 -28 2 -69l-72 -83q-30 -37 -69 -6q-16 13 -16 31.5t14 35.5zM126 869q30 37 68 7q34 -29 2 -69l-72 -83q-32 -39 -69 -6q-16 14 -16.5 32t14.5 35z" />
    <glyph glyph-name="gravecomb" unicode="&#x300;" horiz-adv-x="0" 
d="M-140 869l78 -66q20 -16 23 -36t-13 -38q-16 -19 -36.5 -20t-39.5 16l-77 65q-42 35 -9 74q34 39 74 5z" />
    <glyph glyph-name="acutecomb" unicode="&#x301;" horiz-adv-x="0" 
d="M-126 869q40 34 74 -5q33 -39 -9 -74l-77 -65q-19 -17 -39.5 -16t-36.5 20q-16 18 -13 38t23 36z" />
    <glyph glyph-name="uni0302" unicode="&#x302;" horiz-adv-x="0" 
d="M-52 728q-17 -19 -37.5 -20.5t-36.5 15.5l-49 52l-50 -52q-17 -16 -37 -15t-37 20q-33 39 9 74l77 65q17 16 38 16q20 0 37 -16l77 -65q42 -35 9 -74z" />
    <glyph glyph-name="tildecomb" unicode="&#x303;" horiz-adv-x="0" 
d="M-57 793q21 -34 -17 -69q-24 -23 -47.5 -24t-62.5 18q-26 9 -31.5 8t-22.5 -13q-18 -12 -37 -7.5t-30 23.5q-18 31 16 67q44 44 108 10q26 -12 31.5 -12t22.5 12q21 14 39.5 10t30.5 -23z" />
    <glyph glyph-name="uni0304" unicode="&#x304;" horiz-adv-x="0" 
d="M-59 755q0 -22 -14 -35t-37 -13h-182q-23 0 -37 13t-14 35t14 35t37 13h182q23 0 37 -13t14 -35z" />
    <glyph glyph-name="uni0306" unicode="&#x306;" horiz-adv-x="0" 
d="M-66 873q43 -22 12 -83q-43 -81 -144 -81q-102 0 -145 81q-31 61 12 83q43 25 72 -21q11 -18 16 -24.5t17.5 -15t27.5 -8.5t27 8t17.5 15.5t15.5 24.5q29 46 72 21z" />
    <glyph glyph-name="uni0307" unicode="&#x307;" horiz-adv-x="0" 
d="M-102 693q-28 0 -45.5 18t-17.5 45t17.5 45t45.5 18t45.5 -18t17.5 -45t-17.5 -45t-45.5 -18z" />
    <glyph glyph-name="uni0308" unicode="&#x308;" horiz-adv-x="0" 
d="M-248 706q-25 0 -40 15.5t-15 39.5t15 39.5t40 15.5t40 -15.5t15 -39.5t-15 -39.5t-40 -15.5zM-93 706q-25 0 -40 15.5t-15 39.5t15 39.5t40 15.5t40.5 -15.5t15.5 -39.5t-15.5 -39.5t-40.5 -15.5z" />
    <glyph glyph-name="uni030A" unicode="&#x30a;" horiz-adv-x="0" 
d="M-139 699q-45 0 -73 28t-28 73q0 44 28 72t73 28q44 0 72 -28t28 -72q0 -45 -28 -73t-72 -28zM-139 762q37 0 37 38q0 37 -37 37q-38 0 -38 -37q0 -38 38 -38z" />
    <glyph glyph-name="uni030B" unicode="&#x30b;" horiz-adv-x="0" 
d="M-101 869q33 38 68 7q34 -28 2 -69l-72 -83q-30 -37 -69 -6q-16 13 -16 31.5t14 35.5zM-283 869q30 37 68 7q34 -29 2 -69l-72 -83q-32 -39 -69 -6q-16 14 -16.5 32t14.5 35z" />
    <glyph glyph-name="uni030C" unicode="&#x30c;" horiz-adv-x="0" 
d="M-52 864q33 -39 -9 -74l-77 -65q-17 -16 -37 -16q-21 0 -38 16l-77 65q-42 35 -9 74q17 19 37 20t37 -15l50 -52l49 52q16 17 36.5 15.5t37.5 -20.5z" />
    <glyph glyph-name="uni0312" unicode="&#x312;" horiz-adv-x="0" 
d="M-145 781l53 91q17 31 52 15q26 -11 18 -43l-28 -99q-7 -30 -31 -40.5t-47 1.5q-19 9 -25 31t8 44z" />
    <glyph glyph-name="uni0326" unicode="&#x326;" horiz-adv-x="0" 
d="M-84 -109l-56 -76q-11 -16 -26 -16q-13 0 -21.5 9t-8.5 21q0 5 1 9l20 87q11 44 54 44q48 0 48 -48q0 -14 -11 -30z" />
    <glyph glyph-name="uni0327" unicode="&#x327;" horiz-adv-x="0" 
d="M-206 -54l28 62h64l-17 -37q73 -23 73 -85q0 -41 -28 -63.5t-70 -22.5q-36 0 -68 18q-25 16 -18 38q10 25 38 18q39 -12 50 -12q29 0 29 21q0 32 -73 48q-12 3 -8 15z" />
    <glyph glyph-name="uni0328" unicode="&#x328;" horiz-adv-x="0" 
d="M-114 1q-54 -15 -54 -51q0 -24 24 -24q1 0 29 7q32 9 47 -29q16 -37 -19 -59q-24 -14 -56 -14q-41 -1 -68.5 20.5t-28.5 62.5q-1 47 33.5 80t91.5 42z" />
    <glyph glyph-name="Wgrave" unicode="&#x1e80;" horiz-adv-x="885" 
d="M435 870l78 -66q20 -16 23 -36t-13 -38q-16 -19 -36.5 -20t-39.5 16l-77 65q-42 35 -9 74q34 39 74 5zM815 649q54 -19 37 -79l-176 -529q-7 -21 -23.5 -33t-37.5 -12q-47 0 -62 46l-111 317l-110 -317q-16 -46 -63 -46q-21 0 -37.5 12t-22.5 33l-176 529q-17 60 37 79
q28 9 50.5 -1t28.5 -39l140 -478l4 10q-13 60 6 123l84 273q5 19 21.5 31t37.5 12t37.5 -11.5t22.5 -30.5l123 -407l4 10q-14 62 6 123l104 348q14 56 76 37z" />
    <glyph glyph-name="wgrave" unicode="&#x1e81;" horiz-adv-x="741" 
d="M364 717l78 -66q20 -16 23 -36t-13 -38q-16 -19 -36.5 -20t-39.5 16l-77 65q-42 35 -9 74q34 39 74 5zM674 497q25 -9 34.5 -31t-0.5 -47l-140 -377q-15 -42 -57 -42q-45 0 -57 46l-83 242l-84 -243q-15 -45 -57 -45q-41 0 -58 42l-140 377q-9 25 0.5 47t33.5 31
q27 9 49 -1t29 -36l101 -336l5 9q-13 54 5 111l61 202q6 20 21 32t34 12q18 0 33 -12t20 -32l98 -322l4 9q-13 54 5 112l66 215q7 26 29 36t48 1z" />
    <glyph glyph-name="Wacute" unicode="&#x1e82;" horiz-adv-x="885" 
d="M449 870q40 34 74 -5q33 -39 -9 -74l-77 -65q-19 -17 -39.5 -16t-36.5 20q-16 18 -13 38t23 36zM815 649q54 -19 37 -79l-176 -529q-7 -21 -23.5 -33t-37.5 -12q-47 0 -62 46l-111 317l-110 -317q-16 -46 -63 -46q-21 0 -37.5 12t-22.5 33l-176 529q-17 60 37 79
q28 9 50.5 -1t28.5 -39l140 -478l4 10q-13 60 6 123l84 273q5 19 21.5 31t37.5 12t37.5 -11.5t22.5 -30.5l123 -407l4 10q-14 62 6 123l104 348q14 56 76 37z" />
    <glyph glyph-name="wacute" unicode="&#x1e83;" horiz-adv-x="741" 
d="M378 717q40 34 74 -5q33 -39 -9 -74l-77 -65q-19 -17 -39.5 -16t-36.5 20q-16 18 -13 38t23 36zM674 497q25 -9 34.5 -31t-0.5 -47l-140 -377q-15 -42 -57 -42q-45 0 -57 46l-83 242l-84 -243q-15 -45 -57 -45q-41 0 -58 42l-140 377q-9 25 0.5 47t33.5 31q27 9 49 -1
t29 -36l101 -336l5 9q-13 54 5 111l61 202q6 20 21 32t34 12q18 0 33 -12t20 -32l98 -322l4 9q-13 54 5 112l66 215q7 26 29 36t48 1z" />
    <glyph glyph-name="Wdieresis" unicode="&#x1e84;" horiz-adv-x="885" 
d="M364 707q-25 0 -40 15.5t-15 39.5t15 39.5t40 15.5t40 -15.5t15 -39.5t-15 -39.5t-40 -15.5zM519 707q-25 0 -40 15.5t-15 39.5t15 39.5t40 15.5t40.5 -15.5t15.5 -39.5t-15.5 -39.5t-40.5 -15.5zM815 649q54 -19 37 -79l-176 -529q-7 -21 -23.5 -33t-37.5 -12
q-47 0 -62 46l-111 317l-110 -317q-16 -46 -63 -46q-21 0 -37.5 12t-22.5 33l-176 529q-17 60 37 79q28 9 50.5 -1t28.5 -39l140 -478l4 10q-13 60 6 123l84 273q5 19 21.5 31t37.5 12t37.5 -11.5t22.5 -30.5l123 -407l4 10q-14 62 6 123l104 348q14 56 76 37z" />
    <glyph glyph-name="wdieresis" unicode="&#x1e85;" horiz-adv-x="741" 
d="M293 554q-25 0 -40 15.5t-15 39.5t15 39.5t40 15.5t40 -15.5t15 -39.5t-15 -39.5t-40 -15.5zM448 554q-25 0 -40 15.5t-15 39.5t15 39.5t40 15.5t40.5 -15.5t15.5 -39.5t-15.5 -39.5t-40.5 -15.5zM674 497q25 -9 34.5 -31t-0.5 -47l-140 -377q-15 -42 -57 -42
q-45 0 -57 46l-83 242l-84 -243q-15 -45 -57 -45q-41 0 -58 42l-140 377q-9 25 0.5 47t33.5 31q27 9 49 -1t29 -36l101 -336l5 9q-13 54 5 111l61 202q6 20 21 32t34 12q18 0 33 -12t20 -32l98 -322l4 9q-13 54 5 112l66 215q7 26 29 36t48 1z" />
    <glyph glyph-name="uni1E9E" unicode="&#x1e9e;" horiz-adv-x="611" 
d="M436 318l6 -3q20 12 42.5 11t33.5 -13q44 -48 44 -123q0 -82 -55.5 -136t-145.5 -54h-65q-26 0 -42.5 15.5t-16.5 40.5t16 40.5t42 15.5h52q45 0 71 23.5t26 66.5q0 27 -12 44.5t-25 23.5t-34 10q-33 8 -42 30q-17 41 21 68q54 38 54 90q0 82 -98 82q-126 0 -126 -160
v-327q0 -28 -16.5 -45.5t-43.5 -17.5t-43.5 18t-16.5 45v335q0 131 71.5 197t179.5 66q100 0 155 -52.5t55 -133.5q0 -99 -87 -157z" />
    <glyph glyph-name="Ygrave" unicode="&#x1ef2;" horiz-adv-x="585" 
d="M285 870l78 -66q20 -16 23 -36t-13 -38q-16 -19 -36.5 -20t-39.5 16l-77 65q-42 35 -9 74q34 39 74 5zM481 653q27 0 43.5 -17.5t16.5 -45.5v-83q0 -104 -59.5 -175.5t-170.5 -80.5v-5q41 -16 41 -54v-129q0 -28 -16.5 -45.5t-43.5 -17.5t-43.5 18t-16.5 45v194
q-87 18 -137.5 85t-50.5 165v83q0 28 16.5 45.5t43.5 17.5t43.5 -18t16.5 -45v-75q0 -137 48 -186l1 6q-9 15 -6.5 24.5t8.5 13.5t12 4q29 -16 65 -16q62 0 95.5 41t33.5 113v75q0 27 16.5 45t43.5 18z" />
    <glyph glyph-name="ygrave" unicode="&#x1ef3;" horiz-adv-x="584" 
d="M285 717l78 -66q20 -16 23 -36t-13 -38q-16 -19 -36.5 -20t-39.5 16l-77 65q-42 35 -9 74q34 39 74 5zM469 500q27 0 43 -17t16 -44v-364q0 -110 -71 -169.5t-168 -59.5q-77 0 -140 20q-48 17 -33 68q8 23 25.5 32t41.5 2q50 -16 97 -16q59 0 98 35t39 115v1h-6
q-16 -31 -54.5 -54.5t-96.5 -23.5q-84 0 -144 53t-60 166v195q0 27 16 44t43 17t43 -17t16 -44v-185q0 -114 43 -156l1 5q-8 15 -4 25.5t13 13.5q22 -11 62 -11q60 1 90.5 29t30.5 69v210q0 27 16 44t43 17z" />
    <glyph glyph-name="endash" unicode="&#x2013;" horiz-adv-x="623" 
d="M586 281q0 -26 -17 -41.5t-44 -15.5h-427q-27 0 -44 15.5t-17 41.5t17 41.5t44 15.5h427q27 0 44 -15.5t17 -41.5z" />
    <glyph glyph-name="emdash" unicode="&#x2014;" horiz-adv-x="837" 
d="M818 281q0 -26 -17 -41.5t-44 -15.5h-677q-27 0 -43.5 15.5t-16.5 41.5t16.5 41.5t43.5 15.5h677q27 0 44 -15.5t17 -41.5z" />
    <glyph glyph-name="quoteleft" unicode="&#x2018;" horiz-adv-x="262" 
d="M49 547l80 137q15 23 43 23q27 0 41 -20.5t6 -44.5l-51 -157q-15 -46 -62 -46q-31 0 -49.5 20t-18.5 50q0 17 11 38z" />
    <glyph glyph-name="quoteright" unicode="&#x2019;" horiz-adv-x="262" 
d="M212 604l-80 -137q-12 -23 -42 -23q-27 0 -41 20t-6 45l50 157q16 45 63 45q31 0 49.5 -20t18.5 -49q0 -18 -12 -38z" />
    <glyph glyph-name="quotesinglbase" unicode="&#x201a;" horiz-adv-x="266" 
d="M213 18l-80 -137q-12 -23 -42 -23q-27 0 -41.5 20t-6.5 45l51 157q16 45 63 45q31 0 49.5 -20.5t18.5 -49.5q0 -15 -12 -37z" />
    <glyph glyph-name="quotedblleft" unicode="&#x201c;" horiz-adv-x="490" 
d="M49 547l80 137q15 23 43 23q27 0 41 -20.5t6 -44.5l-51 -157q-15 -46 -62 -46q-31 0 -49.5 20t-18.5 50q0 17 11 38zM278 547l80 137q13 23 42 23q27 0 41 -20.5t6 -44.5l-50 -157q-16 -46 -63 -46q-31 0 -49.5 20.5t-18.5 49.5q0 18 12 38z" />
    <glyph glyph-name="quotedblright" unicode="&#x201d;" horiz-adv-x="490" 
d="M212 604l-80 -137q-12 -23 -42 -23q-27 0 -41 20t-6 45l50 157q16 45 63 45q31 0 49.5 -20t18.5 -49q0 -18 -12 -38zM441 604l-80 -137q-14 -23 -42 -23q-27 0 -41.5 20t-6.5 45l51 157q14 45 62 45q31 0 49.5 -19.5t18.5 -49.5q0 -17 -11 -38z" />
    <glyph glyph-name="quotedblbase" unicode="&#x201e;" horiz-adv-x="494" 
d="M213 18l-80 -137q-12 -23 -42 -23q-27 0 -41.5 20t-6.5 45l51 157q16 45 63 45q31 0 49.5 -20.5t18.5 -49.5q0 -15 -12 -37zM442 18l-80 -137q-14 -23 -43 -23q-27 0 -41 20t-6 45l51 157q14 45 62 45q31 0 49.5 -20t18.5 -50q0 -16 -11 -37z" />
    <glyph glyph-name="dagger" unicode="&#x2020;" horiz-adv-x="409" 
d="M318 585q20 0 32 -11t12 -29t-12 -29t-32 -11h-73v-246q0 -19 -11.5 -31t-29.5 -12q-17 0 -28.5 12t-11.5 31v246h-74q-19 0 -31 11t-12 29t12 29t31 11h74v83q0 19 11.5 31t28.5 12q18 0 29.5 -12t11.5 -31v-83h73z" />
    <glyph glyph-name="daggerdbl" unicode="&#x2021;" horiz-adv-x="409" 
d="M318 402q20 0 32 -11t12 -29t-12 -29t-32 -11h-73v-63q0 -19 -11.5 -31t-29.5 -12q-17 0 -28.5 12t-11.5 31v63h-74q-19 0 -31 11t-12 29t12 29t31 11h74v123h-74q-19 0 -31 11t-12 29t12 29t31 11h74v63q0 19 11.5 31t28.5 12q18 0 29.5 -12t11.5 -31v-63h73
q20 0 32 -11t12 -29t-12 -29t-32 -11h-73v-123h73z" />
    <glyph glyph-name="bullet" unicode="&#x2022;" horiz-adv-x="406" 
d="M203 188q-54 0 -90.5 36.5t-36.5 90.5t36.5 90.5t90.5 36.5t90.5 -36.5t36.5 -90.5t-36.5 -90.5t-90.5 -36.5z" />
    <glyph glyph-name="ellipsis" unicode="&#x2026;" horiz-adv-x="753" 
d="M124 0q-29 0 -49.5 21t-20.5 50t20.5 50t49.5 21q30 0 50.5 -21t20.5 -50t-20.5 -50t-50.5 -21zM377 0q-30 0 -50.5 21t-20.5 50t20.5 50t50.5 21q29 0 49.5 -21t20.5 -50t-20.5 -50t-49.5 -21zM629 0q-29 0 -50 21t-21 50t21 50t50 21t49.5 -21t20.5 -50t-20.5 -50
t-49.5 -21z" />
    <glyph glyph-name="perthousand" unicode="&#x2030;" horiz-adv-x="1061" 
d="M557 708q28 -17 8 -55l-336 -655q-8 -14 -25 -17.5t-31 6.5q-30 20 -8 55l336 655q8 14 24.5 17.5t31.5 -6.5zM186 399q-63 0 -103 40.5t-40 115.5t40 115.5t103 40.5q64 0 103.5 -40.5t39.5 -115.5t-39.5 -115.5t-103.5 -40.5zM186 479q54 0 54 76t-54 76t-54 -76
q0 -37 14.5 -56.5t39.5 -19.5zM546 -7q-63 0 -103 40.5t-40 115.5t40 116t103 41q64 0 104 -41t40 -116t-40 -115.5t-104 -40.5zM875 -7q-63 0 -103 40.5t-40 115.5t40 116t103 41q64 0 104 -41t40 -116t-40 -115.5t-104 -40.5zM546 74q54 0 54 75q0 76 -54 76
q-53 0 -53 -76q0 -75 53 -75zM875 74q54 0 54 75q0 76 -54 76q-53 0 -53 -76q0 -75 53 -75z" />
    <glyph glyph-name="guilsinglleft" unicode="&#x2039;" horiz-adv-x="361" 
d="M166 279l111 -134q16 -19 13.5 -39.5t-20.5 -34.5q-40 -27 -72 11l-128 161q-14 17 -14 36q0 18 14 35l127 161q33 39 73 11q18 -14 20.5 -34.5t-13.5 -39.5z" />
    <glyph glyph-name="guilsinglright" unicode="&#x203a;" horiz-adv-x="361" 
d="M195 279l-110 133q-16 19 -14 39.5t21 34.5q18 13 37.5 10t34.5 -21l128 -161q13 -17 13 -35q0 -19 -14 -36l-128 -161q-31 -39 -71 -11q-19 14 -21 34.5t14 39.5z" />
    <glyph glyph-name="fraction" unicode="&#x2044;" horiz-adv-x="544" 
d="M455 708q28 -17 8 -55l-336 -655q-8 -14 -25 -17.5t-31 6.5q-30 20 -8 55l336 655q8 14 24.5 17.5t31.5 -6.5z" />
    <glyph glyph-name="uni2074" unicode="&#x2074;" horiz-adv-x="325" 
d="M259 536q14 0 25 -11t11 -26t-11 -25.5t-25 -10.5q-17 0 -17 -15v-14q0 -17 -10 -27t-27 -10q-36 0 -36 37v14q0 15 -24 15h-81q-18 0 -29.5 10t-11.5 26q0 10 10 30l102 162q22 33 54 15q16 -8 19.5 -25t-7.5 -33l-78 -112h16q21 0 33 -7v9q0 18 9 28.5t24 10.5
q34 0 34 -39v-7q10 5 20 5z" />
    <glyph glyph-name="Euro" unicode="&#x20ac;" horiz-adv-x="599" 
d="M516 175q47 -27 22 -79q-21 -44 -73.5 -74t-117.5 -30q-91 0 -154 60t-87 163h-28q-41 0 -41 38t41 38h17v36v33h-17q-41 0 -41 38t41 38h27q24 104 87 164.5t155 60.5q64 0 112.5 -28t69.5 -68q25 -47 -24 -77q-19 -11 -32.5 -10.5t-20.5 7t-21 23.5q-38 45 -84 45
q-44 0 -75 -31t-46 -86h107q18 0 29 -10.5t11 -28.5q0 -37 -41 -37h-171v-6q18 0 32.5 -9.5t18.5 -20.5q0 -22 1 -33h120q18 0 29 -10.5t11 -28.5q0 -37 -41 -37h-156v-5q18 0 39.5 -13.5t29.5 -28.5q39 -68 110 -68q57 0 86 51q31 50 75 24z" />
    <glyph glyph-name="trademark" unicode="&#x2122;" horiz-adv-x="722" 
d="M683 455q6 -46 -31 -53q-20 -4 -34.5 6.5t-17.5 32.5l-13 117l-31 -83q-11 -27 -40 -27q-31 0 -40 28l-31 82l-8 -117q-2 -22 -16.5 -33t-35.5 -6q-38 7 -32 53l27 215q3 19 16 30t30 11q27 0 38 -27l52 -118l54 119q11 27 38 27q18 0 31 -11.5t15 -29.5zM115 711
q55 0 85.5 -20t30.5 -82v-162q0 -20 -12 -33t-33 -13q-19 0 -31 13t-12 33v144q0 20 -11 29t-26 9h-24q-20 0 -32 11t-12 30t12 30t32 11h33zM307 711q19 0 31 -11t12 -30t-12 -30t-31 -11h-30q-20 0 -32 11t-12 30t12 30t32 11h30z" />
    <glyph glyph-name="minus" unicode="&#x2212;" horiz-adv-x="600" 
d="M549 281q0 -26 -16.5 -41.5t-43.5 -15.5h-378q-27 0 -43.5 15.5t-16.5 41.5t16.5 41.5t43.5 15.5h378q27 0 43.5 -15.5t16.5 -41.5z" />
    <glyph glyph-name="A.ss01" 
d="M583 85q10 -25 1 -48t-34 -33q-24 -10 -46.5 0.5t-32.5 36.5l-186 499l-4 -9q21 -61 4 -114l-140 -376q-9 -26 -31.5 -36.5t-47.5 -0.5t-34 33t1 48l217 534q16 42 58 42q43 0 58 -42zM387 165q0 -25 -16 -39.5t-42 -14.5h-42q-26 0 -41.5 14.5t-15.5 39.5t15.5 40
t41.5 15h42q26 0 42 -15t16 -40z" />
    <glyph glyph-name="A.ss02" 
d="M583 85q10 -25 1 -48t-34 -33q-24 -10 -46.5 0.5t-32.5 36.5l-186 499l-4 -9q21 -61 3 -114l-139 -376q-10 -26 -32 -36.5t-47 -0.5t-34 33t1 48l217 534q16 42 58 42q43 0 58 -42zM309 216q26 0 41 -13.5t15 -38.5q0 -24 -15 -38t-41 -14h-2q-26 0 -41 14t-15 38
q0 25 15 38.5t41 13.5h2z" />
    <glyph glyph-name="Aacute.ss01" 
d="M315 870q40 34 74 -5q33 -39 -9 -74l-77 -65q-19 -17 -39.5 -16t-36.5 20q-16 18 -13 38t23 36zM583 85q10 -25 1 -48t-34 -33q-24 -10 -46.5 0.5t-32.5 36.5l-186 499l-4 -9q21 -61 4 -114l-140 -376q-9 -26 -31.5 -36.5t-47.5 -0.5t-34 33t1 48l217 534q16 42 58 42
q43 0 58 -42zM387 165q0 -25 -16 -39.5t-42 -14.5h-42q-26 0 -41.5 14.5t-15.5 39.5t15.5 40t41.5 15h42q26 0 42 -15t16 -40z" />
    <glyph glyph-name="Aacute.ss02" 
d="M315 870q40 34 74 -5q33 -39 -9 -74l-77 -65q-19 -17 -39.5 -16t-36.5 20q-16 18 -13 38t23 36zM583 85q10 -25 1 -48t-34 -33q-24 -10 -46.5 0.5t-32.5 36.5l-186 499l-4 -9q21 -61 3 -114l-139 -376q-10 -26 -32 -36.5t-47 -0.5t-34 33t1 48l217 534q16 42 58 42
q43 0 58 -42zM309 216q26 0 41 -13.5t15 -38.5q0 -24 -15 -38t-41 -14h-2q-26 0 -41 14t-15 38q0 25 15 38.5t41 13.5h2z" />
    <glyph glyph-name="Abreve.ss01" 
d="M440 874q43 -22 12 -83q-43 -81 -144 -81q-102 0 -145 81q-31 61 12 83q43 25 72 -21q11 -18 16 -24.5t17.5 -15t27.5 -8.5t27 8t17.5 15.5t15.5 24.5q29 46 72 21zM583 85q10 -25 1 -48t-34 -33q-24 -10 -46.5 0.5t-32.5 36.5l-186 499l-4 -9q21 -61 4 -114l-140 -376
q-9 -26 -31.5 -36.5t-47.5 -0.5t-34 33t1 48l217 534q16 42 58 42q43 0 58 -42zM387 165q0 -25 -16 -39.5t-42 -14.5h-42q-26 0 -41.5 14.5t-15.5 39.5t15.5 40t41.5 15h42q26 0 42 -15t16 -40z" />
    <glyph glyph-name="Abreve.ss02" 
d="M440 874q43 -22 12 -83q-43 -81 -144 -81q-102 0 -145 81q-31 61 12 83q43 25 72 -21q11 -18 16 -24.5t17.5 -15t27.5 -8.5t27 8t17.5 15.5t15.5 24.5q29 46 72 21zM583 85q10 -25 1 -48t-34 -33q-24 -10 -46.5 0.5t-32.5 36.5l-186 499l-4 -9q21 -61 3 -114l-139 -376
q-10 -26 -32 -36.5t-47 -0.5t-34 33t1 48l217 534q16 42 58 42q43 0 58 -42zM309 216q26 0 41 -13.5t15 -38.5q0 -24 -15 -38t-41 -14h-2q-26 0 -41 14t-15 38q0 25 15 38.5t41 13.5h2z" />
    <glyph glyph-name="Acircumflex.ss01" 
d="M431 729q-17 -19 -37.5 -20.5t-36.5 15.5l-49 52l-50 -52q-17 -16 -37 -15t-37 20q-33 39 9 74l77 65q17 16 38 16q20 0 37 -16l77 -65q42 -35 9 -74zM583 85q10 -25 1 -48t-34 -33q-24 -10 -46.5 0.5t-32.5 36.5l-186 499l-4 -9q21 -61 4 -114l-140 -376
q-9 -26 -31.5 -36.5t-47.5 -0.5t-34 33t1 48l217 534q16 42 58 42q43 0 58 -42zM387 165q0 -25 -16 -39.5t-42 -14.5h-42q-26 0 -41.5 14.5t-15.5 39.5t15.5 40t41.5 15h42q26 0 42 -15t16 -40z" />
    <glyph glyph-name="Acircumflex.ss02" 
d="M431 729q-17 -19 -37.5 -20.5t-36.5 15.5l-49 52l-50 -52q-17 -16 -37 -15t-37 20q-33 39 9 74l77 65q17 16 38 16q20 0 37 -16l77 -65q42 -35 9 -74zM583 85q10 -25 1 -48t-34 -33q-24 -10 -46.5 0.5t-32.5 36.5l-186 499l-4 -9q21 -61 3 -114l-139 -376
q-10 -26 -32 -36.5t-47 -0.5t-34 33t1 48l217 534q16 42 58 42q43 0 58 -42zM309 216q26 0 41 -13.5t15 -38.5q0 -24 -15 -38t-41 -14h-2q-26 0 -41 14t-15 38q0 25 15 38.5t41 13.5h2z" />
    <glyph glyph-name="Adieresis.ss01" 
d="M230 707q-25 0 -40 15.5t-15 39.5t15 39.5t40 15.5t40 -15.5t15 -39.5t-15 -39.5t-40 -15.5zM385 707q-25 0 -40 15.5t-15 39.5t15 39.5t40 15.5t40.5 -15.5t15.5 -39.5t-15.5 -39.5t-40.5 -15.5zM583 85q10 -25 1 -48t-34 -33q-24 -10 -46.5 0.5t-32.5 36.5l-186 499
l-4 -9q21 -61 4 -114l-140 -376q-9 -26 -31.5 -36.5t-47.5 -0.5t-34 33t1 48l217 534q16 42 58 42q43 0 58 -42zM387 165q0 -25 -16 -39.5t-42 -14.5h-42q-26 0 -41.5 14.5t-15.5 39.5t15.5 40t41.5 15h42q26 0 42 -15t16 -40z" />
    <glyph glyph-name="Adieresis.ss02" 
d="M230 707q-25 0 -40 15.5t-15 39.5t15 39.5t40 15.5t40 -15.5t15 -39.5t-15 -39.5t-40 -15.5zM385 707q-25 0 -40 15.5t-15 39.5t15 39.5t40 15.5t40.5 -15.5t15.5 -39.5t-15.5 -39.5t-40.5 -15.5zM583 85q10 -25 1 -48t-34 -33q-24 -10 -46.5 0.5t-32.5 36.5l-186 499
l-4 -9q21 -61 3 -114l-139 -376q-10 -26 -32 -36.5t-47 -0.5t-34 33t1 48l217 534q16 42 58 42q43 0 58 -42zM309 216q26 0 41 -13.5t15 -38.5q0 -24 -15 -38t-41 -14h-2q-26 0 -41 14t-15 38q0 25 15 38.5t41 13.5h2z" />
    <glyph glyph-name="Agrave.ss01" 
d="M301 870l78 -66q20 -16 23 -36t-13 -38q-16 -19 -36.5 -20t-39.5 16l-77 65q-42 35 -9 74q34 39 74 5zM583 85q10 -25 1 -48t-34 -33q-24 -10 -46.5 0.5t-32.5 36.5l-186 499l-4 -9q21 -61 4 -114l-140 -376q-9 -26 -31.5 -36.5t-47.5 -0.5t-34 33t1 48l217 534
q16 42 58 42q43 0 58 -42zM387 165q0 -25 -16 -39.5t-42 -14.5h-42q-26 0 -41.5 14.5t-15.5 39.5t15.5 40t41.5 15h42q26 0 42 -15t16 -40z" />
    <glyph glyph-name="Agrave.ss02" 
d="M301 870l78 -66q20 -16 23 -36t-13 -38q-16 -19 -36.5 -20t-39.5 16l-77 65q-42 35 -9 74q34 39 74 5zM583 85q10 -25 1 -48t-34 -33q-24 -10 -46.5 0.5t-32.5 36.5l-186 499l-4 -9q21 -61 3 -114l-139 -376q-10 -26 -32 -36.5t-47 -0.5t-34 33t1 48l217 534q16 42 58 42
q43 0 58 -42zM309 216q26 0 41 -13.5t15 -38.5q0 -24 -15 -38t-41 -14h-2q-26 0 -41 14t-15 38q0 25 15 38.5t41 13.5h2z" />
    <glyph glyph-name="Amacron.ss01" 
d="M450 756q0 -22 -14 -35t-37 -13h-182q-23 0 -37 13t-14 35t14 35t37 13h182q23 0 37 -13t14 -35zM583 85q10 -25 1 -48t-34 -33q-24 -10 -46.5 0.5t-32.5 36.5l-186 499l-4 -9q21 -61 4 -114l-140 -376q-9 -26 -31.5 -36.5t-47.5 -0.5t-34 33t1 48l217 534q16 42 58 42
q43 0 58 -42zM387 165q0 -25 -16 -39.5t-42 -14.5h-42q-26 0 -41.5 14.5t-15.5 39.5t15.5 40t41.5 15h42q26 0 42 -15t16 -40z" />
    <glyph glyph-name="Amacron.ss02" 
d="M450 756q0 -22 -14 -35t-37 -13h-182q-23 0 -37 13t-14 35t14 35t37 13h182q23 0 37 -13t14 -35zM583 85q10 -25 1 -48t-34 -33q-24 -10 -46.5 0.5t-32.5 36.5l-186 499l-4 -9q21 -61 3 -114l-139 -376q-10 -26 -32 -36.5t-47 -0.5t-34 33t1 48l217 534q16 42 58 42
q43 0 58 -42zM309 216q26 0 41 -13.5t15 -38.5q0 -24 -15 -38t-41 -14h-2q-26 0 -41 14t-15 38q0 25 15 38.5t41 13.5h2z" />
    <glyph glyph-name="Aogonek.001" 
d="M589 -95q16 -37 -19 -59q-24 -14 -56 -14q-41 -1 -68.5 20.5t-28.5 62.5q-2 68 67 104q-9 11 -13 22l-186 499l-4 -9q21 -61 4 -114l-140 -376q-9 -26 -31.5 -36.5t-47.5 -0.5t-34 33t1 48l217 534q16 42 58 42q43 0 58 -42l217 -534q10 -25 1 -48t-34 -33q-6 -2 -14 -4
q-47 -16 -47 -49q0 -24 24 -24q1 0 29 7q32 9 47 -29zM329 220q26 0 42 -15t16 -40t-16 -39.5t-42 -14.5h-42q-26 0 -41.5 14.5t-15.5 39.5t15.5 40t41.5 15h42z" />
    <glyph glyph-name="Aogonek.ss02" 
d="M589 -95q16 -37 -19 -59q-24 -14 -56 -14q-41 -1 -68.5 20.5t-28.5 62.5q-2 68 67 104q-9 11 -13 22l-186 499l-4 -9q21 -61 3 -114l-139 -376q-10 -26 -32 -36.5t-47 -0.5t-34 33t1 48l217 534q16 42 58 42q43 0 58 -42l217 -534q10 -25 1 -48t-34 -33q-6 -2 -14 -4
q-47 -16 -47 -49q0 -24 24 -24q1 0 29 7q32 9 47 -29zM309 216q26 0 41 -13.5t15 -38.5q0 -24 -15 -38t-41 -14h-2q-26 0 -41 14t-15 38q0 25 15 38.5t41 13.5h2z" />
    <glyph glyph-name="Aring.ss01" 
d="M308 700q-45 0 -73 28t-28 73q0 44 28 72t73 28q44 0 72 -28t28 -72q0 -45 -28 -73t-72 -28zM308 763q37 0 37 38q0 37 -37 37q-38 0 -38 -37q0 -38 38 -38zM583 85q10 -25 1 -48t-34 -33q-24 -10 -46.5 0.5t-32.5 36.5l-186 499l-4 -9q21 -61 4 -114l-140 -376
q-9 -26 -31.5 -36.5t-47.5 -0.5t-34 33t1 48l217 534q16 42 58 42q43 0 58 -42zM387 165q0 -25 -16 -39.5t-42 -14.5h-42q-26 0 -41.5 14.5t-15.5 39.5t15.5 40t41.5 15h42q26 0 42 -15t16 -40z" />
    <glyph glyph-name="Aring.ss02" 
d="M308 700q-45 0 -73 28t-28 73q0 44 28 72t73 28q44 0 72 -28t28 -72q0 -45 -28 -73t-72 -28zM308 763q37 0 37 38q0 37 -37 37q-38 0 -38 -37q0 -38 38 -38zM583 85q10 -25 1 -48t-34 -33q-24 -10 -46.5 0.5t-32.5 36.5l-186 499l-4 -9q21 -61 3 -114l-139 -376
q-10 -26 -32 -36.5t-47 -0.5t-34 33t1 48l217 534q16 42 58 42q43 0 58 -42zM309 216q26 0 41 -13.5t15 -38.5q0 -24 -15 -38t-41 -14h-2q-26 0 -41 14t-15 38q0 25 15 38.5t41 13.5h2z" />
    <glyph glyph-name="Atilde.ss01" 
d="M432 794q21 -34 -17 -69q-24 -23 -47.5 -24t-62.5 18q-26 9 -31.5 8t-22.5 -13q-18 -12 -37 -7.5t-30 23.5q-18 31 16 67q44 44 108 10q26 -12 31.5 -12t22.5 12q21 14 39.5 10t30.5 -23zM583 85q10 -25 1 -48t-34 -33q-24 -10 -46.5 0.5t-32.5 36.5l-186 499l-4 -9
q21 -61 4 -114l-140 -376q-9 -26 -31.5 -36.5t-47.5 -0.5t-34 33t1 48l217 534q16 42 58 42q43 0 58 -42zM387 165q0 -25 -16 -39.5t-42 -14.5h-42q-26 0 -41.5 14.5t-15.5 39.5t15.5 40t41.5 15h42q26 0 42 -15t16 -40z" />
    <glyph glyph-name="Atilde.ss02" 
d="M432 794q21 -34 -17 -69q-24 -23 -47.5 -24t-62.5 18q-26 9 -31.5 8t-22.5 -13q-18 -12 -37 -7.5t-30 23.5q-18 31 16 67q44 44 108 10q26 -12 31.5 -12t22.5 12q21 14 39.5 10t30.5 -23zM583 85q10 -25 1 -48t-34 -33q-24 -10 -46.5 0.5t-32.5 36.5l-186 499l-4 -9
q21 -61 3 -114l-139 -376q-10 -26 -32 -36.5t-47 -0.5t-34 33t1 48l217 534q16 42 58 42q43 0 58 -42zM309 216q26 0 41 -13.5t15 -38.5q0 -24 -15 -38t-41 -14h-2q-26 0 -41 14t-15 38q0 25 15 38.5t41 13.5h2z" />
    <glyph glyph-name="AE.ss01" horiz-adv-x="915" 
d="M813 113q27 0 43.5 -15.5t16.5 -40.5q0 -26 -16.5 -41.5t-43.5 -15.5h-299q-27 0 -43.5 17.5t-16.5 45.5v478h-133l-2 -6q31 0 47 -22l-257 -479q-13 -24 -35.5 -31.5t-46.5 5.5q-23 12 -26 36.5t11 46.5l276 527q18 35 56 35h464q27 0 43.5 -15.5t16.5 -41.5
q0 -25 -16.5 -40.5t-43.5 -15.5h-295v-6q22 0 40.5 -16t18.5 -42v-363h241zM677 391h86q27 0 44 -15.5t17 -41.5t-17 -42t-44 -16h-86q-27 0 -44 16t-17 42t17 41.5t44 15.5zM350 228q27 0 43.5 -15.5t16.5 -41.5t-16.5 -41.5t-43.5 -15.5h-57q-27 0 -43.5 15.5t-16.5 41.5
t16.5 41.5t43.5 15.5h57z" />
    <glyph glyph-name="B.ss01" horiz-adv-x="611" 
d="M483 350q35 -26 57 -66.5t22 -89.5q0 -85 -51 -139.5t-141 -54.5h-70q-26 0 -42.5 15.5t-16.5 40.5t16.5 40.5t42.5 15.5h56q43 0 66 22.5t23 62.5q0 39 -18.5 61.5t-53.5 22.5h-66q-26 0 -41.5 14.5t-15.5 38.5t15.5 38.5t41.5 14.5h32q69 0 69 77t-88 77h-195v-6
q22 0 41.5 -16t19.5 -42v-414q0 -27 -16.5 -45t-43.5 -18t-43.5 17.5t-16.5 45.5v527q0 28 16.5 45.5t44.5 17.5h203q91 0 143 -51.5t52 -134.5q0 -64 -42 -117z" />
    <glyph glyph-name="B.ss02" horiz-adv-x="611" 
d="M436 318l6 -3q20 12 42.5 11t33.5 -13q44 -48 44 -123q0 -82 -55.5 -136t-145.5 -54h-65q-26 0 -42.5 15.5t-16.5 40.5t16 40.5t42 15.5h52q45 0 71 23.5t26 66.5q0 27 -12 44.5t-25 23.5t-34 10q-33 8 -42 30q-17 41 21 68q54 38 54 90q0 82 -98 82q-126 0 -126 -160
v-327q0 -28 -16.5 -45.5t-43.5 -17.5t-43.5 18t-16.5 45v335q0 131 71.5 197t179.5 66q100 0 155 -52.5t55 -133.5q0 -99 -87 -157z" />
    <glyph glyph-name="D.ss01" horiz-adv-x="659" 
d="M310 653q136 0 219 -87.5t83 -238.5q0 -150 -82 -238.5t-214 -88.5h-15q-27 0 -43.5 15.5t-16.5 41.5q0 25 16.5 40.5t43.5 15.5h23q142 0 192 73l-5 3q-17 -24 -43 -32.5t-42 -5.5q66 56 66 176q0 99 -46 156t-136 57h-185v-6q22 0 41.5 -16t19.5 -42v-413
q0 -27 -16.5 -45t-43.5 -18t-43.5 17.5t-16.5 45.5v527q0 28 16.5 45.5t43.5 17.5h184z" />
    <glyph glyph-name="Eth.ss01" horiz-adv-x="708" 
d="M359 653q136 0 219 -87.5t83 -238.5q0 -150 -82 -238.5t-214 -88.5h-15q-27 0 -43.5 15.5t-16.5 41.5q0 25 16.5 40.5t43.5 15.5h15q88 0 132 58.5t44 155.5q0 99 -46 156t-136 57h-185v-6q22 0 41.5 -16t19.5 -42v-104h71q24 0 39 -14t15 -37t-15 -37t-39 -14h-132v-6
q22 0 41.5 -16t19.5 -42v-143q0 -28 -16.5 -45.5t-43.5 -17.5t-43.5 18t-16.5 45v207h-29q-24 0 -39 14t-15 37t15 37t39 14h29v218q0 27 16.5 45t43.5 18h184z" />
    <glyph glyph-name="Dcaron.ss01" horiz-adv-x="659" 
d="M417 865q33 -39 -9 -74l-77 -65q-17 -16 -37 -16q-21 0 -38 16l-77 65q-42 35 -9 74q17 19 37 20t37 -15l50 -52l49 52q16 17 36.5 15.5t37.5 -20.5zM310 653q136 0 219 -87.5t83 -238.5q0 -150 -82 -238.5t-214 -88.5h-15q-27 0 -43.5 15.5t-16.5 41.5q0 25 16.5 40.5
t43.5 15.5h23q142 0 192 73l-5 3q-17 -24 -43 -32.5t-42 -5.5q66 56 66 176q0 99 -46 156t-136 57h-185v-6q22 0 41.5 -16t19.5 -42v-413q0 -27 -16.5 -45t-43.5 -18t-43.5 17.5t-16.5 45.5v527q0 28 16.5 45.5t43.5 17.5h184z" />
    <glyph glyph-name="Dcroat.ss01" horiz-adv-x="708" 
d="M359 653q136 0 219 -87.5t83 -238.5q0 -150 -82 -238.5t-214 -88.5h-15q-27 0 -43.5 15.5t-16.5 41.5q0 25 16.5 40.5t43.5 15.5h15q88 0 132 58.5t44 155.5q0 99 -46 156t-136 57h-185v-6q22 0 41.5 -16t19.5 -42v-104h71q24 0 39 -14t15 -37t-15 -37t-39 -14h-132v-6
q22 0 41.5 -16t19.5 -42v-143q0 -28 -16.5 -45.5t-43.5 -17.5t-43.5 18t-16.5 45v207h-29q-24 0 -39 14t-15 37t15 37t39 14h29v218q0 27 16.5 45t43.5 18h184z" />
    <glyph glyph-name="E.ss01" horiz-adv-x="526" 
d="M425 113q26 0 43 -15.5t17 -40.5t-17 -41t-43 -16h-299q-27 0 -43.5 17.5t-16.5 45.5v527q0 28 16.5 45.5t43.5 17.5h294q26 0 43 -16t17 -41t-17 -40.5t-43 -15.5h-295v-6q22 0 40.5 -16t18.5 -42v-363h241zM375 391q27 0 44 -15.5t17 -41.5t-17 -42t-44 -16h-86
q-27 0 -44 16t-17 42t17 41.5t44 15.5h86z" />
    <glyph glyph-name="E.ss02" horiz-adv-x="644" 
d="M476 490q-1 0 -8.5 7t-10 8.5t-10.5 7.5t-13.5 8.5t-15.5 7.5t-19.5 7t-21.5 5t-26 4t-30 1q-124 0 -167 -74l5 -3q27 42 75 33q-65 -57 -65 -175q0 -96 47 -158t133 -62q18 0 34.5 3.5t27 7t24.5 12.5t18.5 12.5t17.5 15t14 12.5q45 37 82 1q40 -40 2 -86
q-30 -37 -91 -65t-135 -28q-133 0 -214.5 94.5t-81.5 239.5q0 147 81 241t213 94q70 0 130 -25.5t90 -60.5q35 -42 -6 -83q-24 -21 -40.5 -20.5t-38.5 18.5zM413 391q27 0 44 -16t17 -41q0 -26 -17 -42t-44 -16h-129q-27 0 -44 16t-17 42q0 25 17 41t44 16h129z" />
    <glyph glyph-name="Eacute.ss01" horiz-adv-x="526" 
d="M278 870q40 34 74 -5q33 -39 -9 -74l-77 -65q-19 -17 -39.5 -16t-36.5 20q-16 18 -13 38t23 36zM425 113q26 0 43 -15.5t17 -40.5t-17 -41t-43 -16h-299q-27 0 -43.5 17.5t-16.5 45.5v527q0 28 16.5 45.5t43.5 17.5h294q26 0 43 -16t17 -41t-17 -40.5t-43 -15.5h-295v-6
q22 0 40.5 -16t18.5 -42v-363h241zM375 391q27 0 44 -15.5t17 -41.5t-17 -42t-44 -16h-86q-27 0 -44 16t-17 42t17 41.5t44 15.5h86z" />
    <glyph glyph-name="Eacute.ss02" horiz-adv-x="644" 
d="M343 870q40 34 74 -5q33 -39 -9 -74l-77 -65q-19 -17 -39.5 -16t-36.5 20q-16 18 -13 38t23 36zM476 490q-1 0 -8.5 7t-10 8.5t-10.5 7.5t-13.5 8.5t-15.5 7.5t-19.5 7t-21.5 5t-26 4t-30 1q-124 0 -167 -74l5 -3q27 42 75 33q-65 -57 -65 -175q0 -96 47 -158t133 -62
q18 0 34.5 3.5t27 7t24.5 12.5t18.5 12.5t17.5 15t14 12.5q45 37 82 1q40 -40 2 -86q-30 -37 -91 -65t-135 -28q-133 0 -214.5 94.5t-81.5 239.5q0 147 81 241t213 94q70 0 130 -25.5t90 -60.5q35 -42 -6 -83q-24 -21 -40.5 -20.5t-38.5 18.5zM413 391q27 0 44 -16t17 -41
q0 -26 -17 -42t-44 -16h-129q-27 0 -44 16t-17 42q0 25 17 41t44 16h129z" />
    <glyph glyph-name="Ebreve.ss01" horiz-adv-x="526" 
d="M403 874q43 -22 12 -83q-43 -81 -144 -81q-102 0 -145 81q-31 61 12 83q43 25 72 -21q11 -18 16 -24.5t17.5 -15t27.5 -8.5t27 8t17.5 15.5t15.5 24.5q29 46 72 21zM425 113q26 0 43 -15.5t17 -40.5t-17 -41t-43 -16h-299q-27 0 -43.5 17.5t-16.5 45.5v527
q0 28 16.5 45.5t43.5 17.5h294q26 0 43 -16t17 -41t-17 -40.5t-43 -15.5h-295v-6q22 0 40.5 -16t18.5 -42v-363h241zM375 391q27 0 44 -15.5t17 -41.5t-17 -42t-44 -16h-86q-27 0 -44 16t-17 42t17 41.5t44 15.5h86z" />
    <glyph glyph-name="Ebreve.ss02" horiz-adv-x="644" 
d="M468 874q43 -22 12 -83q-43 -81 -144 -81q-102 0 -145 81q-31 61 12 83q43 25 72 -21q11 -18 16 -24.5t17.5 -15t27.5 -8.5t27 8t17.5 15.5t15.5 24.5q29 46 72 21zM476 490q-1 0 -8.5 7t-10 8.5t-10.5 7.5t-13.5 8.5t-15.5 7.5t-19.5 7t-21.5 5t-26 4t-30 1
q-124 0 -167 -74l5 -3q27 42 75 33q-65 -57 -65 -175q0 -96 47 -158t133 -62q18 0 34.5 3.5t27 7t24.5 12.5t18.5 12.5t17.5 15t14 12.5q45 37 82 1q40 -40 2 -86q-30 -37 -91 -65t-135 -28q-133 0 -214.5 94.5t-81.5 239.5q0 147 81 241t213 94q70 0 130 -25.5t90 -60.5
q35 -42 -6 -83q-24 -21 -40.5 -20.5t-38.5 18.5zM413 391q27 0 44 -16t17 -41q0 -26 -17 -42t-44 -16h-129q-27 0 -44 16t-17 42q0 25 17 41t44 16h129z" />
    <glyph glyph-name="Ecaron.ss01" horiz-adv-x="526" 
d="M394 865q33 -39 -9 -74l-77 -65q-17 -16 -37 -16q-21 0 -38 16l-77 65q-42 35 -9 74q17 19 37 20t37 -15l50 -52l49 52q16 17 36.5 15.5t37.5 -20.5zM425 113q26 0 43 -15.5t17 -40.5t-17 -41t-43 -16h-299q-27 0 -43.5 17.5t-16.5 45.5v527q0 28 16.5 45.5t43.5 17.5
h294q26 0 43 -16t17 -41t-17 -40.5t-43 -15.5h-295v-6q22 0 40.5 -16t18.5 -42v-363h241zM375 391q27 0 44 -15.5t17 -41.5t-17 -42t-44 -16h-86q-27 0 -44 16t-17 42t17 41.5t44 15.5h86z" />
    <glyph glyph-name="Ecaron.ss02" horiz-adv-x="644" 
d="M459 865q33 -39 -9 -74l-77 -65q-17 -16 -37 -16q-21 0 -38 16l-77 65q-42 35 -9 74q17 19 37 20t37 -15l50 -52l49 52q16 17 36.5 15.5t37.5 -20.5zM476 490q-1 0 -8.5 7t-10 8.5t-10.5 7.5t-13.5 8.5t-15.5 7.5t-19.5 7t-21.5 5t-26 4t-30 1q-124 0 -167 -74l5 -3
q27 42 75 33q-65 -57 -65 -175q0 -96 47 -158t133 -62q18 0 34.5 3.5t27 7t24.5 12.5t18.5 12.5t17.5 15t14 12.5q45 37 82 1q40 -40 2 -86q-30 -37 -91 -65t-135 -28q-133 0 -214.5 94.5t-81.5 239.5q0 147 81 241t213 94q70 0 130 -25.5t90 -60.5q35 -42 -6 -83
q-24 -21 -40.5 -20.5t-38.5 18.5zM413 391q27 0 44 -16t17 -41q0 -26 -17 -42t-44 -16h-129q-27 0 -44 16t-17 42q0 25 17 41t44 16h129z" />
    <glyph glyph-name="Ecircumflex.ss01" horiz-adv-x="526" 
d="M394 729q-17 -19 -37.5 -20.5t-36.5 15.5l-49 52l-50 -52q-17 -16 -37 -15t-37 20q-33 39 9 74l77 65q17 16 38 16q20 0 37 -16l77 -65q42 -35 9 -74zM425 113q26 0 43 -15.5t17 -40.5t-17 -41t-43 -16h-299q-27 0 -43.5 17.5t-16.5 45.5v527q0 28 16.5 45.5t43.5 17.5
h294q26 0 43 -16t17 -41t-17 -40.5t-43 -15.5h-295v-6q22 0 40.5 -16t18.5 -42v-363h241zM375 391q27 0 44 -15.5t17 -41.5t-17 -42t-44 -16h-86q-27 0 -44 16t-17 42t17 41.5t44 15.5h86z" />
    <glyph glyph-name="Ecircumflex.ss02" horiz-adv-x="644" 
d="M459 729q-17 -19 -37.5 -20.5t-36.5 15.5l-49 52l-50 -52q-17 -16 -37 -15t-37 20q-33 39 9 74l77 65q17 16 38 16q20 0 37 -16l77 -65q42 -35 9 -74zM476 490q-1 0 -8.5 7t-10 8.5t-10.5 7.5t-13.5 8.5t-15.5 7.5t-19.5 7t-21.5 5t-26 4t-30 1q-124 0 -167 -74l5 -3
q27 42 75 33q-65 -57 -65 -175q0 -96 47 -158t133 -62q18 0 34.5 3.5t27 7t24.5 12.5t18.5 12.5t17.5 15t14 12.5q45 37 82 1q40 -40 2 -86q-30 -37 -91 -65t-135 -28q-133 0 -214.5 94.5t-81.5 239.5q0 147 81 241t213 94q70 0 130 -25.5t90 -60.5q35 -42 -6 -83
q-24 -21 -40.5 -20.5t-38.5 18.5zM413 391q27 0 44 -16t17 -41q0 -26 -17 -42t-44 -16h-129q-27 0 -44 16t-17 42q0 25 17 41t44 16h129z" />
    <glyph glyph-name="Edieresis.ss01" horiz-adv-x="526" 
d="M193 707q-25 0 -40 15.5t-15 39.5t15 39.5t40 15.5t40 -15.5t15 -39.5t-15 -39.5t-40 -15.5zM348 707q-25 0 -40 15.5t-15 39.5t15 39.5t40 15.5t40.5 -15.5t15.5 -39.5t-15.5 -39.5t-40.5 -15.5zM425 113q26 0 43 -15.5t17 -40.5t-17 -41t-43 -16h-299q-27 0 -43.5 17.5
t-16.5 45.5v527q0 28 16.5 45.5t43.5 17.5h294q26 0 43 -16t17 -41t-17 -40.5t-43 -15.5h-295v-6q22 0 40.5 -16t18.5 -42v-363h241zM375 391q27 0 44 -15.5t17 -41.5t-17 -42t-44 -16h-86q-27 0 -44 16t-17 42t17 41.5t44 15.5h86z" />
    <glyph glyph-name="Edieresis.ss02" horiz-adv-x="644" 
d="M258 707q-25 0 -40 15.5t-15 39.5t15 39.5t40 15.5t40 -15.5t15 -39.5t-15 -39.5t-40 -15.5zM413 707q-25 0 -40 15.5t-15 39.5t15 39.5t40 15.5t40.5 -15.5t15.5 -39.5t-15.5 -39.5t-40.5 -15.5zM476 490q-1 0 -8.5 7t-10 8.5t-10.5 7.5t-13.5 8.5t-15.5 7.5t-19.5 7
t-21.5 5t-26 4t-30 1q-124 0 -167 -74l5 -3q27 42 75 33q-65 -57 -65 -175q0 -96 47 -158t133 -62q18 0 34.5 3.5t27 7t24.5 12.5t18.5 12.5t17.5 15t14 12.5q45 37 82 1q40 -40 2 -86q-30 -37 -91 -65t-135 -28q-133 0 -214.5 94.5t-81.5 239.5q0 147 81 241t213 94
q70 0 130 -25.5t90 -60.5q35 -42 -6 -83q-24 -21 -40.5 -20.5t-38.5 18.5zM413 391q27 0 44 -16t17 -41q0 -26 -17 -42t-44 -16h-129q-27 0 -44 16t-17 42q0 25 17 41t44 16h129z" />
    <glyph glyph-name="Edotaccent.001" horiz-adv-x="526" 
d="M271 694q-28 0 -45.5 18t-17.5 45t17.5 45t45.5 18t45.5 -18t17.5 -45t-17.5 -45t-45.5 -18zM425 113q26 0 43 -15.5t17 -40.5t-17 -41t-43 -16h-299q-27 0 -43.5 17.5t-16.5 45.5v527q0 28 16.5 45.5t43.5 17.5h294q26 0 43 -16t17 -41t-17 -40.5t-43 -15.5h-295v-6
q22 0 40.5 -16t18.5 -42v-363h241zM375 391q27 0 44 -15.5t17 -41.5t-17 -42t-44 -16h-86q-27 0 -44 16t-17 42t17 41.5t44 15.5h86z" />
    <glyph glyph-name="Edotaccent.ss02" horiz-adv-x="644" 
d="M336 694q-28 0 -45.5 18t-17.5 45t17.5 45t45.5 18t45.5 -18t17.5 -45t-17.5 -45t-45.5 -18zM476 490q-1 0 -8.5 7t-10 8.5t-10.5 7.5t-13.5 8.5t-15.5 7.5t-19.5 7t-21.5 5t-26 4t-30 1q-124 0 -167 -74l5 -3q27 42 75 33q-65 -57 -65 -175q0 -96 47 -158t133 -62
q18 0 34.5 3.5t27 7t24.5 12.5t18.5 12.5t17.5 15t14 12.5q45 37 82 1q40 -40 2 -86q-30 -37 -91 -65t-135 -28q-133 0 -214.5 94.5t-81.5 239.5q0 147 81 241t213 94q70 0 130 -25.5t90 -60.5q35 -42 -6 -83q-24 -21 -40.5 -20.5t-38.5 18.5zM413 391q27 0 44 -16t17 -41
q0 -26 -17 -42t-44 -16h-129q-27 0 -44 16t-17 42q0 25 17 41t44 16h129z" />
    <glyph glyph-name="Egrave.ss01" horiz-adv-x="526" 
d="M264 870l78 -66q20 -16 23 -36t-13 -38q-16 -19 -36.5 -20t-39.5 16l-77 65q-42 35 -9 74q34 39 74 5zM425 113q26 0 43 -15.5t17 -40.5t-17 -41t-43 -16h-299q-27 0 -43.5 17.5t-16.5 45.5v527q0 28 16.5 45.5t43.5 17.5h294q26 0 43 -16t17 -41t-17 -40.5t-43 -15.5
h-295v-6q22 0 40.5 -16t18.5 -42v-363h241zM375 391q27 0 44 -15.5t17 -41.5t-17 -42t-44 -16h-86q-27 0 -44 16t-17 42t17 41.5t44 15.5h86z" />
    <glyph glyph-name="Egrave.ss02" horiz-adv-x="644" 
d="M329 870l78 -66q20 -16 23 -36t-13 -38q-16 -19 -36.5 -20t-39.5 16l-77 65q-42 35 -9 74q34 39 74 5zM476 490q-1 0 -8.5 7t-10 8.5t-10.5 7.5t-13.5 8.5t-15.5 7.5t-19.5 7t-21.5 5t-26 4t-30 1q-124 0 -167 -74l5 -3q27 42 75 33q-65 -57 -65 -175q0 -96 47 -158
t133 -62q18 0 34.5 3.5t27 7t24.5 12.5t18.5 12.5t17.5 15t14 12.5q45 37 82 1q40 -40 2 -86q-30 -37 -91 -65t-135 -28q-133 0 -214.5 94.5t-81.5 239.5q0 147 81 241t213 94q70 0 130 -25.5t90 -60.5q35 -42 -6 -83q-24 -21 -40.5 -20.5t-38.5 18.5zM413 391q27 0 44 -16
t17 -41q0 -26 -17 -42t-44 -16h-129q-27 0 -44 16t-17 42q0 25 17 41t44 16h129z" />
    <glyph glyph-name="Emacron.ss01" horiz-adv-x="526" 
d="M413 756q0 -22 -14 -35t-37 -13h-182q-23 0 -37 13t-14 35t14 35t37 13h182q23 0 37 -13t14 -35zM425 113q26 0 43 -15.5t17 -40.5t-17 -41t-43 -16h-299q-27 0 -43.5 17.5t-16.5 45.5v527q0 28 16.5 45.5t43.5 17.5h294q26 0 43 -16t17 -41t-17 -40.5t-43 -15.5h-295v-6
q22 0 40.5 -16t18.5 -42v-363h241zM375 391q27 0 44 -15.5t17 -41.5t-17 -42t-44 -16h-86q-27 0 -44 16t-17 42t17 41.5t44 15.5h86z" />
    <glyph glyph-name="Emacron.ss02" horiz-adv-x="644" 
d="M478 756q0 -22 -14 -35t-37 -13h-182q-23 0 -37 13t-14 35t14 35t37 13h182q23 0 37 -13t14 -35zM476 490q-1 0 -8.5 7t-10 8.5t-10.5 7.5t-13.5 8.5t-15.5 7.5t-19.5 7t-21.5 5t-26 4t-30 1q-124 0 -167 -74l5 -3q27 42 75 33q-65 -57 -65 -175q0 -96 47 -158t133 -62
q18 0 34.5 3.5t27 7t24.5 12.5t18.5 12.5t17.5 15t14 12.5q45 37 82 1q40 -40 2 -86q-30 -37 -91 -65t-135 -28q-133 0 -214.5 94.5t-81.5 239.5q0 147 81 241t213 94q70 0 130 -25.5t90 -60.5q35 -42 -6 -83q-24 -21 -40.5 -20.5t-38.5 18.5zM413 391q27 0 44 -16t17 -41
q0 -26 -17 -42t-44 -16h-129q-27 0 -44 16t-17 42q0 25 17 41t44 16h129z" />
    <glyph glyph-name="Eogonek.ss01" horiz-adv-x="526" 
d="M487 -95q16 -37 -19 -59q-24 -14 -56 -14q-41 -1 -68.5 20.5t-28.5 62.5q-1 49 39 85h-228q-27 0 -43.5 17.5t-16.5 45.5v527q0 28 16.5 45.5t43.5 17.5h294q26 0 43 -16t17 -41t-17 -40.5t-43 -15.5h-295v-6q22 0 40.5 -16t18.5 -42v-363h241q26 0 43 -15.5t17 -40.5
q0 -22 -13 -37t-34 -19q-51 -15 -51 -50q0 -24 24 -24q1 0 29 7q32 9 47 -29zM289 391h86q27 0 44 -15.5t17 -41.5t-17 -42t-44 -16h-86q-27 0 -44 16t-17 42t17 41.5t44 15.5z" />
    <glyph glyph-name="Eogonek.ss02" horiz-adv-x="644" 
d="M567 171q40 -40 2 -86q-49 -62 -150 -84q-49 -16 -49 -50q0 -24 24 -24q1 0 29 7q32 9 47 -29q16 -37 -19 -59q-24 -14 -56 -14q-41 -1 -68.5 20.5t-28.5 62.5q0 46 31 77q-127 5 -204.5 99t-77.5 235q0 147 81 241t213 94q70 0 130 -25.5t90 -60.5q35 -42 -6 -83
q-24 -21 -40.5 -20.5t-38.5 18.5q-1 0 -8.5 7t-10 8.5t-10.5 7.5t-13.5 8.5t-15.5 7.5t-19.5 7t-21.5 5t-26 4t-30 1q-124 0 -167 -74l5 -3q27 42 75 33q-65 -57 -65 -175q0 -96 47 -158t133 -62q18 0 34.5 3.5t27 7t24.5 12.5t18.5 12.5t17.5 15t14 12.5q45 37 82 1z
M284 391h129q27 0 44 -16t17 -41q0 -26 -17 -42t-44 -16h-129q-27 0 -44 16t-17 42q0 25 17 41t44 16z" />
    <glyph glyph-name="F.ss01" horiz-adv-x="497" 
d="M400 653q26 0 43 -16t17 -41t-16.5 -40.5t-43.5 -15.5h-275v-6q22 0 41.5 -16t19.5 -42v-413q0 -27 -16.5 -45t-43.5 -18t-43.5 17.5t-16.5 45.5v527q0 28 16.5 45.5t43.5 17.5h274zM350 378q28 0 45 -15.5t17 -41.5t-17 -41.5t-45 -15.5h-60q-28 0 -45 15.5t-17 41.5
t17 41.5t45 15.5h60z" />
    <glyph glyph-name="F.ss02" horiz-adv-x="497" 
d="M400 653q26 0 43 -16t17 -41t-16.5 -40.5t-43.5 -15.5h-88q-69 -1 -97.5 -40t-28.5 -121v-316q0 -27 -16.5 -45t-43.5 -18t-43.5 17.5t-16.5 45.5v326q0 129 67.5 196.5t189.5 67.5h77zM350 378q28 0 45 -16t17 -41t-17 -41t-45 -16h-62q-27 0 -44 16t-17 41t17 41t44 16
h62z" />
    <glyph glyph-name="G.ss01" horiz-adv-x="692" 
d="M511 492q-57 55 -174 55q-134 0 -179 -75l5 -4q27 41 81 34q-75 -61 -75 -175q0 -97 56 -159t152 -62q93 0 155 75q2 3 3 4q39 39 81 9q46 -33 11 -83q-27 -46 -95.5 -82.5t-157.5 -36.5q-144 0 -235.5 95t-91.5 239q0 145 91.5 240t232.5 95q71 0 130.5 -23.5
t88.5 -56.5q37 -39 2 -79q-40 -44 -81 -10zM645 308q0 -25 -16 -40t-42 -15h-155q-26 0 -42 15t-16 40t16 40t42 15h155q26 0 42 -15t16 -40z" />
    <glyph glyph-name="Gbreve.ss01" horiz-adv-x="692" 
d="M495 874q43 -22 12 -83q-43 -81 -144 -81q-102 0 -145 81q-31 61 12 83q43 25 72 -21q11 -18 16 -24.5t17.5 -15t27.5 -8.5t27 8t17.5 15.5t15.5 24.5q29 46 72 21zM511 492q-57 55 -174 55q-134 0 -179 -75l5 -4q27 41 81 34q-75 -61 -75 -175q0 -97 56 -159t152 -62
q93 0 155 75q2 3 3 4q39 39 81 9q46 -33 11 -83q-27 -46 -95.5 -82.5t-157.5 -36.5q-144 0 -235.5 95t-91.5 239q0 145 91.5 240t232.5 95q71 0 130.5 -23.5t88.5 -56.5q37 -39 2 -79q-40 -44 -81 -10zM645 308q0 -25 -16 -40t-42 -15h-155q-26 0 -42 15t-16 40t16 40t42 15
h155q26 0 42 -15t16 -40z" />
    <glyph glyph-name="uni0122.ss01" horiz-adv-x="692" 
d="M511 492q-57 55 -174 55q-134 0 -179 -75l5 -4q27 41 81 34q-75 -61 -75 -175q0 -97 56 -159t152 -62q93 0 155 75q2 3 3 4q39 39 81 9q46 -33 11 -83q-27 -46 -95.5 -82.5t-157.5 -36.5q-144 0 -235.5 95t-91.5 239q0 145 91.5 240t232.5 95q71 0 130.5 -23.5
t88.5 -56.5q37 -39 2 -79q-40 -44 -81 -10zM645 308q0 -25 -16 -40t-42 -15h-155q-26 0 -42 15t-16 40t16 40t42 15h155q26 0 42 -15t16 -40zM427 -109l-56 -76q-11 -16 -26 -16q-13 0 -21.5 9t-8.5 21q0 5 1 9l20 87q11 44 54 44q48 0 48 -48q0 -14 -11 -30z" />
    <glyph glyph-name="Gdotaccent.ss01" horiz-adv-x="692" 
d="M363 694q-28 0 -45.5 18t-17.5 45t17.5 45t45.5 18t45.5 -18t17.5 -45t-17.5 -45t-45.5 -18zM511 492q-57 55 -174 55q-134 0 -179 -75l5 -4q27 41 81 34q-75 -61 -75 -175q0 -97 56 -159t152 -62q93 0 155 75q2 3 3 4q39 39 81 9q46 -33 11 -83q-27 -46 -95.5 -82.5
t-157.5 -36.5q-144 0 -235.5 95t-91.5 239q0 145 91.5 240t232.5 95q71 0 130.5 -23.5t88.5 -56.5q37 -39 2 -79q-40 -44 -81 -10zM645 308q0 -25 -16 -40t-42 -15h-155q-26 0 -42 15t-16 40t16 40t42 15h155q26 0 42 -15t16 -40z" />
    <glyph glyph-name="H.ss01" horiz-adv-x="728" 
d="M126 653q26 0 42.5 -17t17.5 -42v-3q0 -22 -20 -37t-41 -15v-5h61v-471q0 -27 -16.5 -45t-43.5 -18t-43.5 17.5t-16.5 45.5v527q0 28 16.5 45.5t43.5 17.5zM602 653q27 0 43.5 -17t16.5 -42v-3q0 -22 -20 -37t-41 -15v-5h61v-471q0 -28 -16.5 -45.5t-43.5 -17.5
t-43.5 17.5t-16.5 45.5v527q0 28 16.5 45.5t43.5 17.5zM499 334q0 -26 -17 -42t-43 -16h-150q-27 0 -44 15.5t-17 42.5t17 42.5t44 15.5h150q26 0 43 -16t17 -42z" />
    <glyph glyph-name="I.ss01" horiz-adv-x="322" 
d="M231 114q26 0 43 -16t17 -41t-17 -41t-43 -16h-139q-27 0 -43.5 15.5t-16.5 41.5t16.5 41.5t43.5 15.5h10v425h-10q-27 0 -43.5 15.5t-16.5 41.5t16.5 41.5t43.5 15.5h139q26 0 43 -16t17 -41t-17 -41t-43 -16h-72v-5q22 0 41.5 -16t19.5 -42v-362h11z" />
    <glyph glyph-name="Iacute.ss01" horiz-adv-x="322" 
d="M168 870q40 34 74 -5q33 -39 -9 -74l-77 -65q-19 -17 -39.5 -16t-36.5 20q-16 18 -13 38t23 36zM231 114q26 0 43 -16t17 -41t-17 -41t-43 -16h-139q-27 0 -43.5 15.5t-16.5 41.5t16.5 41.5t43.5 15.5h10v425h-10q-27 0 -43.5 15.5t-16.5 41.5t16.5 41.5t43.5 15.5h139
q26 0 43 -16t17 -41t-17 -41t-43 -16h-72v-5q22 0 41.5 -16t19.5 -42v-362h11z" />
    <glyph glyph-name="Ibreve.ss01" horiz-adv-x="322" 
d="M293 874q43 -22 12 -83q-43 -81 -144 -81q-102 0 -145 81q-31 61 12 83q43 25 72 -21q11 -18 16 -24.5t17.5 -15t27.5 -8.5t27 8t17.5 15.5t15.5 24.5q29 46 72 21zM231 114q26 0 43 -16t17 -41t-17 -41t-43 -16h-139q-27 0 -43.5 15.5t-16.5 41.5t16.5 41.5t43.5 15.5
h10v425h-10q-27 0 -43.5 15.5t-16.5 41.5t16.5 41.5t43.5 15.5h139q26 0 43 -16t17 -41t-17 -41t-43 -16h-72v-5q22 0 41.5 -16t19.5 -42v-362h11z" />
    <glyph glyph-name="Icircumflex.ss01" horiz-adv-x="322" 
d="M284 729q-17 -19 -37.5 -20.5t-36.5 15.5l-49 52l-50 -52q-17 -16 -37 -15t-37 20q-33 39 9 74l77 65q17 16 38 16q20 0 37 -16l77 -65q42 -35 9 -74zM231 114q26 0 43 -16t17 -41t-17 -41t-43 -16h-139q-27 0 -43.5 15.5t-16.5 41.5t16.5 41.5t43.5 15.5h10v425h-10
q-27 0 -43.5 15.5t-16.5 41.5t16.5 41.5t43.5 15.5h139q26 0 43 -16t17 -41t-17 -41t-43 -16h-72v-5q22 0 41.5 -16t19.5 -42v-362h11z" />
    <glyph glyph-name="Idieresis.ss01" horiz-adv-x="322" 
d="M83 707q-25 0 -40 15.5t-15 39.5t15 39.5t40 15.5t40 -15.5t15 -39.5t-15 -39.5t-40 -15.5zM238 707q-25 0 -40 15.5t-15 39.5t15 39.5t40 15.5t40.5 -15.5t15.5 -39.5t-15.5 -39.5t-40.5 -15.5zM231 114q26 0 43 -16t17 -41t-17 -41t-43 -16h-139q-27 0 -43.5 15.5
t-16.5 41.5t16.5 41.5t43.5 15.5h10v425h-10q-27 0 -43.5 15.5t-16.5 41.5t16.5 41.5t43.5 15.5h139q26 0 43 -16t17 -41t-17 -41t-43 -16h-72v-5q22 0 41.5 -16t19.5 -42v-362h11z" />
    <glyph glyph-name="Idotaccent.ss01" horiz-adv-x="322" 
d="M161 694q-28 0 -45.5 18t-17.5 45t17.5 45t45.5 18t45.5 -18t17.5 -45t-17.5 -45t-45.5 -18zM231 114q26 0 43 -16t17 -41t-17 -41t-43 -16h-139q-27 0 -43.5 15.5t-16.5 41.5t16.5 41.5t43.5 15.5h10v425h-10q-27 0 -43.5 15.5t-16.5 41.5t16.5 41.5t43.5 15.5h139
q26 0 43 -16t17 -41t-17 -41t-43 -16h-72v-5q22 0 41.5 -16t19.5 -42v-362h11z" />
    <glyph glyph-name="Igrave.ss01" horiz-adv-x="322" 
d="M154 870l78 -66q20 -16 23 -36t-13 -38q-16 -19 -36.5 -20t-39.5 16l-77 65q-42 35 -9 74q34 39 74 5zM231 114q26 0 43 -16t17 -41t-17 -41t-43 -16h-139q-27 0 -43.5 15.5t-16.5 41.5t16.5 41.5t43.5 15.5h10v425h-10q-27 0 -43.5 15.5t-16.5 41.5t16.5 41.5t43.5 15.5
h139q26 0 43 -16t17 -41t-17 -41t-43 -16h-72v-5q22 0 41.5 -16t19.5 -42v-362h11z" />
    <glyph glyph-name="Imacron.ss01" horiz-adv-x="322" 
d="M268 756q0 -22 -14 -35t-37 -13h-112q-23 0 -37 13t-14 35t14 35t37 13h112q23 0 37 -13t14 -35zM231 114q26 0 43 -16t17 -41t-17 -41t-43 -16h-139q-27 0 -43.5 15.5t-16.5 41.5t16.5 41.5t43.5 15.5h10v425h-10q-27 0 -43.5 15.5t-16.5 41.5t16.5 41.5t43.5 15.5h139
q26 0 43 -16t17 -41t-17 -41t-43 -16h-72v-5q22 0 41.5 -16t19.5 -42v-362h11z" />
    <glyph glyph-name="Iogonek.ss01" horiz-adv-x="322" 
d="M293 -95q16 -37 -19 -59q-24 -14 -56 -14q-41 -1 -68.5 20.5t-28.5 62.5q-1 49 39 85h-68q-27 0 -43.5 15.5t-16.5 41.5t16.5 41.5t43.5 15.5h10v425h-10q-27 0 -43.5 15.5t-16.5 41.5t16.5 41.5t43.5 15.5h139q26 0 43 -16t17 -41t-17 -41t-43 -16h-72v-5q22 0 41.5 -16
t19.5 -42v-362h11q26 0 43 -16t17 -41q0 -22 -13 -37t-34 -19q-51 -15 -51 -50q0 -24 24 -24q1 0 29 7q32 9 47 -29z" />
    <glyph glyph-name="Itilde.ss01" horiz-adv-x="322" 
d="M285 794q21 -34 -17 -69q-24 -23 -47.5 -24t-62.5 18q-26 9 -31.5 8t-22.5 -13q-18 -12 -37 -7.5t-30 23.5q-18 31 16 67q44 44 108 10q26 -12 31.5 -12t22.5 12q21 14 39.5 10t30.5 -23zM231 114q26 0 43 -16t17 -41t-17 -41t-43 -16h-139q-27 0 -43.5 15.5t-16.5 41.5
t16.5 41.5t43.5 15.5h10v425h-10q-27 0 -43.5 15.5t-16.5 41.5t16.5 41.5t43.5 15.5h139q26 0 43 -16t17 -41t-17 -41t-43 -16h-72v-5q22 0 41.5 -16t19.5 -42v-362h11z" />
    <glyph glyph-name="uni00A40301" horiz-adv-x="329" 
d="M159 870q40 34 74 -5q33 -39 -9 -74l-77 -65q-19 -17 -39.5 -16t-36.5 20q-16 18 -13 38t23 36zM203 653q27 0 43.5 -17.5t16.5 -45.5v-523q0 -157 -149 -210q-26 -9 -48 0.5t-30 33.5q-17 51 38 77q69 34 69 116v392q0 26 19.5 42t41.5 16v5h-116q-27 0 -43.5 15.5
t-16.5 41.5t16.5 41.5t43.5 15.5h115z" />
    <glyph glyph-name="K.ss01" horiz-adv-x="614" 
d="M569 77q10 -26 -3 -48.5t-39 -27.5q-22 -5 -43 7.5t-31 38.5l-55 131q-20 48 -47.5 71t-80.5 23q-27 0 -43 14.5t-16 41.5t16 41.5t43 14.5q36 0 56 22.5t41 72.5l53 127q23 58 74 45q27 -7 38.5 -29t2.5 -46l-54 -131q-27 -59 -48 -75q-23 -18 -65 -8l-7 -4
q103 -28 153 -147zM126 653q27 0 43.5 -17t16.5 -42v-3q0 -22 -20 -37t-41 -15v-5h61v-471q0 -27 -16.5 -45t-43.5 -18t-43.5 17.5t-16.5 45.5v527q0 28 16.5 45.5t43.5 17.5z" />
    <glyph glyph-name="uni0136.ss01" horiz-adv-x="614" 
d="M569 77q10 -26 -3 -48.5t-39 -27.5q-22 -5 -43 7.5t-31 38.5l-55 131q-20 48 -47.5 71t-80.5 23q-27 0 -43 14.5t-16 41.5t16 41.5t43 14.5q36 0 56 22.5t41 72.5l53 127q23 58 74 45q27 -7 38.5 -29t2.5 -46l-54 -131q-27 -59 -48 -75q-23 -18 -65 -8l-7 -4
q103 -28 153 -147zM126 653q27 0 43.5 -17t16.5 -42v-3q0 -22 -20 -37t-41 -15v-5h61v-471q0 -27 -16.5 -45t-43.5 -18t-43.5 17.5t-16.5 45.5v527q0 28 16.5 45.5t43.5 17.5zM348 -109l-56 -76q-11 -16 -26 -16q-13 0 -21.5 9t-8.5 21q0 5 1 9l20 87q11 44 54 44
q48 0 48 -48q0 -14 -11 -30z" />
    <glyph glyph-name="O.ss01" horiz-adv-x="764" 
d="M382 -8q-147 0 -241 94t-94 239q0 146 94 241t241 95t241 -95t94 -241q0 -145 -94 -239t-241 -94zM404 106q66 0 124.5 21t80.5 58l-5 3q-14 -22 -39 -31.5t-49 -5.5q79 62 79 174q0 98 -62.5 160t-172.5 62q-66 0 -124.5 -21t-80.5 -58l5 -3q14 22 39 31.5t49 5.5
q-79 -62 -79 -177q0 -97 62.5 -158t172.5 -61z" />
    <glyph glyph-name="O.ss02" horiz-adv-x="764" 
d="M382 -8q-147 0 -241 94t-94 239q0 146 94 241t241 95t241 -95t94 -241q0 -145 -94 -239t-241 -94zM382 106q96 0 154.5 61.5t58.5 157.5q0 98 -62.5 160t-172.5 62q-66 0 -124.5 -21t-80.5 -58l5 -3q14 22 39 31.5t49 5.5q-79 -62 -79 -177q0 -96 58.5 -157.5
t154.5 -61.5zM382 263q-28 0 -45.5 18t-17.5 45t18 45t45 18t45 -18t18 -45t-17.5 -45t-45.5 -18z" />
    <glyph glyph-name="O.ss03" horiz-adv-x="764" 
d="M382 -8q-147 0 -241 94t-94 239q0 146 94 241t241 95t241 -95t94 -241q0 -145 -94 -239t-241 -94zM404 106q66 0 124.5 21t80.5 58l-5 3q-14 -22 -39 -31.5t-49 -5.5q79 62 79 174q0 98 -62.5 160t-172.5 62q-66 0 -124.5 -21t-80.5 -58l5 -3q14 22 39 31.5t49 5.5
q-79 -62 -79 -177q0 -97 62.5 -158t172.5 -61zM382 263q-28 0 -45.5 18t-17.5 45t18 45t45 18t45 -18t18 -45t-17.5 -45t-45.5 -18z" />
    <glyph glyph-name="Oacute.ss01" horiz-adv-x="764" 
d="M389 870q40 34 74 -5q33 -39 -9 -74l-77 -65q-19 -17 -39.5 -16t-36.5 20q-16 18 -13 38t23 36zM382 -8q-147 0 -241 94t-94 239q0 146 94 241t241 95t241 -95t94 -241q0 -145 -94 -239t-241 -94zM404 106q66 0 124.5 21t80.5 58l-5 3q-14 -22 -39 -31.5t-49 -5.5
q79 62 79 174q0 98 -62.5 160t-172.5 62q-66 0 -124.5 -21t-80.5 -58l5 -3q14 22 39 31.5t49 5.5q-79 -62 -79 -177q0 -97 62.5 -158t172.5 -61z" />
    <glyph glyph-name="Obreve.ss01" horiz-adv-x="764" 
d="M514 874q43 -22 12 -83q-43 -81 -144 -81q-102 0 -145 81q-31 61 12 83q43 25 72 -21q11 -18 16 -24.5t17.5 -15t27.5 -8.5t27 8t17.5 15.5t15.5 24.5q29 46 72 21zM382 -8q-147 0 -241 94t-94 239q0 146 94 241t241 95t241 -95t94 -241q0 -145 -94 -239t-241 -94z
M404 106q66 0 124.5 21t80.5 58l-5 3q-14 -22 -39 -31.5t-49 -5.5q79 62 79 174q0 98 -62.5 160t-172.5 62q-66 0 -124.5 -21t-80.5 -58l5 -3q14 22 39 31.5t49 5.5q-79 -62 -79 -177q0 -97 62.5 -158t172.5 -61z" />
    <glyph glyph-name="Ocircumflex.ss01" horiz-adv-x="764" 
d="M505 729q-17 -19 -37.5 -20.5t-36.5 15.5l-49 52l-50 -52q-17 -16 -37 -15t-37 20q-33 39 9 74l77 65q17 16 38 16q20 0 37 -16l77 -65q42 -35 9 -74zM382 -8q-147 0 -241 94t-94 239q0 146 94 241t241 95t241 -95t94 -241q0 -145 -94 -239t-241 -94zM404 106
q66 0 124.5 21t80.5 58l-5 3q-14 -22 -39 -31.5t-49 -5.5q79 62 79 174q0 98 -62.5 160t-172.5 62q-66 0 -124.5 -21t-80.5 -58l5 -3q14 22 39 31.5t49 5.5q-79 -62 -79 -177q0 -97 62.5 -158t172.5 -61z" />
    <glyph glyph-name="Odieresis.ss01" horiz-adv-x="764" 
d="M304 707q-25 0 -40 15.5t-15 39.5t15 39.5t40 15.5t40 -15.5t15 -39.5t-15 -39.5t-40 -15.5zM459 707q-25 0 -40 15.5t-15 39.5t15 39.5t40 15.5t40.5 -15.5t15.5 -39.5t-15.5 -39.5t-40.5 -15.5zM382 -8q-147 0 -241 94t-94 239q0 146 94 241t241 95t241 -95t94 -241
q0 -145 -94 -239t-241 -94zM404 106q66 0 124.5 21t80.5 58l-5 3q-14 -22 -39 -31.5t-49 -5.5q79 62 79 174q0 98 -62.5 160t-172.5 62q-66 0 -124.5 -21t-80.5 -58l5 -3q14 22 39 31.5t49 5.5q-79 -62 -79 -177q0 -97 62.5 -158t172.5 -61z" />
    <glyph glyph-name="Ograve.ss01" horiz-adv-x="764" 
d="M375 870l78 -66q20 -16 23 -36t-13 -38q-16 -19 -36.5 -20t-39.5 16l-77 65q-42 35 -9 74q34 39 74 5zM382 -8q-147 0 -241 94t-94 239q0 146 94 241t241 95t241 -95t94 -241q0 -145 -94 -239t-241 -94zM404 106q66 0 124.5 21t80.5 58l-5 3q-14 -22 -39 -31.5t-49 -5.5
q79 62 79 174q0 98 -62.5 160t-172.5 62q-66 0 -124.5 -21t-80.5 -58l5 -3q14 22 39 31.5t49 5.5q-79 -62 -79 -177q0 -97 62.5 -158t172.5 -61z" />
    <glyph glyph-name="Ohungarumlaut.ss01" horiz-adv-x="764" 
d="M495 870q33 38 68 7q34 -28 2 -69l-72 -83q-30 -37 -69 -6q-16 13 -16 31.5t14 35.5zM313 870q30 37 68 7q34 -29 2 -69l-72 -83q-32 -39 -69 -6q-16 14 -16.5 32t14.5 35zM382 -8q-147 0 -241 94t-94 239q0 146 94 241t241 95t241 -95t94 -241q0 -145 -94 -239t-241 -94
zM404 106q66 0 124.5 21t80.5 58l-5 3q-14 -22 -39 -31.5t-49 -5.5q79 62 79 174q0 98 -62.5 160t-172.5 62q-66 0 -124.5 -21t-80.5 -58l5 -3q14 22 39 31.5t49 5.5q-79 -62 -79 -177q0 -97 62.5 -158t172.5 -61z" />
    <glyph glyph-name="Omacron.ss01" horiz-adv-x="764" 
d="M524 756q0 -22 -14 -35t-37 -13h-182q-23 0 -37 13t-14 35t14 35t37 13h182q23 0 37 -13t14 -35zM382 -8q-147 0 -241 94t-94 239q0 146 94 241t241 95t241 -95t94 -241q0 -145 -94 -239t-241 -94zM404 106q66 0 124.5 21t80.5 58l-5 3q-14 -22 -39 -31.5t-49 -5.5
q79 62 79 174q0 98 -62.5 160t-172.5 62q-66 0 -124.5 -21t-80.5 -58l5 -3q14 22 39 31.5t49 5.5q-79 -62 -79 -177q0 -97 62.5 -158t172.5 -61z" />
    <glyph glyph-name="Otilde.ss01" horiz-adv-x="764" 
d="M506 794q21 -34 -17 -69q-24 -23 -47.5 -24t-62.5 18q-26 9 -31.5 8t-22.5 -13q-18 -12 -37 -7.5t-30 23.5q-18 31 16 67q44 44 108 10q26 -12 31.5 -12t22.5 12q21 14 39.5 10t30.5 -23zM382 -8q-147 0 -241 94t-94 239q0 146 94 241t241 95t241 -95t94 -241
q0 -145 -94 -239t-241 -94zM404 106q66 0 124.5 21t80.5 58l-5 3q-14 -22 -39 -31.5t-49 -5.5q79 62 79 174q0 98 -62.5 160t-172.5 62q-66 0 -124.5 -21t-80.5 -58l5 -3q14 22 39 31.5t49 5.5q-79 -62 -79 -177q0 -97 62.5 -158t172.5 -61z" />
    <glyph glyph-name="OE.ss01" horiz-adv-x="1060" 
d="M958 113q27 0 43.5 -15.5t16.5 -40.5q0 -26 -16.5 -41.5t-43.5 -15.5h-299q-27 0 -43.5 17.5t-16.5 45.5v2q-90 -73 -217 -73q-147 0 -241 94t-94 239q0 146 94 241t241 95q125 0 217 -74v3q0 28 16.5 45.5t43.5 17.5h294q27 0 43.5 -15.5t16.5 -41.5q0 -25 -16.5 -40.5
t-43.5 -15.5h-294v-6q22 0 40 -16t18 -42v-363h241zM382 106q96 0 154.5 61.5t58.5 157.5q0 98 -62.5 160t-172.5 62q-66 0 -124.5 -21t-80.5 -58l5 -3q14 22 39 31.5t49 5.5q-79 -62 -79 -177q0 -96 58.5 -157.5t154.5 -61.5zM822 391h86q27 0 44 -15.5t17 -41.5t-17 -42
t-44 -16h-86q-26 0 -43 16t-17 42t16.5 41.5t43.5 15.5z" />
    <glyph glyph-name="P.ss01" horiz-adv-x="604" 
d="M338 653q60 0 106.5 -20.5t73 -55t39.5 -74t13 -82.5q0 -95 -63 -163.5t-165 -68.5h-47q-27 0 -42 15t-15 41q0 56 57 56h39q128 0 157 69l-5 3q-6 -14 -26 -26t-38 -10q30 33 30 84q0 47 -29 83t-98 36h-200v-5q22 0 41.5 -16.5t19.5 -42.5v-413q0 -27 -16.5 -45
t-43.5 -18t-43.5 17.5t-16.5 45.5v527q0 28 16.5 45.5t43.5 17.5h212z" />
    <glyph glyph-name="Thorn.ss01" horiz-adv-x="599" 
d="M126 653q27 0 43.5 -17t16.5 -42v-3q0 -22 -20 -37t-41 -15v-5h61v-471q0 -27 -16.5 -45t-43.5 -18t-43.5 17.5t-16.5 45.5v527q0 28 16.5 45.5t43.5 17.5zM331 560q103 0 166.5 -68t63.5 -162t-63.5 -162t-166.5 -68h-47q-26 0 -41 14t-15 41q0 26 15 40.5t41 14.5h27
q132 0 132 120t-132 120h-27q-26 0 -41 14.5t-15 40.5q0 27 15 41t41 14h47z" />
    <glyph glyph-name="Q.ss01" horiz-adv-x="764" 
d="M382 661q146 0 240.5 -95t94.5 -240q0 -73 -25 -134q-21 -52 -80 -31q-26 10 -34.5 31.5t1.5 46.5q16 39 16 87q0 95 -63 158t-172 63q-66 0 -124.5 -21t-80.5 -58l5 -3q15 22 39.5 31.5t50.5 4.5q-81 -64 -81 -175q0 -94 59.5 -156.5t153.5 -62.5h27q26 1 42 -15t17 -43
q1 -26 -15.5 -42t-43.5 -15h-27q-147 0 -241 94t-94 240q0 145 94.5 240t240.5 95zM655 -12q-18 -17 -41.5 -17t-42.5 19l-60 61q-19 19 -19.5 42t17.5 41t41 17.5t42 -19.5l61 -60q19 -19 19 -42.5t-17 -41.5z" />
    <glyph glyph-name="R.ss01" horiz-adv-x="633" 
d="M559 9q-21 -14 -44.5 -9.5t-38.5 26.5l-77 114q-50 81 -107 81q-25 0 -40 14.5t-15 38.5t15 38.5t40 14.5h37q45 0 91 14.5t62 53.5l-6 3q-16 -32 -60 -37q28 29 28 78q0 44 -27 73t-93 29h-199v-6q22 0 41.5 -16t19.5 -42v-414q0 -27 -16.5 -45t-43.5 -18t-43.5 17.5
t-16.5 45.5v527q0 28 16.5 45.5t43.5 17.5h214q110 0 166 -60.5t56 -149.5q0 -58 -29.5 -109t-79.5 -80q29 -26 48 -54l72 -107q14 -22 10.5 -46t-24.5 -38z" />
    <glyph glyph-name="Racute.ss01" horiz-adv-x="633" 
d="M318 870q40 34 74 -5q33 -39 -9 -74l-77 -65q-19 -17 -39.5 -16t-36.5 20q-16 18 -13 38t23 36zM559 9q-21 -14 -44.5 -9.5t-38.5 26.5l-77 114q-50 81 -107 81q-25 0 -40 14.5t-15 38.5t15 38.5t40 14.5h37q45 0 91 14.5t62 53.5l-6 3q-16 -32 -60 -37q28 29 28 78
q0 44 -27 73t-93 29h-199v-6q22 0 41.5 -16t19.5 -42v-414q0 -27 -16.5 -45t-43.5 -18t-43.5 17.5t-16.5 45.5v527q0 28 16.5 45.5t43.5 17.5h214q110 0 166 -60.5t56 -149.5q0 -58 -29.5 -109t-79.5 -80q29 -26 48 -54l72 -107q14 -22 10.5 -46t-24.5 -38z" />
    <glyph glyph-name="Rcaron.ss01" horiz-adv-x="633" 
d="M434 865q33 -39 -9 -74l-77 -65q-17 -16 -37 -16q-21 0 -38 16l-77 65q-42 35 -9 74q17 19 37 20t37 -15l50 -52l49 52q16 17 36.5 15.5t37.5 -20.5zM559 9q-21 -14 -44.5 -9.5t-38.5 26.5l-77 114q-50 81 -107 81q-25 0 -40 14.5t-15 38.5t15 38.5t40 14.5h37
q45 0 91 14.5t62 53.5l-6 3q-16 -32 -60 -37q28 29 28 78q0 44 -27 73t-93 29h-199v-6q22 0 41.5 -16t19.5 -42v-414q0 -27 -16.5 -45t-43.5 -18t-43.5 17.5t-16.5 45.5v527q0 28 16.5 45.5t43.5 17.5h214q110 0 166 -60.5t56 -149.5q0 -58 -29.5 -109t-79.5 -80
q29 -26 48 -54l72 -107q14 -22 10.5 -46t-24.5 -38z" />
    <glyph glyph-name="uni0156.ss01" horiz-adv-x="633" 
d="M559 9q-21 -14 -44.5 -9.5t-38.5 26.5l-77 114q-50 81 -107 81q-25 0 -40 14.5t-15 38.5t15 38.5t40 14.5h37q45 0 91 14.5t62 53.5l-6 3q-16 -32 -60 -37q28 29 28 78q0 44 -27 73t-93 29h-199v-6q22 0 41.5 -16t19.5 -42v-414q0 -27 -16.5 -45t-43.5 -18t-43.5 17.5
t-16.5 45.5v527q0 28 16.5 45.5t43.5 17.5h214q110 0 166 -60.5t56 -149.5q0 -58 -29.5 -109t-79.5 -80q29 -26 48 -54l72 -107q14 -22 10.5 -46t-24.5 -38zM366 -109l-56 -76q-11 -16 -26 -16q-13 0 -21.5 9t-8.5 21q0 5 1 9l20 87q11 44 54 44q48 0 48 -48q0 -14 -11 -30z
" />
    <glyph glyph-name="T.ss01" horiz-adv-x="623" 
d="M144 653q50 0 88 -9.5t71 -32t50.5 -66t17.5 -106.5v-376q0 -28 -16.5 -45.5t-43.5 -17.5t-43.5 18t-16.5 45v366q0 64 -24 87t-72 24h-67q-26 0 -43 15.5t-17 40.5t17 41t43 16h56zM534 653q27 0 43.5 -15.5t16.5 -41.5q0 -25 -16.5 -40.5t-43.5 -15.5h-104
q-26 0 -43 15.5t-17 40.5t17 41t43 16h104z" />
    <glyph glyph-name="Tbar.ss01" horiz-adv-x="623" 
d="M421 371q24 0 39.5 -14.5t15.5 -36.5q0 -23 -15.5 -37.5t-39.5 -14.5h-111v-5q22 0 41.5 -16t19.5 -42v-142q0 -28 -16.5 -45.5t-43.5 -17.5t-43.5 18t-16.5 45v205h-50q-24 0 -39 14.5t-15 37.5t15 37t39 14h50v58q0 64 -24 87t-72 24h-67q-26 0 -43 15.5t-17 40.5
t17 41t43 16h56q50 0 88 -9.5t71 -32t50.5 -66t17.5 -106.5v-68h50zM534 653q27 0 43.5 -15.5t16.5 -41.5q0 -25 -16.5 -40.5t-43.5 -15.5h-104q-26 0 -43 15.5t-17 40.5t17 41t43 16h104z" />
    <glyph glyph-name="Tcaron.ss01" horiz-adv-x="623" 
d="M434 865q33 -39 -9 -74l-77 -65q-17 -16 -37 -16q-21 0 -38 16l-77 65q-42 35 -9 74q17 19 37 20t37 -15l50 -52l49 52q16 17 36.5 15.5t37.5 -20.5zM144 653q50 0 88 -9.5t71 -32t50.5 -66t17.5 -106.5v-376q0 -28 -16.5 -45.5t-43.5 -17.5t-43.5 18t-16.5 45v366
q0 64 -24 87t-72 24h-67q-26 0 -43 15.5t-17 40.5t17 41t43 16h56zM534 653q27 0 43.5 -15.5t16.5 -41.5q0 -25 -16.5 -40.5t-43.5 -15.5h-104q-26 0 -43 15.5t-17 40.5t17 41t43 16h104z" />
    <glyph glyph-name="uni0162.ss01" horiz-adv-x="623" 
d="M327 -27q73 -23 73 -85q0 -41 -28 -63.5t-70 -22.5q-36 0 -68 18q-25 16 -18 38q10 25 38 18q39 -12 50 -12q29 0 29 21q0 32 -73 48q-12 3 -8 15l27 60q-28 18 -28 55v366q0 64 -24 87t-72 24h-67q-26 0 -43 15.5t-17 40.5t17 41t43 16h56q50 0 88 -9.5t71 -32t50.5 -66
t17.5 -106.5v-376q0 -38 -28 -54zM534 653q27 0 43.5 -15.5t16.5 -41.5q0 -25 -16.5 -40.5t-43.5 -15.5h-104q-26 0 -43 15.5t-17 40.5t17 41t43 16h104z" />
    <glyph glyph-name="uni021A.001" horiz-adv-x="623" 
d="M144 653q50 0 88 -9.5t71 -32t50.5 -66t17.5 -106.5v-376q0 -28 -16.5 -45.5t-43.5 -17.5t-43.5 18t-16.5 45v366q0 64 -24 87t-72 24h-67q-26 0 -43 15.5t-17 40.5t17 41t43 16h56zM534 653q27 0 43.5 -15.5t16.5 -41.5q0 -25 -16.5 -40.5t-43.5 -15.5h-104
q-26 0 -43 15.5t-17 40.5t17 41t43 16h104zM345 -109l-56 -76q-11 -16 -26 -16q-13 0 -21.5 9t-8.5 21q0 5 1 9l20 87q11 44 54 44q48 0 48 -48q0 -14 -11 -30z" />
    <glyph glyph-name="V.ss01" horiz-adv-x="615" 
d="M327 0q-25 -10 -47 1t-32 36l-213 531q-10 25 -1.5 48t33.5 33t47 -1t32 -36l207 -529q11 -24 4.5 -48.5t-30.5 -34.5zM360 178q-47 19 -24 79l133 355q10 25 32 36t47 1t34 -33t-1 -48l-142 -353q-11 -26 -33 -36.5t-46 -0.5z" />
    <glyph glyph-name="W.ss01" horiz-adv-x="886" 
d="M816 650q25 -9 35 -31.5t2 -47.5l-178 -530q-6 -21 -23 -33t-38 -12q-47 0 -62 46l-109 322l-48 -141q-17 -48 -64 -34q-48 13 -30 70l82 279q5 19 22 31t38 12t37.5 -12t21.5 -31l122 -412l5 9q-15 60 5 124l106 349q7 27 28.5 39t47.5 3zM290 1q-27 -10 -49.5 1.5
t-31.5 38.5l-175 528q-9 25 0 47t33 32q25 10 47 -0.5t32 -35.5l171 -530q21 -64 -27 -81z" />
    <glyph glyph-name="Wacute.ss01" horiz-adv-x="886" 
d="M450 870q40 34 74 -5q33 -39 -9 -74l-77 -65q-19 -17 -39.5 -16t-36.5 20q-16 18 -13 38t23 36zM816 650q25 -9 35 -31.5t2 -47.5l-178 -530q-6 -21 -23 -33t-38 -12q-47 0 -62 46l-109 322l-48 -141q-17 -48 -64 -34q-48 13 -30 70l82 279q5 19 22 31t38 12t37.5 -12
t21.5 -31l122 -412l5 9q-15 60 5 124l106 349q7 27 28.5 39t47.5 3zM290 1q-27 -10 -49.5 1.5t-31.5 38.5l-175 528q-9 25 0 47t33 32q25 10 47 -0.5t32 -35.5l171 -530q21 -64 -27 -81z" />
    <glyph glyph-name="Wcircumflex.ss01" horiz-adv-x="886" 
d="M566 729q-17 -19 -37.5 -20.5t-36.5 15.5l-49 52l-50 -52q-17 -16 -37 -15t-37 20q-33 39 9 74l77 65q17 16 38 16q20 0 37 -16l77 -65q42 -35 9 -74zM816 650q25 -9 35 -31.5t2 -47.5l-178 -530q-6 -21 -23 -33t-38 -12q-47 0 -62 46l-109 322l-48 -141q-17 -48 -64 -34
q-48 13 -30 70l82 279q5 19 22 31t38 12t37.5 -12t21.5 -31l122 -412l5 9q-15 60 5 124l106 349q7 27 28.5 39t47.5 3zM290 1q-27 -10 -49.5 1.5t-31.5 38.5l-175 528q-9 25 0 47t33 32q25 10 47 -0.5t32 -35.5l171 -530q21 -64 -27 -81z" />
    <glyph glyph-name="Wdieresis.ss01" horiz-adv-x="886" 
d="M365 707q-25 0 -40 15.5t-15 39.5t15 39.5t40 15.5t40 -15.5t15 -39.5t-15 -39.5t-40 -15.5zM520 707q-25 0 -40 15.5t-15 39.5t15 39.5t40 15.5t40.5 -15.5t15.5 -39.5t-15.5 -39.5t-40.5 -15.5zM816 650q25 -9 35 -31.5t2 -47.5l-178 -530q-6 -21 -23 -33t-38 -12
q-47 0 -62 46l-109 322l-48 -141q-17 -48 -64 -34q-48 13 -30 70l82 279q5 19 22 31t38 12t37.5 -12t21.5 -31l122 -412l5 9q-15 60 5 124l106 349q7 27 28.5 39t47.5 3zM290 1q-27 -10 -49.5 1.5t-31.5 38.5l-175 528q-9 25 0 47t33 32q25 10 47 -0.5t32 -35.5l171 -530
q21 -64 -27 -81z" />
    <glyph glyph-name="Wgrave.ss01" horiz-adv-x="886" 
d="M436 870l78 -66q20 -16 23 -36t-13 -38q-16 -19 -36.5 -20t-39.5 16l-77 65q-42 35 -9 74q34 39 74 5zM816 650q25 -9 35 -31.5t2 -47.5l-178 -530q-6 -21 -23 -33t-38 -12q-47 0 -62 46l-109 322l-48 -141q-17 -48 -64 -34q-48 13 -30 70l82 279q5 19 22 31t38 12
t37.5 -12t21.5 -31l122 -412l5 9q-15 60 5 124l106 349q7 27 28.5 39t47.5 3zM290 1q-27 -10 -49.5 1.5t-31.5 38.5l-175 528q-9 25 0 47t33 32q25 10 47 -0.5t32 -35.5l171 -530q21 -64 -27 -81z" />
    <glyph glyph-name="X.ss01" horiz-adv-x="581" 
d="M92 642q23 15 46.5 9t38.5 -28l73 -109q15 -23 11.5 -47t-25.5 -40q-23 -15 -47.5 -9t-38.5 30l-74 108q-15 22 -11 46.5t27 39.5zM489 642q22 -15 26 -39.5t-11 -46.5l-351 -525q-15 -23 -38.5 -29t-47.5 9q-21 15 -25 39.5t11 47.5l351 525q15 22 38.5 28t46.5 -9z
M346 262q23 15 47 9t38 -29l97 -144q15 -23 11 -47.5t-26 -39.5q-23 -15 -47 -9t-39 29l-96 145q-15 22 -11 46t26 40z" />
    <glyph glyph-name="Y.ss01" horiz-adv-x="585" 
d="M481 653q27 0 43.5 -17.5t16.5 -45.5v-82q0 -114 -69 -183.5t-180 -69.5q-110 0 -179 69.5t-69 183.5v82q0 28 16.5 45.5t43.5 17.5t43.5 -18t16.5 -45v-72q0 -135 48 -185l1 6q-9 15 -6 24.5t8.5 13.5t11.5 4q29 -16 65 -16q62 0 95.5 40.5t33.5 112.5v72q0 27 16.5 45
t43.5 18zM292 224q27 0 43.5 -17.5t16.5 -45.5v-98q0 -28 -16.5 -45.5t-43.5 -17.5t-43.5 18t-16.5 45v98q0 27 16.5 45t43.5 18z" />
    <glyph glyph-name="Yacute.ss01" horiz-adv-x="585" 
d="M299 870q40 34 74 -5q33 -39 -9 -74l-77 -65q-19 -17 -39.5 -16t-36.5 20q-16 18 -13 38t23 36zM481 653q27 0 43.5 -17.5t16.5 -45.5v-82q0 -114 -69 -183.5t-180 -69.5q-110 0 -179 69.5t-69 183.5v82q0 28 16.5 45.5t43.5 17.5t43.5 -18t16.5 -45v-72q0 -135 48 -185
l1 6q-9 15 -6 24.5t8.5 13.5t11.5 4q29 -16 65 -16q62 0 95.5 40.5t33.5 112.5v72q0 27 16.5 45t43.5 18zM292 224q27 0 43.5 -17.5t16.5 -45.5v-98q0 -28 -16.5 -45.5t-43.5 -17.5t-43.5 18t-16.5 45v98q0 27 16.5 45t43.5 18z" />
    </font>
</defs>
</svg>
